<mxfile host="app.diagrams.net" modified="2024-03-01T16:23:55.289Z" agent="Mozilla/5.0 (Windows NT 10.0; Win64; x64) AppleWebKit/537.36 (KHTML, like Gecko) Chrome/122.0.0.0 Safari/537.36" etag="PSSoo3YY_zhXKV_u0Qx_" version="24.0.0" type="device">
  <diagram name="PÃ¡gina-1" id="3lXWu4bfdk6AXxYjHUHm">
    <mxGraphModel dx="1294" dy="506" grid="1" gridSize="10" guides="1" tooltips="1" connect="1" arrows="1" fold="1" page="1" pageScale="1" pageWidth="827" pageHeight="1169" math="0" shadow="0">
      <root>
        <mxCell id="0" />
        <mxCell id="1" parent="0" />
        <mxCell id="O0pd_D38Ss_qhJY4jc5Y-1" value="" style="shape=image;verticalLabelPosition=bottom;labelBackgroundColor=default;verticalAlign=top;aspect=fixed;imageAspect=0;image=data:image/png,iVBORw0KGgoAAAANSUhEUgAAATcAAAJgCAYAAADvQSTgAAAAAXNSR0IArs4c6QAAAARnQU1BAACxjwv8YQUAAAAJcEhZcwAAEnQAABJ0Ad5mH3gAAP+lSURBVHhe7H0HoB5Vnf35en29p/eEJKTROwQQEEQELBRFsZe1ra5l96+76+ru6q51166LoqCACNJ77yFASCG95/X+9fo/5873JS8vr6bxEuYk9818M3fu3Jl775nzu9XR0dGRhw0bNmwcZXAWtjZs2LBxVMEmNxs2bByVsMnNhg0bRyVscrNhw8ZRCZvcbNiwcVTCJjcbNmwclbDJzYaNIxbqxTWce+viqOjnls9bj+BwOMy+w5FHLpczv1OpFOLxuPltfPG8/Oxx5uDu7WAY/MyRDUdha+PIg8fjRigUKPwCMpkMent7VRBMujocTjqXKQf8ryNmX/B4PAgEAnC73cbPQLDK0pGbQ45oclNC9vT0oKOzA62trUin0mhpbeGxbmSZ0NlcFrFYDEkSnNgrmyOJ0UmvKuGgffNf/wTrN/J2kbcxtiHOmTxlAs4+60zm5RyP5Jn32/HAA/ebc3nlYZFb3rk7O+u4yMpJ5yIxBrx+eH1+uD0uuJ0uVFVVobyiAj6vF/X1DSTOMCorKxEMFglUARUCOwJwRJCbVFc8EUfjrkasW7cObW1t2LlrJ+IxS5E5nU4mQBBlZWVMkBBC4SBKS8MI+ANMXyd8TEDte31e49fpZAK7XHA53SahTXoV3oLDIYXXPwH1JTxyEnV0UMGwcaTBfIP58c5k08q0pn7JKDTmb3OS2dWyRpwsI5Ylk6dLZ9JIJpO0aNJIcZtOpxGjZdNLQRDlNtobQTf34xQFulzqMBAIYtLEiWhomIBJkyYZJ7hc/Wu1xlYZGZPkJlWVzWbR0tKCNWvWYMOGDdi+fTsJyYmSkhJMnDCRX5Z6lJWXobysHAF+WXLZHFLpFBLxBBMwxcRjAiZTVqLyy5ZmeEpc/Vaqa5vJisZUuC25LuKzcsZbB8r4No5MlJaGMGHCeLGaybYxfuy3bt1icRuPidyKH+ri51lk5aRK08fdQ5PU6XbB6/aYD79MVJ/PZ8SAk6ovFo+io51WUXs7Wpub0dzcaCwll8uNqVOnYubMmcZVVJQzzMHN2zcLY4rcRDjd3d14/fXXjWtqakK4JIwZ02dQgk9GTXUNJbQbPd09iEQjSCQS5iuUzZC4mJKqc1CiZnMZQ2g5ftmk2B1Uahn6yfKrldXxjHUuQ0K0zFRlgT2ZYF/oFY2Z12TDhtgLZaWlmDTZUlFCJBLF5s2bmYOLeZUfaxEZs7RLf3iNWxYLyUkEpzo5l4s5nuf0zTcWDf24jB+aqh6PIbuAP0hrKISScIkRDY1Njdi0cRO27diGWCRm4rB40RLMnTvP1OOpDI4FvCnkZuq7+qGpuQlPPfUU1r6x2iioY46Zy5c1n2ZmkIkWQWdXByK9UaPORIJSagpG5NbZ2WnITqQXjUbR09uDGH9rPy4lR+mdTicN+WWzGXN9ltdrX2EoYa0oZU1c+kNpNUbS6yCjv1lh40iB8rBMUHcf09B84JmvC5nZkJfbrWoYqioRliEut1FoUmp+KjSf32vIK1waRjgUphosQUV5uanmKSV5itx4I4sUqfICfh/PqS6uylhMnR3teI1CZP269YbYliw+DieeeCLKGYbi82YS3Zuq3GR68v547LHHsGLFClRVVeKkk5dQ8k6jguulWdpmSCqVEiFlEadS27VrJ3bu3ImmxhY0tzSjva3d1MclE1RwDE9kp4QvEuhARGrDgjK53lV/DHRsLEAKQ6LETtODg77Eo33lBxGYi6rO5/eYBoWa6go0jJtA83cixo8fh7q6Wp73GPPW6/XRsgqhpqbWNEKsW7cWL7z0IjKpLAnuJJx22mmGIN8svGnKTebno48+ildffRW1tbU49dRT+RLrsWvnNrR3tiGVyJCoUtzvxOZNG7B27Tps3LAB3T1RJOJxUyFqY/9h1S8eWUShAqguDPqA2TiMIAf6qfS8JLCammocM/cYTJ82DdPogqFSow6DgSCJrw7V1TUkufV47rnnjKV0xpln4OSTTrYUoII6jErusJKbCpIeePny5YbYZNeffsZpmDhhPHY17kB7eztJK4dooe7g5ZdfJqm9QbOzyxCdjYMHkZsy2kDkViS+sQbFVXFWHrLx5kF1c36/33QbWbhwIRYtPpaqbiLCwRBJjARIkqutqcGqlWuwbNkyY+JecOEFmD1rtinzhwuHjdxk6rTTPr/n7nuwadMmY5frxbS2t6KlqRHxeBSRSA9eeXUVXnpxGbZs2bK7862NQwNltCOJ3ATlBztPjB0or8j0nD5jOk45+WTMmzcXAZJZMBBAfUMDwuESPP3U03jjjTewePFiXHjhhaZu7nDkscNCbipAK1euxF133WXk6dvf/nZTf7Jz53bEojH0ktSWv7IcTz7xOHbuaDaNADZs2DiyoG5a06dPx2mnn4aFC46luvMhxGPTpkw3nezvf+B+02hx5buvxLiGcUaFH0oz9ZCRW1ERaKuHevaZZ7FkyRKccspJRpXxvqYhYNXKVXjssUewYcNGxGJ2XYoNG0c6RHKzZs+iSrsA06ZOpZILmfq4Gpqq9993P3bs2IGLL7kYSxYvMQruUBHcISM3mQ6xeMyotdWrVuGiiy7ChAkTsGHjBvT0dqNpVxMefvghvPLKq+js7C5cZcOGjaMBIq2KigqcdfbpOPOMc1BeUY6KygrTCPHq8lfx/PPPG4W39JylpqHiUOCQkJvUmsZ93nTzjVRobXjnO99pOsdu27aVhJfAa6+twN/uvNswuPqb2bBh4+iEWrfnHzsfF7/9YmOyhsNhM7pB/Vrvu/c+U+9+6aWXHhKCOyTkJmL7/Y2/R09PJ9797ivM78bGXdz24NFHH6diewydHQdframx2U03tgaBDA29fHUdjplfNo4WqKj2La4yvA5fJwgLo5UN8q92aLmDKTmk4saPH4+LL74Yxx9/vGk9lYJTJ/s777wT8+bNw7ve9S7Tz+5g4qCTmyL8f//3W0S4fe97rkR7e5th6Y6OTpqof8OzzzyHePzAunUokwSdwASPG+OdbtR4PQi6vBjPd1PGLBWgcnQXhqC4DqUwVNgDvL2RZuQ8A0jlM+jKpPBCKotH0wn0Fs7ZODJRwpQ/g2plhjeIunzc5A9ZLS663VllgIbC/tlIvwfIWqOCeoL2zYuDhWkdd0A13j0OJ3rzDrTSoopm0ujOZ7Elm0WU5w60KGlii6XnLsX5551v6uWmTJliBvL/9fa/YsGCBUbBieAOVh3cQSU39T/605/+hK1bt+J9V73XNBo0NTWaAfC38wGWL38ZycToO98WH7Xa6cJcfwALQqWY7nQg4MzBl0vDTemTUW/7bMZKzIP2RPsB3VvcPaI4FL+TVuZaQZL7RSJpq7gjFEG6q0rCmMn09ygTSIgoQxa75Q0iTJRVcsaj64AJRGEVbzc6mJJj9hSGrAkTLxJNKp9DNz++a1jW1mSyaNdxuv2BVNvSpUtNlxCRncalZtIZo+BOP+N0nLv03INGbq6vfOUr/1zYPyBo6NP999+PlatW0hR9NyKRXjQ1Npom4NtuvRXLXl6OdGr0r91DN8PnxWUlNbisogYn+V2Y5ErBzzfvI+s7uc246UutLozDwXktBwBFYBBFty/kMWe86mNey2foZUbaeAAzdRzq5nUbg+PsQAhLmJKeLInNkTZjP5kYVl5QkgzRtStvTrq4lccDcxZR7o+zoD1FWU587OORoNuJyao/o5U0QRU/qlenG22J1jhvzfCTSCYwfdp0M1a8rrYO48aNw0MPPmT6zMmEPRg4KOSmBoRXXnkFDz30EN5xyTvgcbuwY/sOtHe24y+3/QUvL3vFsPNoMd/rwzW143FR0I2pfMshCmenI2teulgtR/WWU49nKjoDktuYQPGzNywscitmJmWrPJ/lRWaAEV3eByI0Vd6qYtbM6EAlqymi9NGxcXiwlAW/nh9cGaAatA5XgTCKiTkkucmvc9TpPhAOVP0JVmz2UJ5FvapHdKCKpD3D48YMlwcZRrhdM+0YXyODLDyND0+mkpgyeYoZTicT1cP399TTT5n6OKm6A8UQr3tkUJeP5uYm3HPPPTj55JNRXVuNbdu3mXmf7rzjb3jppZcNW48G9U43rq2oxcerGzDXkUOASS5S28fe1Jsvvv0jHMVH0Yyoo30kVdgqY3j8XrhJbt6Aj7+9JDuvGSZj4/DAywJvlagjP2MWn6C/0+O5uRPgx3Qi1dwlJSW4MhTGeAoNnR8pNF3ZY48+hocfftiMM9ecjccddxzq6+rx17/+1YxOEor9ZfcHB0xuWUrwO+78C6qqyhi5xdjESGqKoocfeZjE9pKZ+nuk8PP1XBQux+caJuKsgAcl+SRlcbLw0oqvTlHu60bzSo8MjOaJpNK8Xj+CpTXwl46jDVHKUlYFd7gWbl/AqDkNd7FxaKE009RCR3J+HEx96bjsLtGMtkWX5aO6XSlM9zpxaSiEs31+jGYOECk2kZsmz9A0ZZo26W1ve5vZlxV4oMPsDojcxKrPvfAsduzchvMveBs2b9mMXhLbitdW4IknnkA0MvKq8TC/BB+oqce7SsOozUcZsSTzidY2kBguOmWe/q5gkh4lcDlco0oUzajqC4ZRMW4maiYthsM3DhmnH97SWriClXCR3Gz1dnigabeP1urOon7SdreW0g6LqSudQw33T+dH9rJQGcaP4iVItd19992mEbKrqwudXZ0499xz8dKyl8wY9AMZg3oA5JY3A+EfpUI747QzkM9m0dHejuYmy0TtaO8q+BselcwUH2kYhxM8ajJPMuQcnIa0zfewnzu6YeprCvvDwQxd0SuhCRqsGIe6+rkoL5mCXNYDh78Meaq4TJ77mm31aC11YwTm7RoTanfRf0tBZVaNKBNpnl5aUo5j+NEdaWlV/du999xrqrJ27NxhlhBQh1/xSNE83R/sF1tIsWkW20cfeQjhcCkWLFyMbdu2046OU2Y+yP0dBZ/DQ5WSn60fhwV8Oe58mqQmrWb1DCpkmbcUSvJZhAr7I4GH78/L8uTOpLFpyxtoblmPBSedjtopM0w6uUVs+meT2yFFOV0wq8aho/8DPBD03I6cGsQyfBd5nFdSinlSsoXzQ0Hm56pVq/D0008jEUtg29ZtOPuss01XsmUvL9vverf9TglJxpUrV+Gcc87B1i1bTOfdFStWYtmy5SO2lWe6vXh/dQOm0L+T5OZwUGU41R6jrh17zM3d38MRPKO85PhUcvv3St5chPnlKxkFEYm0kokE2lp20kToQok3hZZd69G5awPcqR6+yYxZY+JA6y9sDI0K5lcfya24SOSbAaXwwHfXUbWaF93+Y7ic6WLwTkcGIRLS2TRRF/C9jKTiSA0MqsqSipOCU1cRjWZQo4N+7w/BjZrcLNWWxVNPP4Nx4xtQU12L1rY2dGlm3cceZUQiBZ9Do5Ky9d11EzCFhdksryfoAQZ7CB0e8vmYsVx07hyy3Mqpx49I7gA4/LDDz1dRPUJyK6ZFPpdGonsHUj2b4cz2oH3bavSQ3PLJHr6D/AFJexsjQ6nbbZGbOl4eZuiOIraBqMuVd8JDD8wpxg1ViHSmGFaOlGSN87Hqtl2mx6mXWy9/Wc6IkD7IsphlvLyWlzjcGZTw6tNDJZgzwpZULdn5yCOPmIYGkdzCRQtNg5lm9T1s5LZt2zZs2bwZp55ymlk/VFN+q8vHhvWbCr6GRsjhxHvGTcV0vWwHVYV5pQV+H+AhzItx0KqX45vP0su+vnjElSJRpuHPphBIp+DKJeHL6ctRbHwY+3BnHajxjGwQsdJCX7w8Tdl0ohvpmBamjtBMTcKTjhqTNJ5M2dNyHwaUeD38kDI/H8bZ74tKLRvwoezERUiVqNPUHqgo5UhACW8AwWOOQdUpJyG8eDHSpeWGvPYBL7CIzcuSmZPmN876l+Gj6V/K7Mnl8mmTB3dDBVWMoi1dngRXxhidFPRjos4PA2Oerl6FtWvXmjWJteDTSSefhBdeeMGMTx8twe0Xuck2bhjXgJLSUrS3daCzswPPk11H0p9Nr/SyqglYwi+Kk4XSep1Dw+EPYsFXv4DLH7oVJ//kO0iMqyXB7XlQs+cL4swf/hwL/vP7aA+Pw9RPfxGLfvNrnPiLH6HNpy/PkQEprUU0zzWUZyRQemhVfbOcocx785XUyvopdHd1mUxh49BCn6JFeT/cfP+H8xOqyhwyDE65+ip88t7bsfCa91rHCAlIxWbOB96NTzx6L/6OVtUn7rkbn3noXvz9i4/jnO98E57aqt2lT5pO40d7/D4kq0sQq66mq9nLJarr6BoQN64ebQE/orxdttCi6bCY0SqQdPrtYhmvdQZwWjBIohse3V3dpiOvupM1NjZi9uzZpupF05WPFqMeoSDpeO+99+Lc884hs3YXIvM0Xnj+RTLvHsIZCCL0U0oqcXHIC18+Yn5bR/uhj1mmEGe+43Ic/9Wv4JEbb8Tciy6Dj8S6ZdNWTLvoArRv3ARHKo85138Ucz92DVK0QzfdciuqJkzBuJNPQz2/WM/d8GuEpXBMGgxwv4ONodV/HxRzwx4odiUuL15LxdFpHRoWIjj1J5SKK67lqjrQ/RkVYmP0mODy4HQ3P0iZlEk/k6LaKX5Ri3nB4oABMfIRCpadUzLrGBz3yU+iZfsWTF2wEBPPPRebX3oVTc8+a0LyhUK48lf/i1M/+yl057J47dbb8frf7sHOV16Hn8ptzjsuwoIrLsWal19EYlcz0hplUN+AE991JY677HLMOOcszD7zjL3dWUV3unG18+di45o3WP74qHxo1ZtLvNJYMs8qcjNPRdIP+Uj+mQy2cX/vHL8v9EGeOHGimdxSyw+G+Cxax1jTlKvf5kgxxOveF5KNLy9/2Yz/qq9rQFdnl6nPefnl5dCix8OhgRngbeXV8NNs2tMtcHiEJ09EqieG9b+7FTufexnj5y5GxeSpOPH6D8FdUoKyqdOw8CNXoZdMr5eZ5UtcccffsJmEW6zgHdmdDgJ0owO8mVqNT/X690ttiujMkKvD9sBvbSi/LfKVwp8rdjY/2FC5UnrSymGa5vLS5S7Mf+fFOPMLn8DMC89nubTurDNFhMvL0LB4Dh796c/wm4veiR1PPIFgIoPo2vW46VOfwZ8/8imG4kHZrLlIOlxm8fLyymrMY3infvAqnHb1e3Hq1Vfv5U656iq69xXcVbjwYx9HeMokmr0uZNxWSVMdt7pxaUCRYBr3PHn4aNXNC4UxcQT1ySI3DQDQh7q5udnMB6dj69evNxw0UoyK3FRw1EFXN+vq6jRjw95Y+4ZZS3Q46EYn8uXVOkVqesCRZQX5alv5GrxhH87/3r9g8mknweP3oOOpp3DPuZfC1daOE776WbzxzIvY+fxKk/BJsoI3nuaXQpLZwazBZDdMMbJ7HhD07g+AWKxL8zje48LUETYs2HjzMNlFonFk4NIC3/x9sLVyMTuR0zDzXZfho08/hvpTTjZrh6qTY54mX9ZpkZMmfjVln8TStn0nfvG2y7H65tvw8d/+Alfd+Dss/fdv45Jf/AKffeghuKmKfnzJZdh809/go/mqcuNxO+AJ9R3NYu48iKPR63HCSSU1cfZMuAJeYxmpMUFO5S2vrZyOU9oFGLfFvqAx44eCeEa8oj5vqnLRWFSNPdU6K6PBqMhNy+1paMTs2bPQ1tpGsyeNZS8tQ3wEax/M9NPuDoT4IpO8qfq/6BFHVnh3PPwoHvrkZ9H1xk50NPG+vV1wZbqRdvagctpMSvLzMOfCpZhxwfk0Q4/F4vdfbcZYKvS8CIL62KpAPTLIQrEsZbwvpnqzxxaMXahe9LygD1VpzXFlEdHBRtmk6Zhz9VVIlJejbvESVB+7ACUzZlgKTqNZ6FwOq6YvJ8WukezcqM9ZalcLKsc1IFxXg/u+9R/4+YWX40/XfxqRrbswjiZlT+NOuHNqeGPMixNSmAY+lRVRg3LiwM5hRtJYUzT5A0H4hhrix0tEck6kMdPp40d7eNpRY8LK11eaevzmpmbMmz/PjGIYTR3yqMhtzZo1ZnoSP4lKdTqNTY1mTYThoJssLa1ERVrDqopZoPiihkeG/xpOXIBARRDjp0/DpkeewfhFp+CkX/8GLbEIHnrf+/DItR9E+7PPo3frBmy570GT03Iy+nNjYBqkUaL4ZuZ63Hibx9uvwd3GWIDy9Km+AGakivn50GDBJ67HJT/9Maa+7UKrTpsSze3UKGxreiT9c1IamTo7klTe1Orro07H7faHnsCPTjsfPWtX49TPvx9lx9TjV1e8C4999RsIZVQ2pDXFhlbYsn0NySm8IVD05aTd2dG0E5GOYWqIeYusLCpnFsfxvQ330ZZaW7FiheEZ9XMT77hdbiOwRooRk5ts3dVrVmMGvxptra2GUTdu3oTenuGZdIrHh5leD78wab6z0WcGjZ/M9HSj1OXAC//v63jjl79EvjeJ1PpNyHa0YfuyV9Gy/DWsu/0veOOGPyDV2EFuy6Htpeex7oabUZY9MvuN+5iBLvJ5cT6f3ya4sQPlpbM9fix1euGmJDHWwSFC3qmaNKa+10caYq7OJJHOUCmS6BxSXDSHc0l1B8qbczlXnx4LJBMnycTR3Y3xcxfi2IveibnnXmBaH72JaKERQKBWo9JLd/eiY/V6RDva0dXTiW5aSN2RAVwvz/H8xo3rEWtsRu8WKkCSV4Hv9oXuo2LPm+WoDCe6fZhdUJtDQfVt6momrtG8bw0NDaabyEjr3UY8E69m0/3Rj3+Eq6++Gm1trebGN9KOf+bp5ws+BoYE7pV1k3GuPwtvPsEDzAjJQYqqakzl+g+W1WEdUoLm00g68whkVdeQQ5rBGd98XgllqXI3P1sZHvfxmOrcHFkl+GHqgKREHvGt9NUcupZGiZPmczyYzeG+ZMw019t486Aiea4/hKWgojb9vHhAH+x8v3QU3xWzufKEoMIwABSE1YXDrWzcB1kE5szBrMuuwEv/91uEqyox64LzsOovd6KMBNFw+cVYdcvtKE3mMPPaq7Hstj8huWUjPGmvuRe/iSZU00fN7cUpn/s8nrnlVsq5HebDWbyX7p/hj6jbgZDmVauo4RE+qdTcYOCpjtZmRBsbUUYF6M9bLcW6tVUg+8G8Jzq+C3fGjR2pPH6f7N79agaCOvBqbQWtnKfWU3UPUZ+3v//7vx/RegsjJje1Xtxz7z34+Mc+jldeewWNZNSf/Pgnw44jDfOB/mnSMajPdzG2KvV846rx7wcpLae0tDDIl9DkoaIX7fMlFn8LGrzv0DwsBN8fXHwyw5Vkeo1WOCw4yORmQdnThY3JNO7m1/kNPtNhomobBai8TnK6cb5MUe77SWzqa1k0z4qb3VA2PGByY6kweV4FWcMTtS8zlHely2ifgbuz/O3y04e0HVVd3qqyN/7NntF8vNZLy5MCwVxnRVGQH5UT3Vt91nIsWCZ/FT0MABNnPo+H/p1UVh4FQMj0zA2kXYoPxhurJTWZ9eF3PR1o2+fF7Q11//jEJz6B6upqM6D+pptuwic/+Ukzc+9w0DOOCC2tLeYG6vqRSaXR1NxiOu8OhxkhP0pysQIJ6amHuKVSQ24QGPWm03Sm9VPe9xziS1MusghDfWoclOyunNZVOEzEdsjgNO1Zs3wefCYYxCc8bhzLo3qbem4bhwZ6t6KJY11uXO0L42M+L2Znk/DRGZNQBVplc+jyeQAgcZA8XPySy+BR9nfxnoqXhiwqbm4dpcJR3Zlq4UwFhikMfaMlm8ZjrnXzukLR2Q3jnX90D19ek8Nq6BQd1ahciC4wgAuxjHlTKVpKe+5kzeYzABT5QtFX2fU4UpiuFt9hoGFYmhZJayBr6i7NNK2+tiPBiDvxan0EzW2uPm4yUV9f8ZoZKD+c/XteeQWmm3GefIHG3OTeAFpUX0BVjh4Iimso9HWHHUrnEXOpPI7E856nUcZUf8ElJLhTaEZM0ZeTmbucX+Ry5tASntesIvrWq9K2r1Nh0PKHR5PTM6mIaDuck3+9h/5hqNUzTCdjrJKulm4yiewMTxDv8ORwAt/vOMoNjR3Vey3mqyFTTp6UWEKx7BcK90AoUNZuryPHnrxR3N83XkU/RX/7ov/Z/lf0j1ff80U/BvyhriDDQfV92bwba7OpYd+jpj+qrak1q9Y3NTWZxoY5NNeHw7BmqeSvOtP94Ac/MKvW6PeuXbtw88034/HHHx+S3JTp/n7qZMyNR5ATS/sKqTtAzxFjlg6V+iMBvyJvOg6JWToyKCUy/PKmmCF66XabTAWYQfbcmqoU86EZGHmq3eGgagEN8TGNbPwtNxiUZ/pCKn7IDD1KKPRCP9bdsNoR94U1kcIeyI90j9RHWIEULIeBru0PvaVBn1sBFIXJfpulo4fCOng5yoLiNIAeGRBK24y+GMOBZSSRcuN38S4MZf+p3u29730vzjvvPMyYOQNrVq9Be3u7MVWHw4jq3DSv0n//93/jug9eZ1auaW1pxf/+9H+xauWqgo+BMc7jwVcmjEco2Wv6nZkUV6Lb5FbAwSW3vtgnUVl4XRlLQetdD4l+ZDQQjPlBpxRT1fRQY4TVg6Ev9NMcUmQK2H1sP6Dr+t7dClt5bW82MQRIN9i9itEZaYrY5LYvRkNuzqwbf45FsGGYj+nbLngb3vfe95nx7KoWe/aZZ/H1r3+9cHZwDMsmeSqB1tYWmpR5BAN+8kcSsVgUncP1ayHKybrebJq2PL+NzFkOPcPBfvM2BkShHO9xLOyaVSVLp0rpPJXboE7neU1/p0wup31Nb8O8iTRdhtdkne59HbOXKgqkIK1/upbhy7kYAPNH1kV/3Gp9zL732scpXm43nWtPz/eCy9E8z7t5L+MYltawVZi8RV+nF6Hsp4JafJb+Tveyceghs1TSv34ErZ6NzY3GQkzEE6gor0AsETMtp8NBST4M8qbhIBgI8QvMwpFJo6en2wyLGA6lwQBzjLpvMGMyV6mP4Ig/ATYOPlSFUHRqfBnMDaLcikS5D+Sdl+3j8vxjEr0Iy6MGxDl5H33slLXV+mfipO1gbi/o9x5nJjrdc1O6waH7SUDtHYLlFFOFYOPQQ/kox7xRowlqrUODItIdMXyTomWmOn8lVGtba+Hs4BiW3KTu4/EYAqGgGd6hXtJqvRjJephlNEUHUeI2bNiwgTIqt+FISMTWG+k15KYV61UPl8v2/WgOjGHJTR/Nnbt2oawkzMDThtQkCYebu01sPN5hRbzQ9cyGDRs2dsP0tyNHDEcPatCM9EYM98g8VZcQDaofDiMwSxV40qwAnUjGDdlFotZI/aEgxVZOc1StakOjaBTYsGHjzcThLInF+6h72HDkJq6RclOrezwRN/O7jWTq/BEot7yRgwEGqHnSFK1IpMcw6FBQhL2OjLnB7pEHA0KPOTRR2rAx1jEilTDGMbyhd/BgOuSz7KuT8nCEqpX2Ir0kN/5LpeIIh4NmItb+XYz6Y9g0EWtGYxEEfGopTRtS0/zmw5GbIPUmWjvQzrk2bIx1HA3kdrhh2s/Vel/4PRhkjqqXhqbRV72/zFL1dRsOIyK3WCQGf8CPdDqFXD5rbGAbNmzYOBzQJJyG3NRBPW3VuXV1dxnSGwrDkptaR7MktECAUjCTI8HlSG72UnE2bNg4XCis8qZ+mpkUfCQ3tZaq1XQojEBNUzZSN/r9XsOcEpHDNSbYsGHDxsgwfPWW+EeCSv3i0ukMuUhLGGp2E3PW+BkIw5KbKu20YrnH40U2lzVTpkRoptqwYcPGAaH/gOAhkDBDKx2mWsznExdJYMkNTo5DkpshNso/p9OasYPcRrbMITOMrWvDhg0bw2Ok5GYJLLNHcaUW1kxGfW6HbooYVrn19qrbB3c09o+smWOAWhjGhg0bNg4HZJZmMklxnBFbHrcb6WQa8cTQFuSw5KYFGjSkWZPjaWypuoDI9rVhw4aNw4VUiiYoVZvq/V2aGEH1b6mhRdaQ5KbhEWoh1fqIRkKqQYFmqaShDRs29sAuEaPDaN9XJm1Nq6XeGy6XpkLX/tAia1jlpmgoMBGdkYep7LD9S2zYeKvBLhGHFrmceIcEJ+XmtAbOm6UOh8AIyM1hiM0oN0IEZ/22YcOGjcMH8hqhhXKKk1YNjRGQmyAyY2DGt13fZsOGjcMN9Wyz9LGlrYYXWCMiNyus4TvN2bBhw8ahgKrXLOVWJLfhMULl1tfbCEO2YcOGjYMEqzrMklZDTjLUByMjN/oSc+Yy1lIgtnazYcPGmwKxnDACghuW3NweN8Y3NJiwyspKURIqpTy0691s2LBx+KBRCaWlZfD7Q3A7XaivqxvWPB2W3ELBIM4++xx4SHITJ07CzJkzC2dsjDXok2Nke2FfclvrTzmR4scpjZwamTw5ZN3S33v87obJLBpqJ2f9NIcKmcisds6AzepV/L3XtTZsHEL4/D7MmTObHDSRBOfDGaefCbdZOauQOQfAsORmqUB5U5cQ7TsMi9oYeygSjpsJFeaXbdzZp2HBNVfjxI9/HAs/8AHUX3ABvONmwpnXuut7Zwtdl/MFED7+ZPhPPYVO25PhkzvheIRmHQN3SSW/ml56dh+9cycrwxdNHxtjBsUJbzWewOESBxXTaHAuGnZR5m3btiGZTCIYDCCbTaOpqRXvf/81aG0deiZMrUf7DzRnZw7btCGNkeVfF6N5gKT5ll+U2YmyceMx/wufwOR3XA5XVSXyVNxOvltVwmazKWQ72rHhb3fg9R/+CPEtO+DQxAjKAXz1wXmLceUj9yMb9MLFdDNKkBeash6NItXcis2PPIQ1P/01kuvWIqsLdU6jWHbruL5zbA33IvjldWtYnzXD6pDQ3F3mo2puaA71hZWLBN1/Tz7q71tnlCP73k3H9NtbXQN3MIRsLIJUW5s5NxQUbvGp94FucoQtyqxoFt9PX+x5t8ND+WwkizI7mDXyWSfaPH78trNl2PAXLVqEX/zip2bSXD1jV0cHJk2aiPLyav7qH2MLe3LBANCsIBp9393Txf0cYrE4iU5TjA+apDYOM5QSIh8J9LJ5x2IpiWvqhz8BZ904mp8BpruHGY7fPXpyuUlzNVWYc/2HceHtt8G/aL5ZHFlhyFB1uhgKCcRaWdTK0GaBZrcLmYoS+GdOwZxPfgRvv+dWBI9dZJGeYHKR/sipKBTJbsjsRdCP8VoMaIQQZ/bjTWXvQbhjN+SnGLv+CNbU4H33PoRrX3oOZ//zP5nxiyb6A5ebfTDcvW0cGDRRpca5x2MJM0OIFqkarup/yNwn81PL+N19z90kuSw2btqE1WtWD59nbRxWiBoC5eU493/+A4Fp45FiuplW7WgXdj7xGF6/9U/Y8fhjyHf2wsUPkxbsKZs+l/5/AtTWWjSkNC3sWE3tLqR2taHnlTXIbmmEJ55muHmzMrxn8mTM//bX6I8Xya+2VGDGaSV5hSVVV1hVHk7ruMLd3douwqV54RDhOqna6bQS0qAQOfO8iwTs9HgKfvdQiomGtbsbmuzBw/sH6TdEsvIynm7eXPcv+tV+mj8mn30GymdOgzdcCifNczevcyre+mqMAP3vbePgQuu2rHljLbZs3WoGzN9/3/3IZIfWqEPkJgsyGRxkTdUka6CqxpUOvxiXjcMFB40QajNMec8VKFm4EB6HG34mV2zTRtz7rivxxLvejZUf/gievuIKPHLxexFdu8VcpTXaqxYch/GXXWYIS84oKJV2pTCJYMsff4eHzl2Ku44/CU++70NAYztcNCVU/zHttNPgCYfkGTkvyeG692Hy176KSZ//O2Sqy1E6aRLmfv5zOOv3N+Ccm/6Ied/5D5SdcTayPjfcAS8mnns2lvzwuzjnD3/Aqb/9P0z9+y/AX19HfqRNI7Ik8uSuLMnPX1GPGVdfgxO+/z0s/d1vceYNv8bMb/8rypacQIL0w5Fh3Hd/xR0IByow5aRzseDr/4hTfvlznPfnP+OsP/4Bi/7ru2i4+O1w+wOmcUSz3PipbKsnTcexH70e8FtraIaPXYCp//AVzPzK1zD7059FsrxEwdp4E6HJOiSw1JHXWJRZs6MzlocBMGSdmwJ5feUK3HnHX/GB667DytdXYsu2rfjxj3+E1ma7zm1AyJY7rHVuaXg9AVx0x20oPf0sOJkJspk07n3/h9F5351MeoZfSAMH3/H4sy/EObfehJymjaEyaXnyaTzyzsv47hIIzV+MKx57ACm/jyTjxGv//i2s/PZ/8LvGh3KGcPrPfo7J115O0iG9pdO4deY8JJoakSMpvOueu1By/MkkyQxe/bf/wrHXXg3vtOkWaRJSUelYDM/80zcwacI4TPvEx5AP+I2io2YzJkbnyjV46D3vR3T9Kl7BjEzF1bD4RJz5kx8gsGgeci4PsgXiYxSQi0aw/Dc3YPW//jsQYX6kWvSFS/D23/8eFWefSdL1GpKWwlMLr2Kij/PWBx/Dsx/7CFIdXZh60QU47cffhX/CROZB9+5uTvJr/Pd2479POgWh7Vv7EKgFpVyx8Ejg7ZWSutiucxsUo61zUy+Nz3zmM6itq8XkyRPx+xv/gM9/lr9r63h24Bc7LJvsedDiXv9Ht/Fmw1NdgeCM6dyj6cfc3bp5E1qefRxuVdL3ragnSTU9/wjSmzeYn7Ica+fOQaQsyFTdU6wsGuBJ/lf1apbE5A5QEdaV0hf/6SbJNGLJGHMyryMhaDCzTEzQHff1v4enEJ/iTNJZXuMIBHDmt7+D6X/3adrRId7fSzJWnZ+DROZC+bHzMePzn0bO40Oe4QQmTMXZ//cLhJcspILzGhL0xRPwpjNwatLCQBgnf/qTmPLJjyPjpOpiqU5HomjdsgV5r7K2nj8NZzpO/wm+mzSyJNOJFy3FjC98Elm/C1NOPQkBFpBclnEoVuLIUnHSgKa1InLMGTt92KJi45CD6VLIT8NqJmLIFJNyU3KbtGW4/G/92VMObIwBuGqr4CkvLSSUEz2r18EZiSPNAg+XPqO0GyUj8tTG8SS6Vq/hb6vuzVtaDm95lflt8ovyD3fUSlpSOx71x52AmRdeiBN/8O+oPet0XqOvpAebn3kBqViC4fM6VV2IoIxzIev1o3vdatz3qU/g6Q99GplN23SU6o3Oz3hQdq268Y+4973vxorv/idyiSSv4zmGM+nk4+DwBujHhUUf/wgCc2aQuFxwpZN4/Mv/gD9PmY0HF5yM7ice5a15V6cHJ378o8jV1iLF3CzV8trPfoW2B57Asn/4V9x62oW4ddps3H3BJUjv2gkP87SMz5nnnwf4XFh+w29x1/WfQaa5zTS66AXsfPRJ/O3KD+KvV34At73vGng72wyB2xgrYEIfKLntDWVfhjiCQG0cXjh8NL+8PpqZLJp0iY5uHmVBVaW7mR5GcFC90OzKkmZ0XkqKRzMklEDIqjuz0lgbK5GnXn8dLnjsPpxyyx9pjr6fZl6ISsyFePNOPPPv/wZ3Mmn8WtfwP++Xd9C0iqfw+N99Ac2/uwFNN/8Wq370I6MaJYjUnLD+uRfx7Be/iuY778Zr//GfiL20zJjTGUa1pLIC2XAIQbcP4y5YyoBVWeHA9ldfxY4/0MxOxNHWuAUv/jtN0TSVGU3rcEMDwnOP5b0dSPG5EuvX465rrseqX/wGqdVvINOTQOq1FWh/9AkTB9GUv5yk7vOha9MmND/+GJVoxDyDYpjYuQ07Hrkf2x+8Cy2PPQxvb4/epo03EfvTt3b0V9gYW5B6STtp9lGPiDykzgp1EDmkqIesGhgVTkN+hoT4xxRyKnPuyw0IElXW6WfGosv7WPYdaF72PB665jpkXnqR91MdpxqYCrxAqI4t1tiEnldX8UcOadqKPatXyrY1cVDFcONDD8HT22Xq1PIkyN6NbzDeKVq49EGzMetKm6E2ZaYezMqi1dNn4dI7bsIl9/wNl959F07/9neRc7tMeAqnpmYcAlSUftrBodoGzH7v+3DKz/8HF9/7N1zy1FO44KmnUX/xO0wLqHHuAHIuvyFrB6hAaaOrNdaaK0xEnOBxmrGGCgd5PzbGNGxyO9KhchdJ0twUielHHp76aiRUUAtHBNW8yWxTlwtvXbUpzKp0UNeIZC9Vyz7II9XchOTylcjFrEW4ZXx2b92GNqogRzYti7RfTwnejeSQbu8C4lFjZorR8hm1sHDHKEJSRksbMx7j67CGhZmKvRxJRjxC4lEbgNNFNeqRSW2RYqCyCqWnnIjQGacifMZpCJ54AvJunmOQqj7x0YwVMU05YSEuvvsOnPHj/8bca96LyjNPMo0Rvrlz4Kiqoh+L3HQTmd45SV3TG8CKm6jNyXNqUBHt0SDm34I6tXFEYUTkZiWsCoOymY2xhTySzY1ItbVzT4ojh3oW5kBVOVxa+kyFV2WXBKD6JlcogLIl85ny1G08FSfRONo7SER9Gh5MMuex5o834Z4LL8fKH/+C7JgxjQMzL30n6t95MdJSP/SlvFHMFSIZEVRaZCZFaQ4W8g/P6Yc4JK+VjLQv/+aAWK0I0Z2DJqqOW9cIrdu2YcVd92HVnXcZt5JuxV3WdjVdz46tcHncOO77P4Jn7gzAQ/LKprDx0Yfx0j/9I5Z/4GPouutBhrS7p10x6MLWyt/6p/hmudX/kaLvE9g4xBhhugxJbkU7t29Y5gNnY8xAaZOKdqFt+UvkiIxRMsH6Osy66n2ml703S3VGrvGksyzvLsz72PVwVteYa53ks53PvgBXb5QBuRmWQrNIRaTjyKWRTvbgtZ/9Ar2r3zD1YlJTS7/5DfjUzYMEp0K9O3/wOvUfM0pMWatwwpAYPTp1Xr95zoyYMLei+mIc++YrXZZJpZDqoQIsoGvTFjzzkc/jpWs/jBc/8CG8dN2HsOyaD2H51R/EK9d+AB3PPIFgdQXK5szlO2CYvP32Z17EY+/7CN748Q+x9s5bEOsudF/SDXh/5W41qhjFyINmdTfu5dwe7jNO9DfS7G6T29jDkOQ2EEaa2DYOHxLZBN648fdwJMhiLJGq2D/uy/+A2V/+OtyzZ8FfWYLyGVMw/0ufx5wv/AMLv9URScpm9S1/ISkmd3fZsFLYIjerwGeQ7mjB8//yLbiTMkUdKKmfhFO++c9wef17iy5in/U1rGD2gqzCvVEg08IvZy6HSGcXmpev4uNYN5hx8omYdNl5yPncyDHeyGQQoFIrXzQbE887TTGF2+MxgZsokGA7mlvhZJydZLrShfNQc87JJqz+MJ1CkwyzEM/wpHEoCZYgHPSjjITpdlt1mDaOLIya3GyMNahuyIOdzzyDnbfdQhViqSNvMIwlX/0aLnvscVz80ku48MmnMffrXwdKS0gibtpdTqy9+Va0P/YQFZw6zFqhWSVcP6jjaNbql0amND7yCLbeehuJIGv6is287ArUv+e9cDlFlAez8FPXOTxIphNY/b+/NIPYTRdvnx8X/fC/cMEdf8Yp//crLL3tZlz05IO49IF7MekDVzPKLsR6e5CNdHJf9Y1OzL/kYpz4659hyW9vwEV/ug3ehonIkpzVYdwywmWippElASZbSIRSbmTGmpNP5Xt7DJc/+DiuWvYyzdx5tjI7AmGT2xEOVXmL3nLJOJ7/2tex6w9/MDMmK2lVwN0l5XDXj4OjrNIQgM7kcyls/sMtePWfqcYyCau3SEG1qMC71NggEqNZKlWju0jZvPZv30Z22zZjUsLpxam8PkBlaHVyLQRg/O8OrM9u8Xjf87tPEtoXhchcdJuGio5nHsf6b/wHpWkPMs40HH4vxp12GuZe+R5MveDtKJ27APlwGc3bEC/LI9rZic13/pXEnUOWCtblD2D+FZdj3pVXwlddh21Pvox8VI0YlqAs3j+fzGDtbbyOprvG3rodbpTMnIXgwvlwVVUjJUVo44iDTW5HCURkqd4IHvnyl/DEVe/HlnvvRWLbZqCzDY5khKrE6hIi7HjqBTzzj/8MR3szSzY1DEu6WiiRjiC6dQvivC65dTscnT08nyF1ytxNo2v7Ziz73n8jsWkLElu3whFPYs7115mWymRjM5JbNiO1dTPyu3aa+jpB9Vnqmxbfxmu2bEVsyxagWJdmeC6PZHsn4jyX4vXJ7dvgTsVpemYQz8bx8i//F4++8wq0/e2vyOzcBEd3OxyRDmS6mhFv3IyNf70Nr//fr8mLfD4+y/Pf+A7W/eTnSG/finysk4/Ugcim9Xjhu9/HI+//FJrufxipzZt5ns+XSZFOGcFcFq/+7g948bs/QHznNuR7O5HjdcmORux6+inkOnhPK8Y2jiAMO5/ba6+/hjv5Nbzu/R/E6ytfx3Zmvh/+4If2fG6DQfaOVa5HABHOHtI5GFDdk2qv1HPfFwwgUFUJ7+SJOOfH34N70kzkKdPy2SSe/85/YtOP/pe339MNpDgO002z00GTVIvgZvvNvCCT0evy0C8fNK/JFJh2mkzBSQ3J46rwymQySKeTBdWnrmtUYm6vqQvM6posTUH6EZQ9XG4f1SPvzX3dM80w84XzVh1aHg43n6e0HIG6GtrcPsRjUdOlBN29yIjYpDZF0vrn8sJbUY5gXS0yfI7Ezl1IRiKGS92Mi9PtNNdoOi8L6hbCjduFQGkpSqqrGIccor29JLguhpux1HC/kqIY9ju0B8r2RcFn2cCDWu8Kwx5bOjRmz56NT33qk6itr8PkiZNx402/x+c01vRAxpbaOLIgBae/ajmN9/aYcZZNTz6FZ776DaSjBSJjIT7xq59HzVVXsjBoaBahzJbKIZ9OI51I8juRJNHs+7HI5dNIZWJIpONIcJsiUaZ5r0Q6hWgiimg8ipQhNvlWMXEYsopRjel8nOZzqkhchApDKpdEPBFDPM7wdG2f82oYkLjMkYjina3oXLUaXctfQfKNdVRvVHAkysLNDFFqL8/7Jds60LXyDXSsXYtopJeFR1MI5BGnoowwLnGqNnU5URdkFV7zDeZ9e2na7ly3Di0bNyDa2sKw1CDBUK1b2DiCYJPbUQy1QGpGXZXNHQ88gtX//l04SS7OvAduTynO+853UPW28+DKaSSCGg/UOkqCM2Sh0j5Q9pAf+swpXNXh8auZV9cOdXa1toax9gKVF/8WQ9wdKg/sacgo+OCtDdH0g1pzNe9aisFrLQizHoSuVeWc9gvXKO55mtKyBeK0idPcUnfxjLSR7ANBF1oX9VVK5n2ZrZ6DClCcRg/DTBtmY4xid9aycXRCZV7TDYmQVv/qRrzx3R+i9c670Pa3e9Dx2OOYcfZpyAf9cOfUACF6srZDwgqUW2Yf40QJdHkxjbLU3tcrRB0tut1nFcTeXg0Mt/aDrpOV55H/vgEVfxfCMV0zuZ+j2SxnGVRF15fKhoGJGAmcfweIjo0jAMoKI4dJaTu5xzYGTlIV02wqgZf++7u478PX4f6PXocHP/IRvPj/vgVHRC2IBXYYqzhEWa7IjaI90Z+5DfO4+T3aV6KAyMCG4vsWE4snbRwQ9DKVKsWUGh6jIzcTMBNeGxtjEEp01ZPJjhrAllItrpClsZaiU8fVhOY5K7QajggjKamW8TdW0D82fX+ryOitFIuNMUyp2qyxr4X3NVIUyExWuTGbi1ApG2VJO9rhtF72KFD8WhRJbniM8pUXUs/GmIJJFUce28ltDyWyeDKZRdzMwtE3QxTSjhlK/eKM+WldOGRW6XNlAVbdXDHs4nkzzZugDFvIVUV/Cl+0W1RGxd8iATOG0/iyzsntwZ4j+qtr1CigX+afrAj91yHVAcoV/Coie2r6LOw5ty+KPkXyzfx6P5zOod0dpP+BryoeLZ4pbjeksliezyLt4v0ZoPHT16MNA5Mqe5LmkMD+nhwVcKI548Qv43Hcm8ngFRbybnfYNA4AmgjS0mXqJJLP027Kurjv4n5hEkv5MJ9SCzLHigTUd2shy3+iGB5lgS1OeKRrTF7lzwLnIK19bnWttkWnqn111U07Cuuf5pxYy4ufIyHE3AFk3A5kPIxTsbGAhl7WOMabjKHwNetuUjfjc2d4zpFVWG7qVjfSqvvLeenfxxv6eC+r4SNF/3oWwYq1BcVJ0K1EZjscTtzLg+vcekvWkxdpU++weG2Gt8nyh36n3by3043XSYpv8BLFpTmTwxPJHBL5ED0WWqVtHDYoXWwc6cjlsTWThnoelnk9WOQLI8DCvyHjwq0ks79RVm12+pHO+dCSy+IBRxarXD48wCK4hQU456TGIWOknF6sYHG+nUX3ry4XVhbUWDGTaBrutSTOFxxeqhMv7mRhXs5wdzhLGJYbD3gdVDukB0cOHU4PnmIYt3hceM1LImMoIsAtDobv8eDPdC85Q+hyeNDh8OFuPoPcPS4nusgjhkrov5XxecjtxMv0cx/v8TDJeKcjjCd47784XVjl9iLH50rx/FbG7V7e516S5i7GUQq1zcn4MqC19P8wzc1GHo2TfF5k2HdTuj5LuorSFQlczyo1KfKSiap3sosfiUf5+37Gfb0ngARPJvnOVtJqfYhh30UyfJRx38jnnuTzoMFDss+m8BQV9CPpLB7k06/ne9CSiTYOH2xyO+LBwplPYl06aVRQmoUplYxiVTaKnyYjWB5N4OloBD+PdKLZmUV7Lo4HYhH8qqcVDyQi6DEjCahQWEhjVFDPpeLYkUxhOVXg7+MptLA8KpPIqYvEikwWv08mcUc6wcIbx68TXfhppgPPp2O4ncef4vkoff+OhfvRdB6NqRxuYyF/USqHZPlSLsNjCWyhuynZhY3ZPHbymIiZXtHGMNNmXQbemKqsm3F6hM92czqClbzmrnQKP+K9nqGfF5Jp3JhJkEi92EAC+k0uiRXpDF7lM/xPugfbSeJtdH9Jp/GrZAIP0X8rn/NhEvxdfMZdKZJpKoPHsjQj+YAiVNGPjHYLebTR7x/5Tp+lW5ni/WJdWON14VlecxvjsoORfpFhv6BRGCTm1fSzmmqtmWy5gx8MEWUX32Wcccjt7tVrY//AFOJHpLg7HGxyO+KRRZjqZKk/ZIrOGb4gTgqW4DkWeo0MuL6sDu8Jl5PEcnjdkUDGpb5fwDQSwqf9YUyl+tFge1OsaQqeGgjifLcL8xmm/PVS+Zk6I4Fe0lQ/UjkXhP04l2pEhDqHiuXjbg/Gc7+RKnE7SXAj9xtcbiykgpJBtlYL1VBlLeC5c3nPxQzHz+PqizaTai/I/Qk07a70+FCtbib0rlmF1fdMt19Cc/Uaqk2t9qAjV7mDOIV7UUYuyZi+ko+TVIGLPWW4mM8W4/52kiK5yTzHHKq+T1JV1VFNrubBMK89wRXCZBaBFRrFwHvuWxhUj5lGC/cWeX04me+WXrGObi1Vnya0vCQwDnWkwwb6me7Sk1ovq5bKdAqVXjn9XBEqxTzeV1a2jf2HlPVoYJPb0QBygcsULC0Fw8JFltN0kB6SVC0LXiULuBK6l0Sh+dZEKmeQjKZRHYUyGV7uRNLlwGvJXvw0HsOd2RxaTb83ixjUeqhCXUQ5/U+gqqpiGCqw4wN+1Dl9hqBEhDHmQnlvoopbRfqrZEhTGN5KKrkbqLD+yJM7SHqyesWrDN4Qs5c/fKon7HOvYgadnveZZ9H9AiSKMpqFVbxOcSRlk4CssRY1PDKBhKm4NDmdSJHMFcYMjxeTGbSXN9PI1m76fz7bgyhPTiKxmY67PC6oEBWd/InAV1MNrqXSnUR/dZSg801n5Rz+Gt9J0zmLCYEQY7encUb3FEfr2RyMj9P0CLYera+zMXKM9n0V846NIxYsUlRXKtjldBkWehdJRQvrJWk2raR5uCqTNqQw2Zh6lhIKUj1pnKXDXOlDJuuhiWgNRTqutArlJBBlDhpsPGZN7CgYcuFVQdX2k/FECG6qQgdNS3VCUdNFKT0rLnUuD870hHCaJ0hV5qGJmUYnjy/2ho1ikgIUyD8m3O58FmsZr16xAqGYUUyaOPm0HkQ+odUOzFoHaimN05vOaR2ESrKIlNta/n2F4SiECaYu0SKtMEnJy7sEGM8GHihjHI8P+nBOKIQlJL5Q4VkEEyadl+9DBKp4TKYKPcMbwimeAGbyPZaSzPVO6qjQzgmUYK6fSjTtgeaO03FNBKop3BN8N2v43Nt4fCtN2+eTTsaQ71sVijYOKYp51sYRCxZ0FlwNXldxET1pBpDTqNomsXDdFGnFA+koFrMQzqHa8mVZMOWPSsKaCNIURRa3LE3RPEr46+7uVlMgA9x3ab1QsSED10bXhg0txeBypKnK6CedIfFkzLlyRxb1ZKtTuN+aTeB3qR78kfdfz2uqSXYTePy5ZDeeJE2Ja3V7tVBOJvG0kbD+lIyikc9gFA9vqIkrpcKM+uHxWu5X8Zif1yiuGjZdQuJ4G03WYx1u3J9K4GkqwHEOD2ZSHYZIUGX04+ajqu0zwJueRlJX4/Ad0QRu7e2lgkuZuOj55EK8XmE78mma7W6alFS1VLi/TUXw11QUPV7GL22WlcHLVHT3xntxU2cEW3O9CPEuAYaVY+THOQPmTf01GsMyvsDnGPiDmSQ6eVxD4PT4b1XoPR9qjHhWkA9oVpDXX8WO7dvx/e//CO3tHQUfA0Nmhj0ryHCQwSN3gGAK5vJu9GbTCFMR5LwOhpoj4fhYkEhSuRQLHd8uSchBGutlYS2jiegyCkmkmENKpZ/k0iP7k/9DJIokLa8Qn8fSc4bfEOc9FIaPhq+DfiJUcF6SWYDk2kPT0+3KmsIddXqRTlPH8bcWZA7SaZ643kweHuYJFm/embTmIrHyXCoXQC/DZNQY1yy31rqqmsWkm2QTUP5wZxAlKWgoWZkG8JPkIgynnPHQELAktzEeV3w9JHwPGcxLGuxm3LyqU+NvzbuR4n1JreZ5UzxebhRs1qgtPWmCx2O8MsT7efk+4nwPMZqiKb7VIFVjlPe9JZVGiCrzbH8Q3ck4TfkMLgq6sIQfkBSfKcA45/huehibvDfP9yjTPsf48eMicuT9pFb1TlUALeP5rTMrCLMlP8gjnxVk1qyZ+MSnP46G2jpMnjwJN/7xZnzu7w5gVpBiJ8n+DzssX9k4vGB6OJ0ZlHkcUNWbh4nm58GwI4XxLFDVLPgBJho5j+dSqMomaZJqyBUJyhQFkgBzl5cFsJpZoprEEOCx8qza96xiV8z0QZqrQZKZS2YrD5a6s/BnNNjegRJ6kDJSn48QTbBy3quSxFJDMggxL/l4j2rGQyarl+EGyGRB/lZ+8tJYq2JcyqkAtZCN1e2O6pJmZDmzvpcqURX4UoYVjLuLcjLA562h3ep2p/k7QeKJoMKVoaO6ZBw1DjXvSDCOafh5jXrCichVLxniXojhVTDeDjV28H+RWPyMUCXv5yuYqkHFmx7G8Vc5n6WMKlKm6jaevD2VxP28vpTnJtJsVb1bUNcxDi4v4+LVO2BYfBdBkmW1J813qh57b22IhEcDUZGVA+VG9vYGJbedO3fi1ltvxcrXX98nJvvMk29jzKGYQlaNk0VPZqYLc3QADJHbdM0eV8wyRbrTbvGsYN1rIPT1ZUBysdZO2OvoHvSJk3Ut/+q/9WO3029FYa/jA6AY40FOjxBSjXm8xxfG+VTLx+WyOMfnxYdDpainqSq1aVC80QBOmz5vz8YhwsC5kNi1axcmTJiA6sJKSTZsDIrRfob7QZ2Dh8WYYQKZ025U51M4w+3AWe4ATnV7UEqlqmnKi9xm483HoOSmZf1uueUW3HvvPYUjNmwcXBRJzZo/bhgUcqp86qrBnCA/fUMc6JqDBXEZrc7d+zbGDgYlN614tGDhAsyaPZu/7GQ7NNB7VRL0dYfwXauSrL87GFAViFwx6ruD1Y4ODuwM6WSzlmlacMa2HMiZa4Q942T7u2Jnjr7kpi01Fc9brrg/YsjeHeC95ely3HU4eec+zrSIaMp0A8VHnri1ombjgFBM2ZGlYDEV9oGU2+JFi3HMnDlW3rJxCCBGUNV0Xzdokhw43O49zuVCni7npuMt1XVhv1Eow6b5T83keizt797Z12l5QdMoQafFo5194zaQUw09oVvxl66m2/uf1cV36PensyPOzuZmfeLQzzno3G7nXs7h4jk5cxNu5Qwh6reNg4OR5dVBX7lMBX/Aj0BAvZ1sHHXgF8vn98FXUYpgQwM8leUkuBEX++ExgqCK3+Hit3ioLNvX72jh9XmZlwPwMj9rNfrDj76y1sbhwpDkNmgrlo0jFvl8Dl4/P1olYWQzWaS7o4i3tiMfS8Ltk+w6iFCZHsRp9JIIreiGIy2dl0kpNxooB+epSlPqA6kuG5UVFFZvhoyyy9LhxqCpXOzukcv1/17uz7fTxliAPliBUBgZFvRYTy/LukUVebN1cHuQ07bIRgM4B11fvhuObnS+YOSNGvpIZ9NpJFNpdLd3UMEF7KqWtwCGJDc1KqhAKD8qR2q0jr6yNsEdeVB6BsIhJKJRqxJfB9VKaSr0eV6V5CSAwwYxWhGjyk6K+ciVl4LWYzpce26YjMXh9uwPTdo4WNjfb4tJT2t3WAyr3ORDu6afJvdHlQ9tjAkoLT0+LxJUaxCB9XH6gHl8PmSTmkfkMKE/PzFTjZyu5FNENfLiIWXqIpkV87Qja42wsPHmwSGVNPJEN20ygiE3/RhB8o8ieBtHKjx+P1K9EaPS+sPl9SInohtJR9ojFKpa8QR8GD9nJgtHzswI7HKJ7AoebBx2HI5Xb5PbUQ6Xx4OcVJlsswHgcjmQSWdM9cPRCq0lUT1zAhpOmQNHqQf+6hKSuhpPbHY7mmGT21EO9SnNJDQ5D0HTTJJe/bMcVDJ5zaSbypj6Ns3csf+Q6iu6kYD3UgUunVm93tga1plDAZfbhYXnn4tAbSWmnXMSwjMmIpNR/eLRS+g2bHI7qmFIq48pWjZ5IkLTJ2L8yYsx9cKzkfOpl33e1EUdWEYwxl7hn2Zn4xH9GbRqrMBm9KSJMM2vQ2gVB8fXIjh5PHwNtVhw6dvhLteSfbZuO+KgTGUy1shgk9tRDJGWMTcLlUtlU8Zh3nvehUnnn4HJZ58MF5WMUVskQY0U2F9othFv3g1PTjPyia5yPKaMqJOWH0EDpPLMcY7SMLw1dXBWVlE9+pFxOkw92KGAzM85F18I37g6lNXWA36P6c8nSjW9nGwcMTB5iuk2UtKyye0ohwrx7LPPhKeqDOGaKpTNm47g7Cnmd+nMqVRa+wdlM4ktT1kZJl9wIRZ++fM44b/+Hcf/939h8Ze+holLl8JTX4sUTeEMyVXkla8sw6LPfRTvuuW3eNefbsDbfvMTnP5f/4rJl12MXDhoTFQTsrYHoYEjT3P02AvPxdyLzkE0pekpGS6JPFxRjjRNdbszyNENm9yOZpAgXF4W5iUzUHH2YrjqSli2MwiX0Czz+zD+uGORpZJxZkQmhWuGgaEfkk/eG8SMK67EO266ASf/4DuYdv0HMOGSt2PK28/HzA9fhRN/+n1cet+duOBPN+KkH34Pp//4+yS1mzH7E59CvKIGzW07kU21UU35MP895+Okb34G4RPm00ymghSxycmkNoQ3OsgcL6EpevwnrsL0j16JZDCPrOrYpA4ZXnRni6lrPAhzINsYwxiU3EwGNl9R/bCO2TiyoGTzB8IoqavH7LPOgKdGc/PROKSSCldXYdzC+Zh68VIkA+QR5gT51yD6vZOb/lV3x61m3sho+u7ZU3H2d/4JJ/7TV+CYNBlZLYqSc8BFLpJzql8ZuckZ9KFy/hxMvOQ81F54NlyTx1n3ptpDmebXJZFpinDesGJ8A075uw9iLgnJMa6W5qomslRMCrHZK1Kq2bPq94qcbHwynu66Sky9cClO/4dPY8rF58JbXY5YPM5z1hqikcYm7HhtNZ/E/q4f7RgyhVtbWtHVqfWKlHn02TtEFSM2DgnUQTeTSsLDQh+oqkT1lMlw8Fg6l4cr4Dekd+w7346TP/UhhGdOQsrnQZp8k1WH17IKlC1ciBkfvQ7z/+2fMO9fvoo5X/siTv/ef+CyX/wK9RdeiCT9ZUV8zBZadSvromOOylJ9ZbQ1LQouEp/Wftf6AC76VSOGBxUTpsJT2cDfvNhFYuTWq/oxKr/zv/uvCJ20COmg15qxhMylvmrWZEcypLVVE4aW3csjTfMzPHUSFl13JS745udx7AfegdAxU+CtLKdSdRvxpy4xUoIrH3wC6Q6tk3VgUEmwYmFjf6DZ6A/1yxt0gZhlLy/D7X+9HelkCsFwCNd/6INYseJ1bN2+BT/54U/Q2qo1wgeHvUDM/kIXK5CDg7wzh/Gnn4ATPnQVkn4XcpkMfBWVpq5MDQGZWBSRlmY4IhG0bm1CsiOO8vFTqLiOQSnVVMbvNS2uiZ4IQmWlZAkfyYuEQULykjDcXq+ZsiiXJdloEeREAnmagHvmVpNSNLuMi4sk44Pb70daw8BSEWQj3Yi1tyEb7yYRkaRqJsBXVo1EvAfdGzajee0GdG/ejFhTE3q376JJuQOOdMKMMAiMr0PtrBmonzsbVXOmwVsegiMUhJf5FSRQ2qe8KzVnOo10bzdeu/t+vHLDX+FjNslr8RorWoND8RYpDvJRl1mrO/TNtTpmFSjlxb7XWmtVDAT5txeIGRqzZ8/EJz7xUdTW1WHqtGm48Q9/xOc+M/QCMYOT27JluOfee/jV46Mxwh/6oE1uI8IYIzelncPrwJIPX4OJF5xBxeaD0x+kYlIK8T6UNdlUDJHmHXCFK1E2cS7SOsd0czLtu1vaEWlqRl3deHgbapELhuClqavhXFr9ykGiKxZnU42RzSCXjJE041SJWYsASBAufwhun5/5kBnRRfVGks0n4vx4kgyZbq6MVtPKkxK8SOWSNG8VN+YHxYOqzc14iqSiXR1wZNNIJpLI97bA6dB68wxLdYuhErhLKxgnZXblOw2Zz9FfD9Y9/jie/tmNcHQlaTZbeXLAjN8X8maTm4nTSHPkWCK3vumyF8r4ZZ8+fTqmT5tufQBtHJlgbs8n81h/+33oXr3JVKTLnNuNfJYEE6eZ4Ea4erxRZW4SiiMaR9sbG9G7YxfKK2sRaBgHV00NApXV8AbDcLpJbiIq1Yspg9A5HC443D64QpXw1ZAM6yYhWDcB/so6eEiKmsiRBihvKTVHUgyE4Cmvgre2Aa5xU+BsmAo/71M6bipCdIH6CfCSrPIeL9KMV9bnQ6CmDn4eL5syHeUzl9CE9vN5MsjQwkhnaW4rDoXiqeeIdbZj8xNPY/lv/gxHLwmXz6s1W1Uc7Gx9dGPQ9J05cyauuPwKzJ4zm5l24C+XjSMHPU3teO0Pf0F0W5MxMUVqSvxYZyfi7V00L6l6/DQ7qbzirW1oXrMOmUgUVeMnoHrOLDjH1cKhqYKoivbODgpFB/q6/iiSqbb6RssNplF4vYKgqeskmfkqKxGoa6Da9JkrJOYEs4iyLwB3uZZpdiNQUoJQRTkvpbmZSiJOM7Rt1zbsWvYKXvi/P/EZO0lsDIGsphWqBoupjaMHQ368NAtvwO83FbJmMQ/lzcHypI0xj/ZV67H6d7cit60Ryd5eFvY8PG6aTmSMUGW9UVM9jS1o27gFTpp51cfMQsW8eXBWVRml5uK/oiqyUCQrGUIDO1U4FCv+i870NxvCWSFa/tQo4nC7qP5IXIwr9aG6qhnzx5HPoGvTdnRv2gFPOk/zuQndO7ajfec2kvkubHj0cTz1w18i3txBU9RN05eEmVYHXi2JfOBZuUjrNsYmhiQ3C3snn52Ybw7Umqh3L+WSc0mfcFso5KauawTqWiHseP5VvPzLm5DauB2pri4EaGK6aNqFw6WI9/QiE0uhfsZ0TDj+BJTNmANPqIJmnMcQ22hrRc1HUVvr54ihe/Q3G2WaekIhQ0wmzFwGa+77K+79zBfw7D9+F89973+RbetAlqotz+d67Za/YuWvb4G7I0niY9xpCkux0SjW1YW/BwbFzy4PYxejyas2DiNM4aOocpfQ9KosgbO+Cv7JDfDV1yJQU41QQy38VZXwlJcgUFGBENWVi6abRXaDw0kSbF7+Olb88o9IrtmIeEuTmZk2S1UULK9EzZyZCIyfCG9VvakjEw1oVo2iE6nkcmnksimafwnTeJCLR5GiEox3d9F1ItbdgURXBzLRXoBko1XjR0MlIowiaRRJSHVlOTVW8Jcm3Hz6p/+DF/7xW3BH43Dn8tj+zCt4+Te3ILGxCU//7+/ReM+zcMd4Hb8CfcMbFvqIeJxw+bxwB/xWF5I+AZj+nwVnY2zDJrcxB6vlx+HxIVhRY/qneUpKUEryqqxvQO20GaiZeQxqZszGuFnHoGH2PJRPnQZPdTX8NSS8SpIg/auQFomhP5wOJxpfW4nn/ufXiK3ahHwsThloqRk1DGg67mhrKyJt7dw2I8Z987u5Gb27diC6awuiOzcj2rgVsabtSNClm7cjs2sbEls2ILL2DfSsXYXkjq1I0jxMd3VSNdEQNJ1yRw75lkI1LZ49PciRQFOMx92f+xI2/ORXcMXT8DnVDcUJN83OtmVr8Mx//RKR17dSqcmAHRncXg9KqipQzg+HN+iDWy3BprGEIZCYlSIu2sKawVhk5/b5zBx5WiHOxtiFnTpjDSqR6nRbVoIMC5MnEEJNw3gEg0GkYwkkWqmKmjsQJ/Hks2m4aaIGqDAqSG7VEyYgXFlpKt9Fim6acQPWK7HQOl1OtG3fhcd+8FPseOApND31DFqeeRLty15CcvMGuHs74U7E4UwkjXPHU3An6TIZ+DN5mno5ZLp60bmjEU3rN6Fl7Ua0ctu5ZSciu5rQ09KGeDzCOGaQ5fVSXvsz9YcG4mdpLsuEduayePr2O9Dx/HIEnC4+O81kSlU3Ccfj9/JeeSrH3hGZiyJOX8CH0poqbgNUmz3oaW3jO04iHUmYrixZqsI8n5tsj0ycKpXpkYzFkIhEjHpU/z8RnY/v2YRpq7kxhVGQ20i/gzYOBDK7PGWlptd/1aQJNI/8aNm6HbtWvIGW1WvRSlXUtm4lWtasxrZly7HrtdfRtG4dOnZQQZEESqqrUD19OnwlpXAH/SihCZujCtmXVrRyKJDujeH1G27B8//yn3jh69/E05/7Iu7/8Idx+xXvwROf+Xt0vfIaXDQtTeNARgvL9KB1+07sWrsOXdu2ItvRSvIjCZLEXCzcLipA9QwJVJXTzC2TTDQmnun6MYrsJppQk0KWJJPo7EAq0kNi6YbXmYU3n2HsSXskNqdZK9RSVTKbRwKpMnVIVgfkiFqL+d6C5aUIlZczDN2ZL9/hgrXwstOMwnDSRFdn5aIzqo1+s6kU4iQ7Lz8+NsYWRkFuo/BqY7+hoiUy0MwVcaqJZpJItKkZIIG4WYCLnxht81RRSRasKBVH99ZtaFu/Di3rN5pjpXV1qKDiy6sujWpOnWf3Lvoy27xwqc9wJo14ewfEqO68C/50Bm6GEdu6CX5yktOZQ7yzDa2bN6Jj6xajojyMi1SVjF+HlrKiyWk1dgDB6kqa0PUkOQ+8pWXwlFcgZxZVHvkHUj6dGirWGzGdiXsbG9FJkj/u1FOQDXvpIUWSsYhN70FEMxS1mXoyBuoNBWm2hxCniZuI9FL1hjBh7hyq3DCJrsuMfHB6qAqZBh4eC4TLSHwkaqaHyC/cxwXLyoxyKyo6kaWNsQObscYMSGskCE/Ay4LtQPvOnTTxtsFJ5eLKqthadWgDwSRiUUV0tKF9/Qb0tjTBRzVRNW6iUX+hCvXcJxGYKwYA76HuIXmSRUa0RdN13oevQsn86Uimk+hsaUY+GTdr4ot4pCyLYZmuFYxilirNX1uJ0vo65GgqOqSO6BTmfoFmpvqsaVUu9cdLdvXAQ2KqPnYOT7r4PA4z0mEoKI4iNX0wAiSkDBVmhOE4PW5UTpyC+jmz0N3TjbamXfCXhuEvK6HqLSEJhqxRGF6tyC8at6CtwtRWKi+dpNmu8/rwqI7OxpiBTW5jBiwuIje3Nf4zn85adTgqMJrMkUVKfbOGQ55moVay6tyyFa0bNzCMNCrr6lm4A0aBiBAGgyasdGucKPcDkydhxoUXIkXj1eENkAimoqxhHNxUYflgAHmPD2RPOAIlcIRo0tXVoormcGj8eGTCIbhpHsu83m9iI9QPTwP9s/E4SU6maB4dLe2YsfRspPlevP4gSaXgeTDwcX1Ua8YEpeLMpNKoGFePSQuPRbiuCq1NTYhRpQZJaA6Xhy9BQ8rUmFC4ntBu/4+CWQe1sExilunl5HtT3Z+NsQOb3MYQVIiMAmChLiU5lNTUIMdCY9SH8TEKkORiNFebVq9GrLebBFdrlIUvsG/dkHr752ji+cvLkCAxqjdYgopRraNqBBAfhqhiKiqqUD9hMiZMm46GmTNRP30W6qbOQM3UaShvmABXuBT+ikqEqmrNWFLNyCGy2B8orloRX40GSZqPMmr1hlKJFMYtWIhsZanF+4OsHm/UFRWVv7QEKX4oIpEoPCTl8cccg9qpU6jg8mjdvt0MPXOrywtJNJ/vqwL3dPkwTiYyCS1Foo12dyNBlStSkzO+mW46b2PsYFhyMwXLfB31h19RHrBWobdxsJFXvRXfrXrlp5IJ06WjigoqIJKjqrJSYHRQS2U7FVzHru1ULyQaKQy/35CoCqTq5HiCxFbJgir1SOVI0kg1t+GOj30WT33sc3j5a9/Ai//5Pbz0Pz/DK7/7HVbffgc6X14Bt8xG1eU53Eg5SCQV5fCES6jWXHwWmoy0B628Y1HTaJFJxPkAVEZJkoaYn9AmmU5h0ZVXoIfKyRMOG3N7L9CTy+cxlfyxnoiZ9qmsoRaTFy6Ar6IMPb09fB87kacadOatLiNuo9g0PZLVl0+dgVPxXiRosia6O5CkWZzivmZREaGJ8PQOiygSYH5YKWnjcMFWbmMGTAp+M4yJY0w5B2KxiKmwDtfVoXzaZLhp7rEIWd5HAU1HFG1rpxlFsmAhdHo90CLFIiDeDL7SUuvedDJLXSQqjYjwJBLoWPsGtjzzDLbfdz+23HobNv3mBrzx4//BY1/6Elqee8YylxUMycRJZaSirTo4Xs290TUi9EUukzJLEup5tXqV4ldEOp7G3EsuRmDJXERJOE6f38w8IkjxeaTEqNbUiqnryydOoMKcykd3oLO1FW2NTcil1X9N75w+eFxElU7EkIqqoaHHNMpkYymGQ2WmmYrpz3TTo1OjQ/XEibqZuaegejczRLFvRG28qbDJbcyABYXlQqotbZQKVXImiaSW5eMprz+A8snjTUukKT4sbCOFimCOJp6m2i4qP9W/eQJ+eMOWmapKd0Hk4GbhFVRg5UR00jeGculPhdxRXYaKuZN5jATA42pd3FPY90+p9YVRa9k075qDw++jMtSeBanbHiqyC/7xK0jUVpq6rwyPqd5LSEtZGaIBwlWVqCW5pUlerU270NveCSfJ3snTirdILcWPSIJqLk3yzybSVHQ8WbxZH8i/5rErnzTejF7QaI/iM5s57Qomqo2xAZvcxhLyGphO81P1XpJRLE7xCM0g08+MBdLpQKi+BoEJdaZlUj5GgiLlyEQ1Zpf2+VezbsikM8qIMOVUfwpmnmn9ozMkQCeFpm2G22POORM+Eq0Wf9H5ZCxhum5YY1AVkGJvtSYKpl/YCCETT2a5OuXqfYSraxEkQWWoOItGn7pe+MurcPJnPo6U1mBVZ+GCuSgonl4+37hp0xCnKblrw3rEu3pM3z63ZjZhdDS5purzsnHG0agzc+mgyPGdlzEeCIUR06ScPKZ3JKeRC8V72xgbsMltrEEMwhKcZIFzanApySjKQgkqL0EFSVP7lIxvQE51dObo8BDdSM3kNKGnyrHq13jUXE/iUWuimUaoUEAdbppZhdyhI7qXOpJo4Lnqldq3biFxqdOIiJEqU5XtkThD1D8rnhpREWltN+qoeGwkkD+vZqOhejWxdLpRN2EKauccA1dZOQmVsWCkepvbsfjtF6HutBP2mR9Uz1Hd0IBumqHb17xBAksw3MKycLw2w/dgWjtpvg4H8/x8zLJJ48xQOMUvEaXJy/cp5wkEDNnuU/dnY1BYuezQwk6NMQcWZ5pj+WSKZNFrOrDmcwkzPEh1Z0X4NWCeJteeIyODyE3qba/rSASGULxUcmp95H8zsSRJRWpRFOhCBi6/E6EJ1fBWBLFz2St4+iv/iu5nX4bHEDFVWk8vyUL1ZBa55FM0K0nKmUjMIgIx0gihWXs9FVXIujxWXKm2QiUVaJgzB1VTJiFHVRajItM0+Kd+/Hran35znZ5DTqZ1j+rXtm4jk2XgYXhudSRmFLLpOIk3RqU3srenTr0VkyciqL6CXirrVMJMky54pH55v90wnZVtjAXY5DYmocprEhDNyCTNUrPWQTpmzKoiwalABWuqWLqG6Jg7EOg5n7amY99dJIukowMqm+rBsftsnuSSRdXMqZh90bmYcPapqJwzjWXYgbZXX8dTX/9nPP3Zr6DpL3cir6FMbW1W+AxTjRMapB/vJRGMQCHtBanJcAl8dbXwVlbCU1oCZyhoTMLg+AlomH0MnOGgUYa1x8zB+KVnGBJUZb8/EDR1lxoD6sgxHnwoteyK5JKRHjPkLDNCYnOQ2MomToSnMJTMmc4g2tRiiFtqV+SmNVCLpLoX0dl4U2GT2xiGikmeBJei8nHQRpTiiPdESHAWGalV1a9xqCOlNxZ4OVNZX6h7MyiSm4itUDa1sTJHHuVUSg3HLYKzJExSc1LFTEY64ELaSRLOJdGz9nW88pOf4MEPfwKbb7oNqZ07KY8yJAaRG4OlWZrUMKpRdiESUbg8Xt63BK6KSniraxCob4C3rt5MoFk/6xgzzXgq7cC8970XSRKuTEO322OmcdpNNCK1nh6kNLOIeXbr8GAQ7WkVL61OXzZpAoktrMgwnBx6SN6a3sl0eCa5idhEqDapjT3Y5DbGoSKTT8hEjdH0U2NDjEShnvGWKanxjabVbiRQax6dTNM0Td681QltT1lXOKq86lOB5aSZNUFTzZOoFBktxeegWikJlZDYtHaoVjCgusuTQJp34tUf/xCPfuRT6HjkMbhIoF61KpItRG5ZKqbREtxeUPxEXiQuf2k54xFA+aQpyDh8NFePpcLju6A5rdYCEVyRqHfD3HoE92ep8JSGUDV1CnxlJFbe10Xl2dPcjB6qNrWM+vwBu3V0jGNk5FbIJKOoMrFxEKDXLafXnyPByUR15aiYEhHux5geeXh9Xnj9ox+wnaGCSce0lkJBwZnKcDr+UDqbY4LTZaZbMuBBJ/lQ/c80BZCu1bhXR4IqLa4uFCk4SAJda1bjmc99GZv/eBN8uTTJIUdiziLW3U2Cix4QweldkF7NuE6Ru8xeQ2S8j5sqz/jhYzj4x8zJVoC5I5Wd6Hw4A1kzhFSPnwSP16dHJIlpFbAWdDe3wMt7uD2WKZpW4wyhsPs6Gwcf+/N+hyU3ZSarEchpCtPeNdE2DheUBFJw6lzqFMHFo8iQSDTEyFdZYXkaIZSmKvb5RNqM2zRZRiarlBxvlGHxLzY5ZFm6VUeVbOlA744mdK7biI2PPY10V1QUg0wsQVXZjVS0BxmNBkjExAZIdnfh+W//B7b85a/w5jRCVQ0jaUS7OxHvaEc+KXIcTVbtA8Y1E4+Rz1KMXx55Vw6NLy1DqrMTbo0PzYn+SHxWxjXQnVxUfOonmC4Sej84fG6UTKxH6YTxcHgZY3pSK3BPUxMizW3weQPweQKmq44aSIqKWWFJw9k67tBBHxl1tjZN+iPEoOQmInvggQfwyiuvWKnHzLK/edHG/kHJ2DcptW9aUU39lQNJtU4yUXxUGr6ysOVpBCiG61ThJbmpctxAfMYcoX5quXyaToSUw8qnn8YbTzyJLc+9jMbXVyNJYsurT56crpGJnJHjDzPRYwwJSrxsOoLnfvIDRDdtRDarPmgMj6ZcKhpFlEoo2UmSy/SxgUcCxZmKKcd4Jzq6tQQqOl97GU9+69sIZ0VopO1Cj+T+wwQz6YwZr1s5YRyJTK2wPM/r3SQ1f0UpSieNh5dmvlbKz/C54/FedG7dikRrO3wkTa8UWyrB5y6oxj7K0Mahhzpv71sqBseg5CZ0dHVg1qyZplLYxtiBzD8RHFhYTd8yFubScfWG5Han+0BfIimZfk6+MhnLvMqyQOsLqXo2rSls1izIUsVlsigtq0G4vALBsnIzJEytpWYix8LAdd2ueEspTEciCTeFoLerG6/++c/GLHWokUE3yHFf6ovPkOjoNPsjhWKcolmeS0bNIPZcpAcP/Nu/I7WtyZB1jn8yDtUEWkTaF1nNqEsiL6moQs20qaiYOgWV06ahYoZmM6k3Y24p/XhtBj0tTejZth1Zvl8XCdPl9yBFYjMKV4qtoNpsjF1YOXMA6Mu07MVluPNvd5kxhzbGFjTHWbKzm4UvhkxUnWddKKmto0k1Ee5gwKgSUYa6RGjwuXHFQiliK+yrQLu9hSXCpbzkyFJKcqtVNg9/KGxaZnnEjEkN8LeXyscQKX+r5/5e4GUOErDqB9XNt2vFCmuR5+YmgOYoeXH391cKLK0uGwOR8QBQI0iaJnC0sw2JdBI7Vq1Bx5p1Jr/mtLYpA81m08Zs7wvFXjqrt51qkdu82wd3uBRO1Sdq2JbDDQ+VaKY7gq4tW83arRpXqkV3JA9FpDaxHVkYlNyEjEyIwvAZG2MMIgN1sejpMfP5J0geGlvpD4dRNmECyidNtlbHCofgCvjgpPJQB1SRlOqitMCJJmX0aSV4kVOBXIpjHlR8zZ6DfjVpI89rKJVm2RA3hsPl3DI89WXTgX7IkhiyNCNIGXAzfg6qQzeVW8+2HXBFE0Zl6S66T7K725D1SCjDzHWneJDYRZK9Ta0I5p1wm24nDmQTNItNfdy+NWAKP9PVg66mXVR1jAOfUNNQavaReFcnuqnUerZsZ6BUawzTo9XEGGeNyTXvpx+x6RGst2VjLGJQctMXv7auFtMo2+0P1dhFTgqOyicVi5ke+TFNy0PV5NGKTjQhS6nmAtXV8JWWI1BSDn9pGV2pGTKkLg1SPKaOjURpRhEUR0HwuDKHh8SViETRtnMHOrZuRc/2HWa672Q8YtYRFTE61VrZD4a8sjQDGXac5mCiN4owyTSXTvD6LQDjbFo85Zn3jXVqmvPh2jEJkk2st5dbqkhe5yOpmSo27md4XAory3O6vZnFgzBrHtDcVB2ZvCbbOtG+fiM61q5Dx8aN6KZSi+1sNGspOMmYXn4INIW5+gOqntAEVlS7faDY2uQ2djEouSnT19TWYOrUKVYGtDEmYcp1ImmGA0mtiOQ0ZU+kuxM9PW3kkA4kU1QyJAVjVgn9lJbRTzpHshHBmWMFUzPPAh4c32BaZPOxNJyZPGZediESNEuLdVqDTRhpFA+Lf5ymaNeGTVSVNJdpAWoigC4SnE9LChYITq2sGm5WVJCDQXVmic4uOGR/ktV8UldqRCCKnZsFdQPxlIaRJcNlaKaaxWN4iRSrFJmbz5dj/DIxDZrncY+61Pj53DJB6T8pU54B6RELr83GkYUhya0kXILy8tF1M7Bx+KGhUhkpFjqXVmnSv3QO7hTP0bnUXsCCb2aSJdEYlSYV0leJFFWU+IEEpzndVLhTVEETFi9ApKMDTi/NUxb+jbc9jIUXvQPxFM1O+tszVKsPeLmWHpQ568popfuX4GfcvDSbhSxJKtK4y0w/pFtKZZnB7YNooWJG1XOqPo2UZWZGScWTcIuQxV19hJ9LdYSGoOkk7fj8ahhR/zQ1LGhWAI22MKqO3GgG/sukTe1rzto4MjEoucksNZ0lc8VaGBtjGSrGmWQSie4uo960sHKKBTadpkkYiyKuCRjjMdP5Vn3NIqqrY2FOyR+vkyISqcmcVV2rIT7+FxGuvfN+BJw+BPih0yIrWj+h7tTTED5xkdXXrr/aUq6SE2Ey/2jo2K7XXqHZGEVJRYWZYUOIR3t5vTXQnkxj6gYN6Q4A+VHn32h7Ox80S7M3pepAdDY1w0XyKpqggj7MuiBFM9PFbd8QzT7jJTLTjCCqG8yk+Aymm4GNowmDkltf7J3sdiYYq1DBVQuf+pllDZHFTeW6uoyIAMzIgIIpqX6MIrVEIopEMm62URKgeMHnC5h6O+UOdfVIdnRbS+wx7f3hEGa87SxseeopdC9fwXAZppRTXwYpQPdQpwzlmIRm6Fi52ox2UAsk+c6QotV3yYJm7hgwIEKf2Czj2btzJ9wyMRkbNQZ0NjZZmbgQjNRbuKzcmJ7FYzbemhgZuRXkfqFzgT58No4AiCZEAWIsk2RiLo/H9GOTeLKc1aAgZzr1UumZVdjVRYK/PbTZNK5U6xFojGWSym/bk09hw823IhjvpbJLWf3kCmrMQNlEQpBEqimQFA93MottjzxBgnUiUFFqBqZneU1xfKuZNJOqURgwezHTdW/fhlwyYsKTOvNRusVIbqbzMC/ScRd3tYBLSuRs4y2NEZHb3rltwKxn40iAyI1OxGAIwri9/5k6OxJaWAPySTjqXmEWKTb93AiahA6SliNHUiPRacJH08I6SFWVmRyTbKd7bX38ScSbmhAq0fRBDI9ZKcPwRFxqzcwXGjGsv3sjm0gh3txC89MKS9ACNLGdJDcFZAVngTsa2G7jrY2RkZuNtwyszrp5M212sMwa8SDTUZNCqpuFXKInYuqz0sXWTim1fWAdzOZolor8iHwigXV332Mq8QMlIVNPlimMMfUUF3gxf/dAhCXzNtHWigzNZpmixVpgY3p3dRlfsow1iXGGalDjYrWyl423Nmxys7EbIhY1JKndVGaiVQdG0OxLU6VloglkYzHk0wnTDUT++5PRHlgEZPrO5Qqyjoc23fcgsu2dZiiXOuFqXQeFITLV1rpqD8wxkmM6HuE943AYorSIS9M2pXt7TKunm+rS9AgpREgNBjbe2uhHbspayjxyxWzW5xi/oNbv4jkbRxOUqlqsWHWrcjJLzfqjOqN+coZURpn2zDO57B6iSbS0Y/P9D8EXVH+zgFl5yktlqFZeK3/tDdPyWTBdTassnVWDmEOyuxc5qUeRG8NyaiRFgdxMi+/BgMIrhGnjyMIA5KYMXCQ4OtWDeOjN2B4U/PwSu/TJtXFUwfQRI3GEtaIV84GZgtKVM1OFqyHBENwoUWxj0CpTxYYDZbiVf7oFudY2BKsq4FD/MpqW0W27kKKi06rvymlFyCTNUfk5nFR2GgmhvJd3k2+c6OJ1UphZklvWK4LzG5PXQCwnv8qq+5tddZ3MZc0Tt58r59s4uDD5qEBTqooYCiMyS/c3b9g4cmBxQDE7FFQPycET0MBxmqnqVLYf0FUaIpYvzDyiu6S7erHm1jsQLAnCx/BjrS3I98bQtWUb/atZY2+IwEQwnmCY511wk7jUOTgpk5b7GqFQvKa4OLOBlJ6Noxa9vb1Iatr4QbB/OdbGUQeNZsoxN2g1+r7wBtUnzQFXIEgTVdX51odzeFh0owymjrQZjSrIamJMzcrrwLq7H6Ra2wlfVTliiRiS8R5EW3YhE+nkNX0+ySIyqTGPVsYvYzyt2XSFZKJImDKiLRgilGrr26vX5rijEps3b8Jdd91lrMmBYJObDQvKCSQG01qq+dwI0ZObZOcNqeOtB+5wyKqH4/F9+UJHmMlUfWGqMMzVdAXjlOoto2nG4xH+yJpOwS/d8EeU+AJwloVJrDljokZbmxjMnswqZaaZR9TPzldaCidNT91Jq05lNL8a75nNaDiZFSORm+JoVOjAEbVxlKCysmp3f0ZVX/SHTW42LDBzyETU1EFG+RQgcgmUktTcJA0vzdSyMrj9QR63SM5A/OUhofg8cAUDxjn9buQ9NBll0pLk1E1Y90jHokj0dpCTkmh+6mlsf+xJVNRVArxWlBRpbN0ro6q11SzXF/RrCXkzu4li5/XzPiJadfmgs1bot+KrCSddXq9NbEcdCgla2Pzmt7/Grl27bOVmY2ioa4fGV5pWxmLXjQKk3oJVZTQPVf9GHqOS08rrfhKdv7wcvhK68koz9tQbKqHKC8GlCS3D5fQbZgAiQiMNDQ86Uhman71wxSJ4+dc3wNUbRaisxIxvV/+5nNZh6IMsycvl9ZMwAwhXVsPlJnExTHdIq9KTOpm3NcebYLK5CG642mYbRxRM3Wq/j9XMmbMRDIUKv/aFTW42DJRvpIQ0ZflAkFIKVdEs9HhN/ZwIz6HKe5qMTq+bhKODzE5iL9NKyR2auA6PzxAddL4A7ckEzWna7+YmrLnhTygvK0eOftw0MROar60fclSKAZml3gCCtXW8nx9l3DJCpk6vmO8VthSgOg/bOLrQn9wWL16MMnU0J2yz1Mbg4Jdxd6fdAaAvpwguXFluyKyo7QxlGbbiHxKdg+agm+e16IrIDSQlJ5WWOxQwpKgsaLzTaeqhVCaOTY8/gVxnDwI+n8nA6vOmzif9oXVKnSRBX1Ut/BXlqJ40iTLSbcap7p6HTo7kakZFFIZz2TgK4cijob6Oyb93A1hf2ORmw0CTO5rKeJHUIBDBuX0ehCvK4PK49iIq0x9M1xZJjk7cVvSksEVufSF1lUtkzBTfjS+9bI0HFbm1thZGIvQDw9Ysws4wTVgSXcWEcfA01DFct/lyF7/eqg/UWFVzYxtHJ5i0xbHIg2EQcsubPNofVtbhtrhj4+iBSdTiqM3BIYLz+L1UcGX8UfBdJLW+YHhq5STPFDBwRnTQDHUxk2548kmrAy69ZbTmwiAxUZ+2oOaU8wXhLSnH9DNPp8aj71xhBIOB1S9vz71tHJVQcjONzQQPdP3R78ieDGjl1b1PF7OOTW5HIZiomhZ8eHqz4PZr8sqyAYzHApSBmOFcPiook41cZtOX4oy2okJTPVvH9u1waMk/xkONG2oFNS2f/aDY5WmKBKurkSHJLnrvu5Al0Wpx5uJcdYLmo/PKzNYi9PsGY+NNxgEniQJQzUN/CuuDwc/YeGshl0PazNAxKF3tA284SHPUNTDBFdScyMpkZKo8VfT3h6YwypHUtAJWuqvbLB2oALVwc3HIVn+Y0aVuL3wVlfDMnIoFH7oWSSo6rc5lzFP5UReS4pKFNt6SsMnNhoHq3EYryMVfnqDPqKaBWqsEQ3zitKIbCFRunlgKydZ2uMvCyLicSMdizJxDx8hF09RXWY2FV70HFccvQYbe1anTEBzvpT52bl/IHDchqU+xjbcMbHKzYSBC0JoCciOFaUGVOuIlxdbK/jAZjESjrrzFkQ/9IeLRqvPRDk2FVIZASZhhpuHss5rVQDDdQ4IlcI1rwFlf+zIypeoWICazpjYX+4bKy+EN0DwVsdqtp28p2ORmw0CdYbUilVbHKkI9v3cvSDwITH835iKzCPJA/iTvDLOI3AYml2I9n1aDDwQDqK6rhdvMwjG8iZwjYYbCFSg/dj7mfvAaJETOVIIOrxt5vweJeIKEWQ6HaT218VaCTW42DEwXECobLVwsaJ3PmFZhb2o2iz6r7sw6sTfhqIuHQ7NEDib4CuEJe/qu9SU57StsmqJmlAHjoDVRzarOw2dPU//mciNYXYNF110L/8zpSOey8JaU4NRrr4J7Yi0Sziz8FaVGaRrTdGCOtXGUwSY3GwYyK2UaigBM/Rn/pxIkG5mLXV1IU9UZThhEfY0EQ1+ps8Z4JQVqq84gYswCqQ4BEZzLG4CvdhwWf+R6xHN5JGNxlNTVYAnVXPm8OVDsw+VVZs63vF339paATW42DPIuJ9VPFSLd3fxBuqDTCKY8mSCfdSDG48WZcA81sqS3HM1KdSUZqcwSwflKKzD5jDPgHz8eSGaQyjjh8oex4IorMPnUMxDPO+EtK4e3vGIElGnjSIdNbjbMSAFvOGTMuYxm2XC74CSJacymIReHC+lYApmE5mM7NFC9m0xi3VLGqzoKj5DXdkOzh5SQ2MadcJxpwdW6rOognHX5MP3t52HqOWchSYJze7wk8vIDEaE2jgD0I7f+3zNms8Pwpbbx5kGpa8aDBrxGvc1ZuhSVC+cjQWbJ7lX6HYgX1VsfiJQG7AaiYyRKrV1axB4jc4//vjV4JeXl0GSUci6fNW+bVrTKOayuHcOC12m2kkVXXI60z4tsMmbdSn3pSNDTzj6N7izE+CwO9ZMrL7XEoY2jEsMkrbFLCvs2jkZoksfymmqacGlMPfVU1J11OkqmzULa64OjbhzivjIk4aM/N9I09bJxaym+IsyuXN+cpEYHzfpBYsumtfqVyIlEJ1VoxiXswW7SIsuU1tVScXHX5TaD7c0IB2SovrJwOEmSppFhGLjdaDjtZIxfegZ6YnFDlFKA+WQKy+++HwGqtqmnnIS0RkA43fCXlnE7Eua0MZbQN7sNNPRKsL9bb2GIKsoqq5CMxTBx0bGYdN4ZSDtdCFRXYdJJJ+Edv/pfXPK7X+Lkf/l/qD7nXGR8JUjQPLWUmuUMcWm/Lz+IUNRKqq2kGTktRxPRNFgY/dYH5lIn1aMHpRPGG/XoCwSQikcR7+hEoq0N8aYWxNo6qMRkFu/Rf3tgxUVNEAotFy7BSR/6ENp5/zTjoXVM1RLc3dmBZ2+5HRseexZuUyDon+cDJVRwmqbJxlEFm9zeqiBBaarunNuHkslTMf2Si5Fy8XfOKa2E8LTpcPnLUX7MbFSceQpO+vKXcOaPfojw6ecgmfeQYqyOskWa0dYoMxGfSK34NS1wRj7Tl9T2EAk1GvnFDV9dDdzja4zoy0eiiG7dip7N69Gzfi261r2BnrVrENm0EZm2FiAZRS4dhyNNwkzRgKbTBJeZ3l6zklamJ4qaOfOw8OJ3IOsJ8HkYFyq6495xCZw1ZUB3LxKdESTiSaRTSTOjiY8msWYbtnH0wE7NtyBERBpuFa6sAAJ+zL3iMqR9IVKapbZ0vqyuDhkSkkYgVNXXI+n3wj91CpZ89osY9653I+HQuM2syUDFVe+yWZqhmtO+6ER0NCXzectE3TPIWXfgX5Gg5n0juYw7YQmcvgAiHd3YuWIVml9fja71mxDZvAPRLY1m2/zqCmx7/gW0vvYaujdtQGzndiQbdyGxaxfiO3eid8c2dJAA2zesR+P6dRqogClz5sIbKkOGZKvW4NOufi+VXQC5FMmZZnYmmTbdYGQK+zTxoW2iHjUYgNyUuP0SWJnUmCI2jgaoUUCz2iZY+ue/62LkqipJdm6rct9MY+RAUmM0qcSyJCUXFV5FQwNJjITm8WPS6WcjV04FpAozmnNSXlaWKaw5Wsgr5pAWRM2R3NJagq1vvlKHYTe8fj8JNoSZ77jQ1I+VkGBKqqqNkso7PQyR1/C4ouXM5JGl6urasAUtK1ai8eVXsGvZMjQuexmtr7yCzhWvI7puPZLbdiDX1o7uLRuQbG/FlJkzzfTnouLK6dNx0vuvRj4octaaqDnEIj1GdbrcVHClof7VgjaOUPQjN/3UZ9j6FJsByAMQ2yD1dzaOEPiCAeSpmMafeBJ802eY+ibNXGtS2cwKkkcmm0Y6RtMtFrVmuqXCK62vswajl4ZRt+Qkko6LQsdpFKDbrBeqvJJCWgsrk42soaT8s3f2IUiIJDVPedj0Z5t84bkoZTy0fGCOpmGooQ51JKTJSxZjwnGLea8FqJk7B2UTxsNXUmamPFLVWy6RQpbOTFeeSCBPAnWqek31gIyDk4qxbRfN27ZGTJwx3YxayDLzVhw7Fyd98FogZE2OqSFmGnaW4zvQbMRm3Ye+PGzjiMQQNOVAF7+Sra0tzAD75E4bRyKYjhouJdVWMmEipi8928xmms+aJgELZoeqigQR6+1GNBI1hd6sm0AyKKmpRNaVx9TjTuQxZh8eN/3LKkhw3qBV3081lCVJZnidWeavQBSiTXUvcWupwBK/IbKaxQux5JMfgUMEWV4BJ81ghZsz/dMYHZ8HDhKrp6IM4SmTUHvsMahfOBfBqRPhLyuhf49ZeyHrdiOrfc0fF3DDGfTC4fcZddjWtAvd7S1omDbNrOmQY3wrF82ngrsWDsZFQ88URc1Rp2pDb9BP8tVEcDaOZAypwZqbG7Fx0yZLvdk44qFUDFB1pT0OzL74QiS8LjOGM98vFxSnGsp2d8KlVd1povpJVi6SgJdqy1ddBe+0iXBMmWLqq1RP5SG5lFVqBaxyEoiUvxocMmYQOxnV1K+JsBDwkax8SNH/5Isvxmn/+s/IVdeQ7ErhoPnrpnpTdCw+zMGdT8KZjABtO+HctQnOHRsQaN2BcZkI6sq9qG8oR82EGlRNqkHNtAaMnz0Fk46djQkL52PCggWYcOx81M6bh1wZzc2QGzUkSNUtaqnBqgXzseS66+AKlcLr8mD2uWchyXeS4uOrv5yD6tbO+kcuBiU35kU0NTZj/fp1tnI7SqBe/w6aXdPPOhuu2iqLbMQie9hkL+TjMeR6epHq0bTflheNPQ1WlMNdUY0Z552PNNWXkwQpQnORGIIVpSirqYU/rBEABXIokJuDqsobDsAZ8uHkz34Kx33xC0jX1cNbVU3ZRNVl4uCEI5OBV/V9LY2Ivvosos89gshjd6Pz0TvQ/tgdaHvkDrQ8/Fe0PvJXdD52J7qf/Bt6nrkP3c/ej/an70Pbk/ei5+kHEF/+DBIbVyHZvg2uVA/S6QgCVeXw11cXVKcLtfPn4bQvfwnHvPMdmHjC8TiGajZl+tM5EK6oMuXAxpGJQclNa1hWVVVi2tSp9DWoNxtHEII0HQPjG1B//HHGjBuI0PpC7aax9jakowljuhrIyiQxlFFt1Z1+FipOPNFYooJ6mokNXFpEprIU5XW18KheS8dIfm6anFpz9FSS2pR3XYZcIIwQCcRJUzGfJ/kx7FwuyfAS6Fj9KlLLXoBz62b0rFmPTCYJbwmvpznrCHqoAEmGXicyDipEnnMnInB1tyPftgvpXVsQ3bwWkXUrEH/9JeSWPYvci08h+eyTiL6+HOUkYHeJtRpXjjcNNlD1nXEa4sEQppx2OmrnzjedibVeaiAcNtOeq1Oy/ZF/s6Hqk5GnwaCspXScOHESZs2eY8jNTtYjGz6STJbqaP7Fb0fK6903PQdIYE0LnopSvWmRZH7sBLU3WMKGhFVSiZlXvBeuiROt02pBEGHSSalp6qKy2mq4g354Q2GSmAcLr34fGi58G03jIHwkW9AM1egHJ9wk0STSkU4kV76G/PaN8OfiaNy4BRteX4/VL2xC09ZOLVQPDeiPReKIRrR4swsBfwg+LftHVer2B0zLqJ9mrtpn27o60dbaipamRnhJhJ5kNyJb1qKEH+40M7me0cHIqwU5m80h43Jh4SUXw1dXyWNZxtkNT0AND3xAm9zeNBRHIZgUGOajXMSg5KawLr/8cpSXlRWO2DgSYfGQw6zzOeGk4+GorbHq2PbJINRdjjyinR1I9PRYs4KYwxl0NzYim6J6MQxmDafKZXm8vROO0mrMvfoa5NS1YqA1D6jyPAE1HrhRccwczLj6vYi7PPCWl8MVDPCejIx4g+GnY72I79yBdNMudK5eifZ1GxgPfljpkrE0tq3eideffwNb39iJrvYI4xpHR3M7Wps74A2UIBgoI1eWUeXl0dTYhtaWDl7vQqo3RdOairCt27SquiPd8JrCYjUk7H4Vigc3znAI8y+6hM/EDwKf0xsKmgWoTe8B1THaOCIwKLmpO0htbR1qampM4bBxZEKFVY0IOSqnepKb6sjMwX5w0RiM7tiKlb+8AW/88vdINjUjI+VCmZbrbEF0w1pkYj38rYaCnPmSqqeHk6rLM3UmJl/2LsQNYSjwPiTHrOOhgnN6HaYvW5qmn4tE5AwyTqqTowdnhoZoTyey3a3o3bgaiHehacMmvHj7PfCkUph33FxMnTkRE6dPQm1DvRl36nBSTTndJFknUokMoj1xHvOgqzeKrTt2Iut0YcrchaifMpP3cJP4wti1ei08mqOOCi2bSQ0+5IomcumsmSg98wxknA7TF04mvVqapVjtBrYDh6oghmKfg4Ehgi9+02xiO5Lh0MrI5SWYdu5ppme+UW1ipSJUTumkxNY+8iQy3V1mLYNX77gb3mTaKDhkcmjdvBFtWzZTLXUZVa/vnZfmrZAlAdSccTpqzzwbmku3P7m5fV74adpVz52LvMcHP4nNmt6IJ2nnJqJRpOO9iDVthbe3Ay7eMxAKobp+El696yFsWPYClVsrykrdmD5nEuYuno1pMyagqqbK5M5sLoPWXc1o3LYdbS2tZl2FmfMWwEfFuG3DRlRVVKJr+07sWL/eKC8ze7CImw+hMjYgVTEOi089Fb7JE/kOqfDoV+apiE1kZ2OU4EtWf245s6+NtkoL4+HgY2TcadKSUeB2wIxgY0xCBdlfWQ5ffT0q58yhUhKZ6IR13kCjDPi7t7kVkS3b4EhkkY30IrlxCxqXryBzZJnyNMeSSTPEKdXYgt6mFnNZuLaSmVPrkbqRcnkx87LL4JsxEzTkCoETvF4kEi4vpWlcafqdOUMBK0vxby6VQIJmojOTRoLmaIh383jcKCNx1U6ZjIZZc9G2YTvWPvYElt/xNzSuXg2XhoXRhC4JlxrydplW2Tx6e2MSZZg2dwGcJKL1a9bASxJ9/ZFH0bxpMyrq6pCiGZzTojb0p1EZwmCFy0HzecbZZyGjllya4v4wFSf3B5uFwsYQyDjhSbvgSksJO5ClyX/MJRfjk7/5uToMDQtTJaAdVY0U86+SYbDEI4ZJJV1Jx4zgNN3Nud+/U5SNMQkRkmbayHv9mE7zSq2j3mQOye2Nphf/bpB4pF+aX1sJRySJdJraK5GCL51B43MvIkMzT59Y9RrJdnWh5fVX0f7iC0g07oKD5mbpuFq4aSaqD1w2VIL5V1+LZFkZtZuVA9XSmEmnqd78VEtard5qpdTZPFVbOhKBh6rRxX3Vu7k8XpqwLpTUV6M7GUHZuHGYcswSjK+fhrqyenTvaGT+tqY/ykpBFbJontlThKt6N1+oHJFY3BDb5tdXMt7dqKuqQd3ESSROP+/hM8rT7XUXL98LfX83TJ2GIOOQ4r3SJFW/WWHLxqiQcdEM9SLl5IettgHHXfV+/N199+HqG36DcaecXPA0NExVgFqzrF90zLfMlKYDthJzANhMdRRCSa/WP29lGcqmTET5pImy3fDGw4/ihRtuRjaqVsYCZKYlEmhdtQZZqjMRjLJKhlvVu0XeWG/540GN70zu3Iynvv1NRF97DvHGrXD4vSgbXws/zUjBM24SZlz+biSpcEyGJMFoBIMGzmfiCWuIFf3JOjGra9H0VeB5KkBNUKnZgFUfF6ypQbCuCgkSbTAYQllZNRwk6GzaUpJpxq+leefuLiqmKwn/xWMJKrheMyA+RCKN0kytrKmFx+1EeFy9MZGzyYQxqTWuVXGxQtiD3b/1zIy7u0TjTV2mcUHvxqluNDYGhl5e8aWafZqdWRdCE+px9te+gC8+fA/e/ePvo27hAr5bH70eCAUNTGpF2OR2lMKlIUQkmJmnn44EWWnXitfR/tzzCMZ6kOnptDwx86kbROe27Ui1dpqRCOrmoSyjOrhsPInm5a/CQyIxGdXkljzcPJfq6UJ840rEdm5CisQRpIIrrSEB0eSrPeEU1C89Dxl+aUVsGndqVBpJVSvMCxojoLB03KhMhxelc45DpGI80gGarw0T+VU/Ad5SmrgkOH+ojGZhNX16eJkG3TuRimsBZhJuIo3O5i4yspskmka0q4Nf9Dz3k5g2ZzJcFSGUk+R9FaVIZePw6EtfUwEHScuUPxOj/uAZKs5tTz+D3rXr4SHpqv0hrynZ1TXExqBwZviiSGqudBANc0/AFT/+ET7/7OM4/+//ASWTpjBf8ENB+a60N/16DhEOLbk57f5xbwZEGx6aXuHJk+CbUItUZzc2P/A4SSLJvESSoUIrQuZm0/r1cEq1MZ/1zRCayaN74xYqtEZ+fZkRC/nQS/Uj5RMlSSY2r0Fs2xbyAE1PjU6op5kaDGDaRZfCO202TTkHz4nEmBcyKasOjoSnGhSZE9o3mov7vtJKlMw9EUkHCZGmbkllDcafdjzKp9cgr2oyX56kza+96gFVEa1raY5qadVYTxytjc1myqVIWxt8PKfpmuaeeCpmnnkqKmZNozp0IkblF5g1hzap2xrsP0AJUCNKoq0Dz990C9Y+8DAcmhaJx+VV71aEbas3C8UqBnKZ+UhkvEyQQAWOvfhyXPeXP+DTD92FRde8BwHVjzKNDycfHDJyUyXh/I99BKUnnISE14MMH0wZQy5deCF7cMii8ZaE6iI0HGrKCcdRzLix4cmnkW1po2KLkNhokkZJbkwAM6Y9m0b7hs3Ipy39onQppk0unyLBRdH02gr4SShiPxcVk0w7zbpBAw/p7lakdm1Bz45GM/+bhlapESMfDmPWle9GIhQ00xZlHR4SqdOYdlp8RknuVGMECUYTX9Jo5X1VaR8qDGAngfFeeo6SWZMw4bRjMGPpEkw/bQkiSRIZnyebyZPU0ujpoBKlAkgl4uhtbUesowvdTa1IxOKmS4gjGESasitDc7R0wkS4SZqkSfh4H5a4wtPuQaS9Hc/c9CdE1m6AW2Y7fRd9mS3jr5EX+1751kCxtOr51U0xK3HN74R/2kSc/fnP4wuPP4j3/PbnmHLWmabed3cXGl6gpD9wKCBurCzLMAcO9JCxim438+2X4II//QEX3HoLJr73KqSqapiNWTgYmT0ZQ1Ho2zfBxoEiXFmJ0PjxKJ06Ge1btqJl+evIJRJIkUCyyRQcWh1exEanLhLZ5g6SmMjFwp4tPWRTaFu31phoMllNa6cyq9KQak5rHKBzF9ydzYjtajatil6ae5oXLTxzJiaefz4/bj6agKUI1NaaxgWpRxGd0t1VEmamt7KhmQ6cyDAuZuJLEmia929pacTOXdvR1duDeDqF5sY2dLZ10xTtRHsTSS6lejjGjfdOxZLG/G3bsR2R7l407WpETzsVZiTOuGXgKS2hMnRScfDeZpZNU0R1Wwt8ro0vvEQ52wyvBu2bHGt9mPtCE2+6qV77H38rIM3imuWrk5nupYUw/cyzcO0vf4EvPvk4zv3a11E2YzrTlJ7ojOBnvim6Yt4aLUyeM/lEb9zKL1Zghf0BMPiZgwFGSGMJGxYtwbn/+R2876H7sPi7/wz3kmMR47NbWbnwuNrs75Pb2AO1IPl8GLdoAVJM3Y0PPQF3b6+p61IRFYmJYPSupUjaN2yCK2GZXf0h/5qsMtXZia7WViuzMG/p06QsZrIZycCZTSLbug3Ork6kO3uM+VdSWwVnWQmmnn8u/BMmoWzKZHjKykxDher5zA0ZgJbZc4asui/T2M9MkSehpRJRQ3CpdALtnSQzmtatu3ahZWcj8rSBUjQV49GEFQgzvUxJxUddBTqp3tLJLHkqh2i0Bx3NTWjeto1hkdxMg4bqe+jbPLT50wd59HY0M+tq5uDiOcWsmFutY7qfVxMRmF9HL/TUe95CEU6U1o/DyZ/7ND7+6P344J/+hGMvfTe8oUq+j0NLKaPBIY2JEl7fRukyZT0/lduC916Hd99xD975t4cw5YOfRLZhCjJqItabo9lTzDw29g8emoFSJaWzpqFxzVrEN21CLhWhWch3q08t/xtyE0ge7Rs3GVW2p5CahDDOkJvMQ5JN05o1DIPHSJwZSj43P8PqHyyYa9M9JLjNyDQ3AzQHpWzKqquQKSvHtLedj4ZTTqHpwpyQoakbiZAQSXJUZupZ5KWagot2jcDf+kh7YvSTToJGDWoqaqkS/CQkmqtaJJrHopGU6QqiCv68Kt36IEUCTaueTKpBp+g0rXiacc771BigJ8tbE3FKThRg8ivJ0dkdgUfkV4BantPJiFF+msapmEelJlRneDTDJLFUGN+Onyp7zqUX4er/+zX+ftlLOPeb30LF3EXI+fzUt1ausT4BYwOF7Dkw1KTe08MvsXLJQYJC0mK/NcfOwln//BVc++A9OPVHP0TVBRcgVVbBs4Xvpf7s3tGrKzobg0FvyhsMomT6RFNvteWp50A7znqNBag7hxYrVknuodKKNbWYCvq937FSScXf+ie117p+I7w8rMr0TIakwmN7fdZJCslYC+K7NiKybQcyvSQ4nlP9XOmiY1GxeIHFWsxLye5O5KO9PE8NpbpYj2blrSQpi7iowkpKaNbw/sx7bpJXeUWlGW2gW1nFjMHwWjPGlcTT9/kEUZdiX4R4ykFi1TJ+OXVR0V14bVd7u85angrImbq7VOHXHkhxJqgCVYOuf4LMevdRMqll36QsQtUFeU8Q4+cfjwv+7Tv4zLNP4aobbsCcS97BjwTVtsz6wjdgLC6POCi5qQ/Snyg3m5tbGHPJ+GIm0mvYf+iGeg0qZOoxrzqX2e+4GBf++hd4z333YdG/fAPh449H0utDug+pFoudjcHhDQbMO6ubOweblr+KREs7Vdfu7rR8gXyf3GjFJwcLcdvadcjGNOOHqvxFK1YWtz4vKuDcl7RKp5BkPkjTNDSTTtKMTes6K+Dd0LApR6QRia2voWfLGvQ2NTPoHJwBL3KapNLpIiHlSKYptK9Zja5165BjOHkNhWLc1Vqao5+S+qlIuYJUmIqLC5FIj7WmAxWEWudkhpaWlKKsLAgvv5QOxl/jRMMV5aioqUVFdQ28VBPKaKqmSct8cLvgkllcGJWQ6OpGspMEWyydBWQzljm7B3pIOpKh3l8qHtnrvKZyMhXmRyj0dHoaK+WNyDWjOEqnzcIJn/00PnL/nfjwQ3fg1E9/1HTjyDmZlvwICVLN5sLi9/AQwgx5M+/divFIbjdoqojMpNoi0Qh9KQMcnNgXo1eEKSzKgczEoYnjseC663Hpn2/Gu+6/C8d+4fNwz5qNhL7XNEeYPa2LbAwIDwlEXRTKJoxD46o34KJpls2oXkrgW9fLZ1JmNSqA6q3x9ZUkL5pZ+tLwpEjNUjx7UkgqRSadO5lA+44dNBWzSFJ1dbZJ9ewNBaPr3ckupHesQmL7OiAahYMib8uyFejZvosEaJGJzN07P/tlvPAv38KOW/6MxNrVNCFp+jErZENhlM2dTzM2gFhXAq3bSazRBDKJGKKdPehpbUeyt4dKMo9SrxcBBhn2eFBVGkJJeRnKqirgVSsd76PyIEshT8UZrK8nEVFpxVPo2LIdLl4/IlqyXo/pApBLZqh8SbTmhJ7ZATcJ7kiFniPl0mfNhUBVLZa8/zq8/6+34GNP3Y/zvvn/ULtkCc3OEPnLa76N4ngLu3f22j08GNkNB01bmQtr167Fs888cxgj79AQNNMIUTFzNhZ9+Qt4z/134533/Q2zP/kJeKfOQNLDL4fis9sp19m6zvT78rpRNXUSYsk4Es1tyGtNzmLiaWPxCjppNratWkM11mpm5OCXzDqxG3v/VuumK5NGx9YthiicvKRxw0YW7P7XWZC55qTaS7duQWbnanizVGetTXjoi/+IrhdeNp2Fy2pqsOCiC9D2/HI89i/fwc3vex9+f/nbcddHrsGTX/winvrPH2DVfY9i5XMvonHzNnST0KJUWrlEEjU1FZgyczKmL5yD6Scci5mnLEbd9AlIZZJobW/G9m2bsGXDemzZtAmNW7agZ+N2xDsj6O2OoWn9Zmx97XVkqBg17Mx61oGfw4Lomv8KpVoCIplImBEXBjzs1joP1q8xCprwLB/6p63lcmbGEw/TYcmVV+Kqm/8PX3r9JbzzR9/HjHOWwl1SzkdXPag+eda/3RnoCIGjo6NjwJSVDPzGN74Bn4arkEA++IFrsezlV5hxtuDnP/8FWls7Cj4Hx8svv4wFCxYUfh0EpDNoWrkSGx55FLsefASpNzQFOguwk6qDmc/wnHLfmwlx7N7126OE4r9vnc9w8NK8dzGtpl2wFGkS3bq7H0Gut5uFUMpNYTJjZpjU/GiFyypMZbgW4stEorTR1KCQM1E3aoeuP3zhMAJzZmD+Ve/GEz/+H/jcTiz9+0/CEfaasAaCphrSXw2b2rZtM964/W9IMN9UNUxnXEvQ096Dt3/284iUuZChaemm8pTJl9u1A91r3sBOqs+0Oh4rYZm+6npRP74O1bWVCNAkDbNgatGaLJVHkiZSmoSKeBLJdBw5T5iEH8JT3/8F0k1tps5t+gXnYfw5pzO/yAKw4qxnLX4W9ewy0x//yU/gpdViZShZ5RkkeqLGbjD++Q49fj/8mueN/2S5R3rU4NA37ykNRQ5FQhAZ9j2/BwrTGoZUWF7xAKCwCrTbB9a9RWZ69tK6Bkw66wzMveRSTDntVHhKyxlLyyoqPuOBxmOkaGtrQ0NDQ+HX4Jg1axY+/OEPop7qe+bMmbjxj3/E+6/5AFavXm3mnRwIA+dKQhm2tr4W07Ri0KC+DjMo/+sXL8LpX/oi3n3PX3HhA3di3pe/BP/i4xHzlzCTu2hi7clOFvSr6I5OKCNqCu8sC3jppAlobWrhQevrvBeYuc1b4J9igVad2EhqMBRavKOThT9i+ilmunqxksrKTGEzCEy+EfHxHhPGTcS5n/4Uln7585j/rvOx4IKTcfwH3o5EkF+CbMa0vKqBQeTrGj8NtSefjXEnsODxOm/DBFTPPRZzzl6KccefCB9VW6ayHB2pGFo6WtFBVRjv7ub1JJqKWvinLIK/cjKeu+k2RLduM4Qpk9kSmiZS2tkHOh3XuhFSs32QJWmaSwltVWWTTaeRKag3o1QHIfjDBaWgYq2tPlQO80vxYy5wuFE6bTZOeP+H8N6bb8Ynn3sal//sZ5h1yTvhLa9h3DXTiQahm6xh5ZGjAIOmiBKwqqIK48aP44+x98gOmqeaH2zx5z6NK269Ge974B4s+PY/o2LpUsTDZWbiRLM8HB/Rqi4vZs+jC3oqMyLBSWUT9CNcXYnutla4SG4O081BnTI0LRGTWjlfrrAxplYhWYvFeaC3pHPq74beCCLbdtEszcPjcKHxheVYe+/jNBX31Qoma5mb8D93dX+pp3BJGcrq6xAcV4OK+gqkXRkqrQS6t2xHcsdO5Hq6kI/HkabaqzluIRZc8Q4spJtx4VL45s1CYsJERGtmGZcon4Z0+WTE/Q3ozYfQ1J1GZ0KLLMfx1P/+Cp3PLidXMh+QObNufvj8WoTGYYp80fWlMVXFdGzX82keO/XYchlDQGRXrFXT6zKFJkul2GcYm9tMAlp4ufuBAytdUt3Fj5S62GSRcTlQPX8Bjv+HL+L6B+/Dp554BBf+4HuYfv7b4CmrshoFmP6yeBzmIVlCmFb938mRDJNOA0HkVhz0bOX4sUVuBopX3sVCE0CYCvO491+Pt994I65e9iyW/vY3GH/N++Gc1GCGhwzcTfXIh3kqETkLcaCyUoINeXXDoAmqOjGL1viXDCP14lQhL6SlRhOMdNpsY3Jlc4g0N8OlriO8n5PHtj32DF7/813IJ/vb4jJwSLq8ZzHnqK7OSjP9UDeOHMNK0BxVR14fejrbEKHS6t24CpGNK8ysvJEtG9C7eSM6t6xG765NiNOlN69GZssaU5+X3Lkeqe5diMe6zZxx6e5OPPwv/4bW518wz6b511xeKhMSnN6PGrAGQ4ZktZXX+VIamSBQA6nLi2rSC9DVxoCTeuPLLp7x8GNb0MWjhq4atCAOAZVRpUtWrMTn0roR084/Dxd877v4LJ/jY088hrd9/RtUu6dq2Aqf3c/XLlLjHU1aSNtb+l5OyXK4oQ/KocLw7/TQ3fsgw6oe1pfaW16JiRdegDP/6z9w1dNP4KJ77sZxX/sKqk45BcnKan3b6FOGlr5TSl4rWYvl7kiDy+tGOpeCr7QUMZpV+ViSmV5f8CKNWQVBTuZTMT9ppXUpkJHAaorPI9Laph/mmLpRiLyaX1mFlbfdD0d6kLdnebdergQO2UEdjR1ON9zpHOLbtqLU5UHN+PHGvNaMHg7aejlnzhBfWV01qifORFn5OCqrTnjcYZrfMxCaNBNhbkvHTUVJSQXW/u0BPP6v30V603ZGkc9KQjMjIJgnNKA7QFUrFTkg6H/z8y8h3bSNP/SCmJ/4nBnNb1eMf38U3omgdRYORd5RmPpEmREVhY+D3rm2zmAQpcfOw0kf+wTe8+fb8JlVq/HuW27H/I9+EuEZs5B1+fgUmrNOnzdNUGDVq71VMGSDwi233ILxk8bj0YcfxXUfeD+Wvfzym9ugcICQ0uhtaUXLypex6akn0P7sc4hsWk+zKg1/zkp4Dbop9JXfPygDHsYGBfkOVpUjQyIYf/wShOcdg5W//TNcPT1UHYxIgcnUUVdO865pyh4RXby3h7caPrK6hxRPmOSZJ9loAkpT4KzT3Fom0cyLlmLm205HVpVQg71FRkcEozGuO19ZgS2Pv4iOVRsQ8ocw6aTj4Z81zVr0WYPzScTxaNT0l4tu24Gmla8j0ajGAQ/C0yeiqq7eBNnd2opOmrTOLmueOsWLfGathBUMISdzeP5sLLzychJrn063jItej2ZDaduwAWtu+RMcyTjNNJJ2zglN3KluL+Yb2A96QoUbpJntVn0biTQaixv1Z2HkDQoWNIp1oAYFVanQPGZ6yZKqGFePOr6nSeechQknn4yKaRNV4WopMo0k4MOL2IvX7g0dH9nH7HChvb3dNBIMh/1pUHhLkZsSVx9AOfVxSrGQRpt3oXXZS+h46nlsfvkVxNZtMHN3ycQodmpVhrA0kNW9VXsqv6aKRUpArog3gdzCdVVIkqQmLT0d7uoabPjznch3dTOCjG0hf4voRGiB0pLdjQ9x+hHhDwf5kAuWhFl+aOK63Ibs+l4pclM9zykfvhplcyaTXPYlN30/NAtw17adWPbHW9G5aj1NQL1ZqQspaBKm3qWbb5/h6/2aDrNMK3UQFmNZnXgLTscK0JAwKRrL7LQSxBcqgTNAU6wkhOM+dC08dbVWXZMgb/qe8ZpEUztevPFGODpbrZlI1KqcdSAZ70UmNnBa6Nk1eDwUIrmp6ob3jWtygmHITdf1zS56BNUDFsdkGiuCGVQ98LJ8Xl/DeIxbsgSzTjkRk84+E6VTplKxqUO09Y7M6mGF6820UgpPNxkQPPkWIre+7/moh8kCqihmCVHmUdeC8vFTMPOy9+Ck//oe3vfAfbjm+Wdw4s9/hgkf/Cg885eYVtiUg5kpS2FP0irmG704J/Or44CI7MBhig4jRc6B3+1HorsbLpPhiyctqB+c4qxRAoLVb0tueOzmARKoPgqGP3hTaTdRBXUF/Wi8aRYr7n4IzgEbGBhONoetr67A49/+PqLL18LP8q+g1Epn1fxo5hFqZ411TWn2kqRZW8FJE1tjY8V2Gvvp0LhU3ktLEcqp35amKXcZxWjBzBNHc12EOP2kExCuLawyb07S6YGyeSQ6uvDSrX8GRGxiBo1QIDto0Zms6tsGQZEiindULLT2g5GBg0B+jf/iq6dz0pTXO9AHN+N2GTKb+c7LcPZ//yc+9OwT+LvlL+Hdv78BCz71KZTPPxbO0hAvEmlq3Qg1ePDN85YaEqd1V031we479XcjS++jBYXUfmugmKeK2F0WjALgq6Ci0WpHc955Kc78zjfw7ofvxrUvPY+zb/g9pn/+8wi/7Vx4qsuQdGcQJ9OlXeqdVAzkzYGIxmrGd5iJGpNdNKOUwfuoGsFM7Kj6NjEJYZHJyKArTAHUJQzD0h8qlFZYFiyCS+xqwabHn7eUVh+o8WDHSy9j2Y9/DUdPzMRXV4tyTfxl2hHFukG5vpDiM+Ys37kaI8iyPCoiyZo6usJj7YbG2LqpMD1M07oF85Ay4ReyOy91UZ0ltu3Cshv+gHwjTVrVPeq90UktZlKavFP3GBnMt0LYHe1+ESLMWFuymBqxU/zIuEqrULl4CeZ86Hq846c/xceeeRaffn0FLvz977Dwox9H9bxj4fD7+dwMSwmtsKkotdXr6essKL7DubcOCqltYzeY/qYYMDMpK/irKzHlbefg5K//A9550x/w3mdfxEX3PoRT/uu/MfMDV8Ox6FikKipMMTNLl+l6FTYPFYBLQ5v09VcThvYZ/EF+48rXppGA23g0gnw8xgKwr+Iw2ZrKQASna6zB8qOD1IxljorULQW4F3gTjfPc/NRziDW18cDuUoe2xka8+pf7EKBSUdW2YHVRGSCcoaBLR/IOTanPwafV7ivKTIxNfKT2qAx3Pv0CXvrDLchrlIZ5FTpvxUuqVn3brJc2BHQLbjJ8BBGWZhhh8IbEREKGdAq/8/4gAjNmYNY7L8c5/+8buOrOu/HR5cvx/iefxEU//BFmXHMtSmcfY+oERYCGu4e7v40hcZCL2tGBYrE3mbQAk1/pnCWlaDh2EeZcfR1O+f4P8O4H78dVTzyJS+++C/P/898w7oPXouKEJUiVliHu9iDj9SBH8zenAdt827RurXqlgwVGTPUuWRbIeKdmoW3nsX2JyyI3i9jMWXOgzwOOADLXNFjaMnAHALnB1EVGE9j42NO8h26SR4ZE8dodd8EfTcEXLofbE6RHLQM9yhjskSgDwzyTRVBJdcalfw2VinZ2wk+ik6nb+vKrWPHrG7Hx/keA3k76VpgiWBnYMveYZjSFizMTDwfDtfSq6ZsUgSQVWcLjQ/X0OZhxwUU48f99De/4y8348AvP4KPPPouLqMoWfekrGH/WmfDW01T2Mk2KsnN0yWFjGLzFGhQOLTRxo7KpFE4qFkFkRzM6l68wc6btXP8Gkq+/gvyONhY6Fh5VkrF0q2BYudrqiaduEma9gn2wJ5msu1gFS0dLG2qRSCaQo0ox03h3RpAtTNtTKDaGSFQn5A6RWKgwkoyf1iK17j9y+DRzrocmlVONAFboMnE1TbiBwlNhD3hx6qc/jOCUBuxc8wZW/upGeFNSmCR6vp9ET4Skl1WVmCxdQ5pWfdEw0Jx0fb86fSDuy5gWQ6ti3eP3mdW23OEQvPwopWJxpOKFCv98saFAzyCy1jZj0i6uqY00u68hUz1l8TktJwM87+I1VLG+2irULZyP8jnHYtzU6QjPmY3q2bPgLQ2ZVl1Nr6/x0m4+mpv3UV2vgTaF3d0YNdsf+XhzGxSU35iZ9tTRvMXe/iigVi+NO6Q0gaesHBXHzMb0a9+DE7/5dbzrxv/DNS+/hPeuW4HT7rsTi3/8Y0z92CdR/7aLkJ0xHYn6CsRLqGZoj1gFqO+btirNrWZYba3zRRSXnMtH4nDE0yQJK7X6hqGtWgJNvZnQN4BRwKg3U4k/SD5QjpIISmfw2u1/Q3L9dmylivOYxgMpJG1Jsmb9AoZnIrYnnsNBJqO5ZigwPJGm6s1ycRFaHLE2DR1LwUVSc+wmtiKKb0qjDuIkuCyyzPNpKuCk24FUWRD5CfWoOfsMzPjwB3Dq9/4NF9x2Iz66ajk+tWol3nXL7Tjn3/4Nsz70QYw77TR4q2tU6cf35OHrcMOTE61Zc9Xthm6ppOzrRvoS3qKwXo9enFUNs3cO3xfDKrcJEybg0ccfxvuvvZZKTAPnN1O5/dJWbgcAJYyZZJE7qn+SaZTs7ECPpsLe1YSdGzejZdcOZNetQ2bLZqR5LtrdzUKp1kJ1UyF7SOWISOkCVRUmLKWz0i0R7UUuKX8W16jLgMpOIMgC52YhYxjJSC8cGao85Y9RwOn3wxXyws2CO6By6wsSkZtmudYadTECpqVWMs3UaWUZz6hZt1RzHmqSSPNMw8A8p9StdWtDdLv36TKGQPuQCOEKl5BMgzyq8E2nFTqrc2uGhJ8iWYdCJQiEQvAEAyjReOoJdZgw9xizFkXZpIkI19eZZQvNW2Uwqi3Ubflk5h429g+jUW7XU7k11NdSuc3FH2/6Pa65+loqtzVUblcUfO0Nm9wOM1QgVPRUzPTiVTSypiWP51S4eVAF2EHzy5hq6TgSJKJoezeSLe1Ik/CSO3ahu7kZ27dvQzTSAyfTIt/dCU2gbYbMkUQ0eWMiShWi+iOaubqXluPTvfJUejLRLLOLJEuyMStSCYqLxpEWfutvgTsMnD6SGwlA99AzqAJdRVz/jEfFXX940stD5vkYVk73lbkoc45Qi2Q6mUIqEuEP9VHTs1sGt8Ldi70E041DHwS+l0KXDvnWk2lFLjPaRIrStNjIWSQnP2l/AMG6GlSMa0CuIozScfWoqh1HwqpHYPoUOCc0oLSsDKFwpVl/wtyLt8+blgDGTXFRNNRqoGjpGRhJxbMQOxv7CZvcbAwIdZfQ4sn5RArZaASOWAwdLc1ooupL9HQi19qJ1Mbt3LaadQ0iHZ1o5/kYFZPIxU1CCmr5Pv5zZklJIkESnSEagYXaYVa7UlcTi1BkWmoWCfnIqSKJfpx5DTS3iMR0umWOKuonZa4941d11BrZUMx0eWeC6pEsyGcxQ4x4lcY/5IrTjfCYWQlLpOXwG3MxYcxKEnIggMraWpSV18BHcvLKTW5AaMpk5EvLUVLbgBoWHE9FuVkZ3xsImXGmatyxOvta2NONxCIxMyZVz1746OzVLUUErOPcmjUc+p4jTOfjfsdsDA6b3GwMA5HGnsJqNVnu7vxAJwNsT42PlFwyEkWyuwvpljbE21pN3ZQjEUeKxBfp7UVvTw+i3GpqH5mRmvjSzK1GkswnY/SfQD6WQJbXOOIxmrhUiPSX0dAsbosxEodofVIXzeG0zwOfFoPxkFwCPlPhn/IFzXAwp5cGukc972EWdS6rqjQziAQ0KsLnhSNQDr/WUqAJ7q+tNOub5jXbLsPX0xmG4sWiRN1XT2+Oy/UhGxMna3fUMAquABGYZhPuC6lm88HZTeY2hoNNbjaGwUBFtpise5J3N7kVnIFIgWRU+EG3x/9AkKozJqwhjL6Fu3j//vHog92neK2IQkRQUHKWfOp77b7xIMWaf04NoeK1e11R+GFoRfvmcu6YuGrfxljEgZLbqlVqLbXIre/HRyjmdxtHNFR6Vaz7Oh3bu1T3PbMbu4lN6HvdwE7mnOrtNDFo1uXt4zwFR2N3MOcsOvojQWmrwfGmnm8PTRWg33s7KTHT6dcQqxWj4jPpMYxgkhPnFg9aXm0cxZBaHqgqwCY3GzZsHJEw364BSK0Im9xs2LBxRKKtrQWJwiws/U1SYWTkViTHIVjShg0bNg4f8nj1lVdNw5cwanIrtvpYnKb2NpvcbNiwMTawatVKdPd0F37tixGbpeJFm9ps2LAxZkBScmos8SCw69xs2LBxROKzn/28WXrUbi21YcPGUYV1a9dh3rx5GGzNWJvcbNiwccRBXbhPPfUUzJ8/1zQm2MrNhg0bRwVEZXKa/VjY/64gNmzYsDGGoNlo+tKZTW42bNh4y8AmNxs2bByVsMnNhg0bRwRMl4/C/kgwKLlZAWlKGmtaGzNINWutWGnDhg0bhxMaLaW1bwdoFB0Uwyo3hbVvVd2+R2zYsGHjkONgkpsNGzZsHImwyc2GDRtHJYYmN0nAASvZRqENbdiwYeMAsXc/tpHV/A9Kbhqv1dLSgnVr12oBImuKe8FuUbBhw8ZhhvhIC6tpTR4jrUZgcw7qRUzZ1NSETZs2F48UtjZs2LBxeNFXuY2UiYbkv+7ubnR2dhZ+2bBhw8aRgyHJbdGiRXj72y8kaxYO2LBhw8YRgkHJTZ14x40bh27NUU4jt9iEYDcl2LBh40jAkHVul156KRYcu4CMZks3GzZsvLkwLCTGGiEdDWmW2rBhw8aRCpvcbNiwcVTCJjcbNmwclRgBuVmzg1hNCX1aFmzYsGHjMKE4S5GZnmiEPDQy5bY7rBGEaMOGDRsHGYbczHxHWbLQbkIaEqM0S21ys2HDxpuLkbKQXedmw4aNoxI2udmwYeOoxKjJzWpcsGHDho2xjRGTm9Up2IV8TnMe2SMWbNiwMbZhm6U2bNg4KmGT21GIZDKJrq4upNPpfjOYHnxoVSJNi9XR0WGc7m3DxljAEU9uKlzNzc1mYs2+TrMIaz46nX8rYf369Tjp5JMwc+ZMXPT2ixCJRgpnDg127dqFWbNmYdq0acbdd999hTP7B6WZ0q7oRNA2bOwPRkZuuz/+xcaEsdOoEI1GMX/+/AHdvHnzsGTJEnz8Ex/H8y88X7ji6MaDDz6IVStXGeX2xONPYMVrKwpnDh0ikYhJB7lMJlM4OnpIZX7rW98y6VZ0K1Yc+vjbODoxMnKjr7HchKCCrC9+XydTSYpu1apV+O1vfotzzz0Xv/jFLwpXHL2YM2eOmW9eKC0txZQpU8z+ocKhMHuVnkXn8/kKR23YGB2OeLO0P2pra00BnzBhAoLBYOEokEqm8M1vfhNt7W2FI0cnli5dildeeQV33nmnIXZNOHooYQ2JOThQWGXlZYVfgNvtRigUOuT1hjaOTjg6OjqGzJ2vvfYK7rjrTlx37QfwAk27rVu34je/+Q1aWzsKPgbHyy+/jAULFhR+HRr09vaisrKy8Av40Y9+hE996lNwuVxobGzE9ddfjwceeKBwFnj++eeNqdq3wOzYsQP33nsv3njjDcTjcVTXVOOM08/AWWedtZdykMn1hz/+AZl0BuPHj8dFF11kCEREsn37dlMQTzrpJLzjHe8w10l53H777XyHryGbzWLqtKm44vIrMHXq1EKIg0MV87///e93x3PhwoU44YQTzH4RUqZ33HkHPG6PIYYzzjwDXo8XDz30kLVaEI9dc801CAQCxr9I76WXXjL7imN5ebkxY5955hn09PSgrq4OF154oXmGovorQmEp7W+77TZs2rQJ4XAY5513nvmQyHxMJBLG380334wrr7zS7Beh9/Dwww9j+fLlptGhqqoKCxYuwPnnn4/Kij1pJyj9vvSlL5l9vc+VK1eaD5WNoxPt7e2or68v/Bocqtd9/weuQUN9HebMm4ub/nAT/u4zf8c821DwMQBEbkO5xx57JP+5L342v3z5svzPfvY/+a9+9cv5mppKEeKwjuSWT6fTh9Qpjn3v+ZOf/CRPEmJZtPDzn/98r/MvLXspn0qlzLUkEHOe5LiXn6I788wz8xs3btx9L5q7+f/f3nkAZlWd///7zuy9E/YGZcmuuDeOurB1tdVabR1t9Vf/2q0dtnbYXUe1VlHciiIOQAVkE0YSCJAEEjII2Xu8+/885743eRMS8gYSyPvyfODkrnPPufe+93zv85xz7rlkDaptZBF5/vKXv3hIOI7a7+yzz/asW7fOM378+KO2xcXFeT755JOOY+gttLa2eiZPntyx38KFC4/a53e/+13HdrJyPCReHhKfjnUcioqKOuI/9vhjHet/+tOfeki8u8TlwOk88sgj6tr45rV8+fKjrhMJr+eqq67yxMTEdKwjcevYh4+XHiweEvMu++lh5MiRng8++KBLPs8++2zHdr5WZWVlXbZLCK5w5MiRLvdEb4HEzfPr3zzuef75ZzzrN63z3Hvfdz179+45Sq98Q9C5pXrrKE+pYGPJkiVqmWGLbMTwEd4lKKvqgQceUNYEY7FYkJiYqOYZEih84xvf6LBKGD19biVkC4Mtve6wJcRWCbdcdofrAh966KE+3Tmr1YpbbrnFuwRs3LhRWYc6vP9bb73lXQJIUDFx4sRjVuj7vl3y5JNPYu3atd6lTnj/P/7xj2Slb/Gu0SzEO+68o+M66fAxfPjhh6qOsydydufghhtuQGGh/nnIrrAluPimxV0ae6Kiorxz2jXgIAjHQ9CJ26OPPqrMXK5MHzt2rBIaJjQ0FE/89gmQNaBcPXb7fvOb33R0NZg9ZzYKCgo6XC9riFaoeH92qXqCXc07v32nEsE//OEPShx1OP0pU6bgvffew4oVK1TXDJ28vLxeC7wOC8fNN9+sXDOGRZXT0tm/f39HSyKfD4sw599dNH3dbx9tUyLGQv7sc88q4fzOd77j3aLlxcfMaXF48cUXUV3VWVfJ7iiL2vPPP39Ml/EXP/+FakllWKR+/vOf44s1X+DPf/5zR32ord2Gh3/0sLqWjK+4sWsvDQrC8RJ04saWVHV1teqWoFtZzPXXX4+vfvWrHYU9NzdX1Zfp/OIXv1CiyJXYXB910YUXebcAa9as8c51ZebMmfjnP/6p6qh++MMfdqkTs1gtWPLKEpDbhssuuwwPP/ywd4smit2toJ4YMWIELrjgAu8S8M4773jnAHLnOqy0hMQELFq0SM13EbM++Pvf/467vn0XFixYoCw537oPtkx1PvvsM+8cVBy2hrlu7lvf+pY6x57y5L6GLPo6t9x6i2rQWXj2Qnz/+9/HI48+4t2i1c2y4DPhEZ2NQCyILG79OSdB0AnK1lJ2z9hqY+tNZ+nSpbjyyis7XChfYWMe/OGDSqz0sGnTJu8WraD2xDnnnKPEUIfz1MlIz8D4ceOV5cMi67uN0S2Vv/39b1h05SJ1bL6Bj48r9dki0+EKebbYOD22LnWuXHSlssL6IwLcIMCdfXVLj5d9xY2FU2+U8LUyWQjj4uPUNm604f6EySnJ3q2dcJWAbrUx7KbrefH0sksvU/MMW8+6uPFxcLoMN4ToxyAI/SXoxO2RRx5RIsAtg2ydccupTmZmZof109jUqKY6Bw4cUPH1wC18Ouxi+lqBOmlpaaogssDx1Ld+iN0u3erg4CuCOrw+JzsHq1auUq2WvoEFlQs2i4Lu+vFxLF++XLUg6uLM+X7zm99U8/0RNz6+6KholQfD055cQBZhu93uXdIsN5NREx8mLDQMUZGdrqQOH6uvKHVvFQ0NC+3Im+FWbyY8LLxjfXRMdL/OSRB8CTpx48LA9WtsAXAfr1/96lcdlgDDwsdERkSqqc6DDz6o6oR8A7tRHL7+9a93KYg6R4mBTznk+Bz4eDj4HoMvLHpcV9Y96IWarU+ulNfhRhCuD9MFh63UuXPnqvk+LRyfzZwvXyeGhZvz62l/Pm7fY2d3Xz82js9Wl6/46XBdoe81YytOf0CovNyaRatjtmjiz11s+Dfj+tD777tfrDbhuAk6ceNC61sguMXSd1kvUPwepC/c2qiLmR50kfMVl+5wAeY0VR49lENd2HoSR96HC7GvxaiH+fPnq+2c9m233aYEj2H3zbeVlOuyWKR0wekpn97wFSlfofGF02MLVYf7yfH7qrwPh7KyMtWa2h22NvXGEGbN2q71luvXr/fOaXmMGa39HvxQ4tZkrsM81nUXhL4IOnHLyclRrhu7n1xJ/rWvf61LweXKfy6U3LmYrQSdH//4x8qqYzeMtzc0NqiWUha53ro6DARcV8avSHUP7Dbqx83HyvWADB8Lu6UMu8HcXUQXqePBn30XLlzonYPq6PzEE0+ojs98HFwNwC5od9h9/cpXvuJdApa+uhTvvPuOEkPugsLdTXSGDx+uOikzLOzsinNHa05bb80WhP4SdOL2n//8B9dddx0WL16sBKv4ULF3C1TXjGuuuUbNc5cDbrHTCzdbePxGAsfhXveTJk5SLZVPP/10j4X3ZMLHqNerMSy+DHfJ4H57+vJgwGlz3vpbDrz8hyf/oBoS+EHBLnJvsNWru+7cv4/flpg6dapqPS4u7vxdOJ5umT733HOqlZUtVG7N1RsaBKG/BJ249QS7Pex2cj8xvZ8bh7u/c7eq39H7tHE3Em5Y4FBVVaUsJ6NJqzs7lfCx3nTTTR0Co3PHHXeoKR/nYAgcp8l5s+A//vjjXa4DNwBw52YWqrnztDq/7nBd4H9f/K+65gzXs/F+ekux3veNRU+nN/dYEPqLiUz/x7zzPVJRcQT78vZh2tTpKC0pQyO5a9wS2dp6dM/87txzzz3qfcXBhAsg9xmbPXv2UWH+gvnqXU52LX/yk590eQeV4cLK3Tn4XUi25GJiYlQcri9iN5A70f7xD39U/c0YPS/exumff/75yoXU4RbYlOQULe/581XauuhwpTsH3jZr1ixldemF3h+4Xo2PkfPjNLhLBl9frs/TRYhhK5PPi+NwYPHRGw64MYAbKHg9Cw+/ZM/76cfI1tW4cePUdnZFZ8yYodZzHHYxObAwcRr8Pum9992LJ3//JEaPGq2OjffjNPU6Ot5v8pTJSpj5uvJL8XyNuRHk2muvxV//9le1jc9BP35+h5C7u7Dwccdirnc71Q8XYfBgg+JPf/qTd6l3+H3k6dOnISoyEonJSaqXwby58xDZQ0u9jp8vzi/D7bd+A5s3bUJpacmQenF+oOHCqxc0nurzQif6NdFFsT8oa5jEyleQe0JPW65/cDOYL87LI7EbessmBylYPcPCczzCxuhWWF/XlrfL9RdOBBE3QRCCEhE3QRCCEhE3QRCCEhE3QRCCEhE3QRCCEhE3QRCCEhE3QRCCEj/FTfobCYJw6uDO324PTWne4+cbev2z3Do0TsROEIRThJ/9x8UtFQQhKBFxEwQhKBFxEwQhKBFxEwQhKBFxEwQhKBFxEwQhKBFxEwQhKBFxEwQhKPFD3Lp32FV9hLVZQRCEk4Aa/dnlVh8ZMvhpkh2HuAmCIJwKNKPK6Ke6iVsqCEJQEhTiJh8TEQShOwEtbixojY2NqK6uVoE/E8YfCj5RNm7ciH/+85/Kz1+6dCn+8Ic/qG+OCoIQOAS0uLH4XH311eq7h3p49tlnu3zE1/cTdDzfk4Xnu47jvP/++/jrX/+qhlnh+aeffhoOh0OsQ0EIIILCLU1OTsbKlSvx6aefqi+UZ2Vl4ZVXXsHmzZvxxz/+EW+++SYqKirwr3/9C0899RQqKyvVfjz973//i8cffxzPPfec+po8C9hFF1+Ee++9t+PbpXpgfOcFQRi6BIW4Mc3NzWhpaUFoaCg+++wzfOc738FNN92krK7bbrsN8+bNU1bdj3/8Y9xzzz1qn61bt+L3v/891q1bhwcffBB333O3Wv/G62+oeAx/gV4QhMAjKMSNLbDrr79ehZycHCVITqcTT/3lKSxfvlzFmT17NrZv3445c+aoOMwll1yCZ555BnfccQdGjhyJzG2Zqm7N160VBCEwCYpSzMLU0NCA+vp6nHvuud61wJQpU5CSkqLEavyE8bBarYiPj1f1ZzabDddedy2uvfZaLFu2TIka17eZTCbv3uKCCkIgExTixsK0adMmVcd2+PBhJUgsUlaL1RuDhMrbGVkXKxa3bVu3Ye68ufjd736HkNAQtd5XzHwbI3R4XU/rBUEYWgSFuJWXl+Pyyy9XgVs3GfVBCW9gureghoeH46KLLsLaNWsxf8F8JMQnqPV6fBY5Xu5L7ARBGJoYamtrj1liueVx2fL3cPutt5NltAmlJYfwwgsvoqqq1hujd7iOa9q0ad6lwaGurk7Vr+kiFBERoercuIEhITEBZpOZjrVKiVlkZKRyXdktTUpKgt1hR/GhYsTExKjAfeYSEhLQ1NSkLDuOw+4ux2d3VuriBGFg4b6p3IWrL8aOHYvbb78VaelpmDp1quoN8cD9DyAlJc0b42gCvrTGxcUpEUpMTFQhLCxMiRhfMIvZokSPu4rwOiY2NlbFZ9htHTdunFrm+jjen+NHR0d3xGHR4/UibIIQWPhXYjtsO65v8s4KgiCcbPqhP36Jm/4RVDcpm9PF9VnasiAIwslA95xUvbia65v++1piuQmCEABIRZIgCEGJiJsgCEHJcYmbT9cvQRCEIYlf4qZG9fUKGgubiJsgCCcb1ZDA+qOW+sY/y62buA1FuBWFW1Q4+L5VMBBwenraEiRI6AynAn9Lt39vKHz4Hm6/7XZs3LABJYdK8L//DZ03FFwuD1pa2mG38YvvmhB56J/+LqkgCAONNsBEZGQYLNbOgSaOB3/fUBg/fjxuvvVmpKelKk3x5w2FgBY3fs2qtrZevXVgMVvpbDpPRVxnQRgkyIpwONyob2hCdHQErCcgcIMpbqfGrhwgmpqb6eJGwmKhi2vgQSXZK9eCxyNBgoRBCfTPbDEgLi4KzS1NtG5odn4NYHEzwuX0qHdCu8ImmwQJEgYvaJhMZrhd7gGv4x4oAljc+IL21HjATxEJEiQMXvBFG9B1KApcAIub/m2DgPasBUEYJAJcGfhpMTRNYkEQTi1i9giCcJx0uqgnq1GhP7n4J25OSpQCD3U0dIY7GjIHIginKZrU6PVtx1Pv5q8ocjwDBY+3Nsrts5v+aYDuiOUmCEJQIuImCEJQIuImCEJQcpqLG/vqTgp6t5LTk6Haw1wQToTTXNy4UOvBX7jStL/7DGX4fIxwOFjk+R3BE3sRWjj98G1QOFUjhfTEaS5uFhQWHoHLafYuHwsDSkrK0NJso9lgsfaM2L//IJ2ZAXv3HqBlvkn1IAiBzWktbvzAqa9rVV/1srmMsHvcaGi1we4ywGPkL84b0dhiR1Ork+IYERefAGuoBU6XCU6nEU2NtC95tna7G82N7fC4+XKyRadZPzxnd7lR19wGh2qt5u0kjCSOnLbN7kFDI+XnMJCDbFTxWyg/O61n3G4XxVOzamgnF+3a1YM0oLXVDpvN2xRO6Topo2Y6h3ZKw03H0dTaBhul76F5Hgiqpd2G5uZ2tS+75enp6ZSPgSw3ljhOvOdmdUEINE5zy40LsyZIWVmHsHXrAZSWNGH9xn0kCB7s3FmAQwdrUHyoCtU19ThypAZtbU7kZBdh0+Z8lB9pJVHwYN+eUpQdbsSuHftJMzg9TSBqahqxbVseyspasHFTLtrsbPGRqJCw1de3YMeu/Sgvr0P+gcNKJLN2FqHoYB127ihQ+5aUHEZDQ5Pap6mpFQcLy33EzYDdu4tRSPFzcw7TcTfC1m7A6lXbUFRYi+07D1CeeSgqrsPGLXvRarOjtqEeBwuqcOhQHXJyClUqBQVkudEhay4FvyPI82qTIAQ0AS5uXcyY40IVZhIjl6cVZ04diwmTE5CWHoEmcj+dnnbEx4djwoQkxCeGk/XGpZ4sIo+T4o7ChEmpCAkxYdKZGUgfFg+Hk1JysbtqV2kXFVVh9qwJmDg5GWPHD0NZeTXtrR2zi6wys8mMESOTMGXKMLKmmsjKa8PosXGYcsYIEtRKZVFB5UnpunmkYfrBvL+YzeZAY30bRo2Ow5jx8Sg/fJg01UDHG43JlN74cemIjg7DpMkZGDEijqzMNvV1/nHj0zF8RCJZiCy0dDR0HBp0XCJqwnGgN0jxdDAbp7SyQ6EjC+9yLwScuLGFoVVgDuyhc0VoeJiVrBiDEh12CafNGI/m9lZs3ZaPhjo7XUZ2VQGL2UyiZlE/ZCkJVvbuQrLq6sk6YqFgl5Tr8DSl4LHm+HjDwkPIsrLxODGUmRvxCTEYPjyNrK9DyN1TBDu5lo52D8pKyyitCqSkxmhpKEtQ+xGNRrM6TsbpdJA76ySLrQoVFRw/jiTag5BQK4wmOlLKxhKijZpiMhmV632g4BD27juI8oo6ElcHpdJ5nILQfzrLoFYmBw8e+VcrDlwWKN+O7NwdZaI7Pa89LdGvFl8SFgUSBCr8Y8alYvwEsrrK6pSw+WLwuFFeVoHJk8ZgGFlHNlu7ci/1tCxWC7mXTfC4nCRa5WRVxah9GKfLgcSESMyaPZ4ssGYS1kgSVQvGjiOLcMJIpKYmwmoJIXe0TdW3VVXVwO3kwQK1gwgJMcNsdmH0mHSKP5assVT6kbV8+a+BstGW+EZgwTWgorIJU88cj5TkWBJTzXIThGDltBY3ForYuHB4TAYk0JS1wUSSFh1hRZjZiAN5xdieeRAHCo9g+OgkRESZYLQAseSqmizc6GAkN3IEWV+F2J97GBnDU72KwgJmxOTJw3G4vBI7MgsRaolEcmIcbSKLz21GY2MjsrL3IHtXPjIyUhARacaoMcnYtasAmdsOorqyDcnJSaitbkZ2VjEJpInihFO6mmSZSAinnDGK8t6DXTsKSTzr6fiNyiJkzbJYjYiKClWxIyNCEBpqJgHMwLZtBcpdTk1LoC1sQUbS1IO42EglzCzq3UVcEAIR/76hsOw93Hbb7diwSfuGwssvn7pvKOjmLwsTV7onJJBgHGe3DP3EPQZy40iouL2QlIe8RrbaVE0cZcitjFTqPS6YVN7smrKDSvPqULy1aLTN4+I0eGRSXqF1LzGSGc3xWe4MHv1Zoq8jV7Pjuw9a/ryrFluH4rLoGEl23exisvXWuV0TI66Ts8NsofQpDw8dq5tbbmkbu9lk+HEy5K7y+XjIaiTXWz3XaJn2NdA81+mx+8rWH3+bQu0gCMfEhOrqanoIJ6j7Wcd3vi94/7S03r+DoDNx4kR87ebFSEtNxfRpZ+HlV1/GD+6/HykpKbSVPZOjOa0tN02q6CKQGvGIA0pF6L8uLka6aEYWNdpGc0oIuMxrEkTwb0jrjCSA7AaajOz/80q+rDxlkeHuHCx4nYLE63mZxVI/Bs6TxVTLm/dltHQMRnYhXV6hVBs60G4krfOkh0wvzo+FysCCzWnROu34KU/WNqcRFhY0WmdQwqZS8abNx8rpdctEEAKQ01rcOmA98dEUbcLWC4e+YVFRU9qRrSgthW7WT0cfON80tf0Y3qr9GPo++pTXanVm2jqfNDvQuph4PByP6wv1+AzH78ynMw3fdDrnWRwFIRgQcfPFt7yfED0lxALTTfD6RI+vC5uPAnfQn/QE4fRBxE0QhKBExE0QhKDEL3HrdHx47tS6QVzh3Z/WGEEQBgvfutyhh/+Wm14/PcRPSBAEgRG3VBCEoETETRCEAWGoVRkFvLi5XOImC8KpQnUeH6J14AEsbh5ERISjtbWF5rUKQX4VaTCCln4whJ7PT4KE/gTtXgLa29tpWZsfigLn17ul7y17D7fffjs2bFyPkkOH8PLLL5+yd0u7YkB9QwPcLg8sFitdaGlFFYRBh4TMye8fewyIjeOhuY7fexrMd0sDXNwY7UV2HrxR9VLhB0nHO5MDg7pAA5ngKUK0XxgYDDBZTDCbWVRO7HU9ETe/UKqmzRIDOXjeUK1TOB4Ge1BBIXgZjHIgo4L4RdcLz4V4oEKw0NO5SZDgbwg0/Bc3Vu0AsmDcavifgQnBAj95ezo/CRL8CacSZTW6DWpUMn/r+PwSN02zA0vcBEEY+vhrEWouMcelac9e6FEEkVsqCILQiYibIAhBiYibIAhBiYibIAgBAn9jhP/5h4ibIAgBQX+EjRFxEwQhKBFxEwQhKBFxEwQhKPFL3NTnMHnKwedr54IgCEMV/y234HnFUhCE04CgcEsD8aVeQRAGF6lzEwQhKAkKcQuk8dYaGxtRXl4Op9PpXSMIwmAQ0OLG7uhTTz2F++67T4Xf/e53KCoqGtJu6r///W9Mnz4dhw8f9q4Rt1oQ+oINGJeLjBj+z22aftgzAStu/NUd5v3338dLL72EnJwcPPHEE7j44ovR1NSktvEF4Y9Y8FQPDI9NZbfb1bwOr9OtKT2evo/bp4VYLXvHttLnHQ7HUeNd8TZe7+Kx5gmecrDZbGhublaC5itqInCCcGz621EjKNzSYcOHYc2aNfjJT36CQ4cOYc+ePfjoo48watQoxMXFYdiwYXjjjTeUeN17372IjY1FfHw8LrnkEtTV1eGu79yl1nG44oor8K9//wuJiYkqndWfrUZKcooaZp3F6aqrrsLliy5Ha1srHnzwQRWP8/jGN76hRHXdunUYPmI4fvnLXyIhMQFvvvkmPvjgA7UuOTkZK1as8B61IAiDSVCIW3NTs7Lgli9fDqvVitS0VMyYMQO/+MUvlJjExMTgN7/5jarrWvrqUsycORNvvfWWEqyqqiq8/trrmDt3Ll5//XXcdtttuOjCi9Da2opVq1Zh5cqVygr74osvlCvJIjp/7nwlWuxi3n3P3Xj00UdVev/4xz+UBXek/AheeOEF3H/f/Sqvhx9+GKEhofjrX//az7fjBEE4XoJC3CorK/HNb31TCdWf//xnDMsYhq1btypr7f7771eixBX5bJktPGchNm7ciEcefQShYaEYPnw4vvKVr2Dt2rVKDCMjIzFp0iRl9a1evVrFveWWW9T+/3vpf8r6u/TSS5G5LVPl/fOf/xw/+MEPkJ6ejs1bNne4pz/+8Y/x29/+VlmNBw8exBWLrlBiymkJgjD4+Cdubq7F0yZa0T319UO+dVwsIPl5+di1axfuuecetLS04N5771WC9M477yirjOu0WMzefuttLFmyBLZ2G+679z4Vh93GF198UbmV3/3ud5Wreulll2Lz5s3Yv28/Fi9erETwxf++iKSkJPVFr5CQEGXR1dfVq/q7trY2REdFd9QFcjzOk+PxtLGhsWPaE5yWIAh9weXEv8o3vy03lVyHoAyNym9dENgV5U98RUREKAExmUwICwtTbihbcps2bVJxiwqLVD0b14uFhoaqePn5+WodW12cjsVigdlsxuWXXa6Ej8Vp6tSpWLBgAUpKSnDBBRcgKioKX/va11QaXEe3aNEi1NfX42tf/1qH6PJxMJzehRdeiPfee0/FZVeW4ePRj1+ETRD8gIsUBVWy/JCggHZLWUiuu+66o1y98PBwPPvss7jooouU6LF7+q1vfUtV6LM4NTQ04Oyzz1aCw1bYeeedh7raOrWNLT0Wr/PPP191L3nooYdUnR3XxX3ve9/DXXfdpYRr3rx5+OSTT1Q6XK/G1t9VV16FESNGqP0mTJjQIVrPv/A87r77brWOrUa2DjkPQRAGD/8+yvz+u7j11tuwniyekrISvLpkKaqqqr0xeufkfpRZEIRAo6amBqmpqd6l3hk3bhwW37QYGcNSlTGx5JWlp9NHmQVBEDoRcRMEITDgXrzkZxr8qXAjRNwEQQgcVCWaf7Il4iYIQlAi4iYIQlAi4iYIQlDin7hxxzlvHZ6Hhx0RBEEY4vjXz235u7j91tuwbs06FBcXY+nS14ZUP7e2NjvsdgfN+fZ3GcoiLA8IIZDxwGIxIzTUCqPRv5bL3uhXP7fFNyAjIx1nzZqNl19Z0mc/twAWN+2i1tTUqtel+HUrk0k7Fe3VJjU7JDEYRNyEQMZIxoQHLS3NiIuLpfJ3/LVbIm49YlYvyPNTJCJCe09Uf5+TX8vyfbFeEISBx+FwURlsR2xsJC0d3wN7MMUtoBsUWlvbvBYbCxuvEYtIEE4W7Jo6nTzS9Im5poNFwIqbfuAsai4XDxHu8ganWG2CcNJwd3hMjO/8qSZgxY2voXfoNEIsNkE4+WgFkAVN1zQRN0EQhEFGxE0QhKAkcMVNulMIwilGL4NDs467X+I2lORE68fG/r00HgjCqYELoS4hWl3b4DbmGShHypP++1Oz55e4+Tt+0slnqB6XIAgDDTdWKHGjYj9g4iYIghBoiLgJghCUnPbipn9ntGd045frFjze/jy+BjHP92Ug877ci7u3ugjexnEGgr7yGgj0PHyP25/rIAgnl9Na3LhRoqKiHu4uwzhxIeV31Thol8dg4KlBfdG+vb3dR+CM3cSuJzhtFhvfPHw5lhDpx6GH481roIWH8/A9bgP27S3yzgunH73d26eW095yKysth5s/pe/F+3F9gv+6lLB5PAYlhEYjv8NqVPG5UUhvGeJhX/gfW4G+liCPTmIwmGhqpSWzttILiyKLqgFW2m5S6enfOdUEs1OQOluguqat0zmv5cXpcRraegNcLkqL1unH5qJ89W2acDN6fA3tGOjc3bSd9uXtfN58LQyGEFrmwPty2gY0NbfRvHC6oT/b+X7Rw1Chs7SchvDvoH4Lgxu5+w9gZ1Y+dmXlIjNzN5wuNw4cKsamrdnI3LUHVTWNaGlzwObw4MDBUuzcdQA5e4rQ1u7Gpm0F2JZVhJx9ZcqeMXoFo6HBhm3baduOvThYVKnWMawhubn5yNq1D9szc9HWakPxoTI1Jh1vq66qQU1NA1rbHcjcWYCd2bnYn1dMcquJD4tUwYFSbN2Rhx10bJk79sPh9KC5pY3yozR3FKCgoIrOy4jsnEJs35WLrbS+lY5/z55D2LkzF9u370Z5eT2KDlXBRQK8J/cQampbSM6NyMk9gCaKu3VbHp1nPnbQdXGQIFZW12NrZiF27qDtTW3I3X0IOzL3YMeOXNht6kKq4xOEocBpLW4dUJlsbHYgY8RwTJ9xBsLCokgonDhS0YpJZ0zCjBkTkZgQS0LmgovErb6hBenpiZg2bSSsZMDMnjkBM6aORgtZL/wSv96/ODomDGfNGo9pMyahggRLx+Vyoa62GWecORlnzT4TUVGhlHY7WUaaJcUDAPBwMtYwE6bPGo3pM6egrq6VVNGbANHcakdqWhqmnjUVSakpKC6uRGREKOafNQlzZkxAQ109CTQda2MDptLxnzV7AiwhFtTVN+HMqWfQ8gzExkeTYNXB5XGTy92E0sOV5HY7SMjMyDtwGOPGj8CMs8YjJi4cZYer0W5zIzTcSuc9hkTYSem7MIOObeLE8V5ZE3EThg4ibgy5XkajhUQmnIwdJ6yhFhIYN6acMRr79x7ELrJU2m1OzeSiAmymuLHxkXT1PCSKZC3t2IesnAIlHPxtRWXD0J/KigZs3XoAuXsK4bDrriU5jyYLxo0bg+ysPOzOOUgWm4v287p4HfYZUF/XjkyyCnNy9qKhmdLu8mu5EBMbQVMHomJC0dzWjMqaFmzemY+dewoofjMlZ8TYsRnYmbkfeXklKvkJE0ZjF1ljfExmCwmpy4HKqnqkpqfASZZjRUUN4uNj0NLkQHR0GO1iQEJ8rBq3y0jnm5wcA6PJgMbGViQmRsFgciGcLoXZwiMhi7gJQwcRN4bKpIHEwkQmF3cTNBipoBpciI4Mw+xZkzF8WAoKDxwh3SKBo+1GE4kh7+QxIH9fPqZOHYOp08bBaOaEtAJuoBgHCw+RRTcWUyaOhsfVWSdlIDc4MSkSs+ZMRFi4EYfLqzSLzeEk/fSglkTNRWKXn1eEMyfT/pOnkCCGctYKVTdGeTc0sICZyK1tQ0hoCPbl5+GMqeMwhYLREkbxDEhNScac2WdQ/g7UVDUgKSkac+ZOUqMWV1dWIzE+Hnm5pRg+PJpEMhrFJdVK3CLCQ9BO6ar6tPoWRISRierRrhHfNqEhIaivbyYr1UQuKVl7DhutH8iWX2Hoc+IPM9963oHmtBY3vq4mk1kVxzCrUbVHcuW5hcWLrszu7GLkZOXj4MHDSEmLIuvEpATMGqLUkASJLZk07N5ViJ3bD8JCFp36sWibkUQugVzZ7OwD2JtbjrDQGE5d4SDXNjt7H1ltBeQO1iI5KRYZ6anYk1uErKyDqK1ph5msu5TkOOzeXYDsXUWwUt5ddcOC0pIGdXxlZRUkTulISkwha7AAu3YW0f4hsJHo7Nq1H3t2HyAr0E7nFUrLB2ifAjQ12clSjUNKahwsFidCwoCk5GhKl1zPUDNGj0qivA9Q3gWoqW7GsGFJdLO4YfI2SsQnxJML66L0DmJP1mFKK4HWiridXpy4uA0mfg0zvmz5e7jt1luxds06lAyRYcaNZLFUVdeRlUGukddaOh64JZHdLT0Nj2oS4HkuxB64nE4lgGxtkc2m1vF2FVtZMQZV96TWGE0wkXXDaaktZI1xyyQvcx76U0pv/eRtJt7H25DqpmPh/FXrLKXNOqJaK2l/A7u7fJwUj9PdvmsvJk6eBKvVTtaUibYbVZ4utzc/WsfHx9amauE0aeLIjR1OB+3DiRu5hZR24vW8mabcWszzBjflRCv4WNlS5Xw5Krf+duxEwemkc+D43usnnE6YUFNTR94AP7j5XuJ7gm8PbeoP1dXVSEtL8y71Dg8zftNNi5Gankze1Fy88soSPBDMw4wPBOyeaeVSK6wsUkpASGRYasxm7lbB23i9V1y8cbUJxSGhMJFQmFgYKTFezXhIkDThZMHS19JFp/gcLGwJerWCA4sXdythsTDTlCXFROtMtD9rkX5kjNViVYLCFh7nbSGLkj/UYbFaycK0kIVJeZAomSiemdbxUOwmPhc6RgtNOR/+8U2UHEVTOs3L7Fkb+TT4XHmbV9gYNSXxZuuOZniJ8qSjEmEThiCnvbgFIiyUkyaOQYjFKyysM6w3bLWRpdUZeLlzHZlhmooKwmmAiFuAQsYX/XgkVKxX5Lq6dO2iP70FFUEQThNE3AIY5QB79UrsMUHoioibIAhBiYibIAhBif/i1sXvESdIEISuOsANXf3pBjLYHKflNpTEjfu48GlIdwRBOLloOsDdioYige2WqmurC6142IIgdBLAikCipjrHcnOhWG2CcDLhTujcxXIo998OXHGjixoSYkF7u50W2HrTLThBEAYbfi3PbudXE7WBVn0HfB0qBKy4ccVlZGQE2tpa0dLSAofDqd5zlCBBwmAHN5U7G+rrG6gMhnsbEQZf3LQGC+/Uu+5Y+P/i/C23Yu1a/cX5V9VoFn0xmC/O6/DJtrW1K3Hr6NGqNFvq4ARhsLBYjOQ5hZDldmJ+aX9enF+8+AakpqVi9uw5WPLqK/hBHy/OB7y4KUHjt77V04Pga61mRdwEYfDggnbiFW6DKW5BoAB0gT18kflU6CQ9PH6QBAkSBjboXa70cOLCNtgEh7gddcF910mQIGFgQmDRvyNWFXrH9GKHCHyMXP8mQYKEgQuBRb/lWBO3QFDxnn4cCRIkHF8YHKNmMAc6DTxbUxAEwQ9E3ARBCEpE3ARBCEpE3ARBCEpE3ARBCEpE3ARBCEpE3ARBCEpE3ARBCEqOKW6+byPwnD7QSGC8pSAEK24Y4HKb0O4yod4OlLcZcLjdiCN2E5qd6muuFMPT8TKeEBx46Jfvj/Qcl7hpS4Jw8rF7DKhr96CwoR1ZR5qwqdyBLRUebK8AdlLYWglk1ZhQYTPDRvLmFoULGliPNB3iNyb6RtxSISDgm9rp9qC0pglZ1TbsbTSi1BmBZliUJef2uOFwudHY7sahBhcyK5zYU+9BncvoZ1EQhjr9dRhF3IQhDY/Vz0NZtzvd2FdrR36zFQ2uELLKTEq0jB6TckF53kVTWlTWmo3+FNd5kFNtRLWTxE+lJpxOiLgJQxo1Vr/DjgP1TpQ1AW0kauxpWukpHkKKpWrYeIUeGL6rad5tMKC+xYW8OgNZeFpdnHD6IOImDGk8ZLlVNtpR2mJAq9EKj8GkRMpF4uUysrAdwyajOFxLU93sxoE6wG6Q2/10Imh/bR5KRUKgB3IvHU6UtpLF5ubRYHXTrH9wXU15kxuNDnZg/aP7sQw12F3vK/QEn0tPcf0JgUbQihs/seVfYP9jVWppbUe13QT38RYu7252lwdVZMF51JD0LHHHDvw9XN/QUxwOrHu+oac4/Qn+pud2u7oEDwV0Dz3s1/28+hO6pjX0CXxxU3eAmZ7pJjobuugcTBKCIXjot622AQ6PWf2s9GPzn37A8bV9ePcjdg/aTN5b3jcv/b7xBo+BxIPc3a7BG7dLoHRpvW9QJeqoeH4G2veo9LiBxEj5+wQ+RkO30Ck6ncFI+/cUuHnleEJHGtpJUhja8nHMr19xZW5OTo76+tUt/PWrNV+g5FAJXnvtNVRXn+qvX/Fhk8tAU7fTCbfdQReeV/W3AAhDE/p9yXLbU96IUls4uUXkluq/rb99AnzuBd6Dk1iQZkGYx07btDT4rzLm/KBn16yHY/Hz8I6il+NQRlgHJE507L6XgHcz0kl4T6kDfjj0sFILJwDvbjTTA8diVrJ3Im57TU0NUlNTvUu9w1+/uv6Ga5GWnoE5c2bhlVeXntin/TRxyyZxW6aJ2xefo6S4BK+//vop/7Sf2+iE0W3BDjq2j375GJpz82ByObxbmeO9w4ShApdp27gFKI0bC48plO5WrRD5U5T41+96B3hgcrQibucKxLkafNLQ6qC6l8/u+/Nj1ERW39EFuavgnWibhfL+OtCOgoWsU8y867rH4xXdvvquLXVdNxDwtYgeMQKX/PCHOOu73wEsIcedy2CK2zF/Cu1JpR22bvnyKv58/qmGb7LirB1YetsdaM7ZDaPLTidDN3BH0E5ZQmAHIxVYl4Hm6PdmWfFH2BiOx3dvZyB3im5cA5lBFlrm5gmeWvheoXVGV9dgomD2CSaXE7Db4bHZuoW2LsHddmKha3rtFMgvt9tgcOjBToG8FHqQdwZ+0JPbyOfoEwarHHDajcWH8NbDP0LuW2+TcchuO20YYvDvfhyc+jMxuM3IfOMdWFub1AUfgtdWGADcbge5ZVyh7V3Rb3hHEiZyoNwkDINnz5xesHDwA2Dz66+SsJHod3d/hwDHKW6nHnIQ0FZTS7esdhIcROCCC/5NLfVViHB31pH1H75DuPXQDVNDOUI97Wqt3CsDQ20dufguC1mOQ++KBqy48d2pX06eys0afKgHV1MdYuwNMHq61Kr3AxZFM4xOOyJqyxCmXtKS+2Wg4MoC7d/QI8DErVPGtH43Q6DyTxgUWID41zW5WhBWUYwQZ6t3bX8xk9FnhLW2BlEt1aquTYTt9CCgxM1g4NYqrmHrJHBNT6EvWIj4lXhrTSESag/D7CaB44eaywWDUwtwOmkdW3W9POg8HlhbGhFTlosIT6vP41EYCEwWKo9DtBCKNghDEl2E1A3qaYO1bC/iGitg8daZcR8urR8XTcmg8yirTrf3+C9NPTYY2xsQWpSNaHu5angSBpah+GqajoibMKThG1R12bBVI6IgE0nl+SRUDTAZXOBXstwmCzxGrdODJmskcy47TM42hNWWImnfWiQ07ScrUKtrEwYWft9BMQRFTsRNCAjY6rI6yAor3oG4/A1IObIXsa2VtK4JJpcNJnc7DPZWmFubENl4GJGF2xFXsAGR7RRHZG3Q0JsShuIV9k/c6JHIT0XuvOtSj8dTeSpa3sff70kIRLgIscCZ4IS55QjCDm1DYv4aDD+wDiMPcvgSIwq/xPD8z5CYtwaJ1fsR5rYpq0+3KeSWGXi4TtSgXuka/Kvb5a0Mld2xrUX/xM173DzxTf9UI2bn0EE9/LTZQYUFTnuzwA1rG1lydaUIqy5CWFURImtLENJaS6LmQIg3nu/tf+yiIBwvBqNmvw12/ZsSUsqiMxeVqzbbA6IPwnGjP6sNMTEwDcuAw6TXex1Nb+LH6/SHJgdu9zSEhCBmyiRYExPUsr6ep/rt3Ntt3dd24fRBxE04bnRxu+Xf/8Ljhw7CMGqEEqDudIigd+oLx9fFTY83dvZMPLxjPWZ++w7wC1P88hQH3q7HFYS+EHETThwPOQykOL6iw5YWByVIFivChw1DWFycEil9G4/hEhYbi5DkJNjJ3zBERsJpMaPsYBHee+xJ5K3bCI/BiLCISFgoDU94OCLT02AgC1G35IRTjP5EOkloXX40fOd7IqDEzeNxqcBo7r04HkMDEqZuP4UuPsmz5uP7mzfj0ayd+H97snHtf/8Fd2QECZsB5z/4fTyyewcezd6Jb69Yjp/v34NJ37od8cOG47L7H8Cw2bOROGYMHsnZjpvffRc/25OLH2Vn4ZvL3oIzPEzlI5xiSF94aLSTgsqLBY1ki+831cLQuwYErOWmClP3EiWcGtjq6vZbqCGFrKG489WXEDdmLN7681+R9fEqLLjtTix67DGkT56KS3/xE1TX1uKFH/4fomMTEZ6UBldEOAxmCyKTkmGIiqREzAhLTsb4ObPxzhN/RsmOPRh/yWVIXXiOWG5DAO4srT7efrLKorJtDNrAtEq+es83cN3SY1ukwimAfxL9VmPhSZo6BVEjMrDh7Xew/okn8DZZY+3VdZhy2SKETp8Cc0QYNj//Mopfp+1/fIr20H9UTqVr2PDxh9j5n6ex+/WlYKfUHRkl4naaot8VfRG44kYY5VNtQwa21Dgw/HDlLhtmt0v1gQoxWhHOy/yc9zgpuBAKq+pCYA0LQxv3XYuO4F17xdbM74W6YXNyE4MJVu8n/gShNwJXHcQlHTJw/yO2oq559BF89cnfU3gS1/zut6ipqkB9WSFmXb8IF/z4Edz496cQlhCDzI8+Rsm2HWhvbMH5D34P1z75O1z+y0e1xzEpljY0GKepnB6VPo/npiw11VmU1hnkdaohwxAtiv6JGx28On6uwOs2TvupgOt3uGKR9U1u8FMH3xN8A7naWuFqbMD8G6/F7Lvvwex7KNz9bTitFrx02x2o25+Ly376/3DmDddi08tLsea3T6Dl4D68de/DcFc2YNriG7A3cxelRFLmdMLosMPR2AhLexsstOyqa4S1mb8Z74bRboOjuQUhZMGJ3T4EYD3wGhqq7q2fHN8+/smQf/cHxfIevpbyKUKvtO6ovDZ5p8Ipga8+W1Nv33UPfhmXip/EpeNncXH4WWwsfpKQCsfBEhRu3Ya/LDgHvx45Ab9KG4MP7/4eQpoakDZmBM75xi3Y99nnePr8q9G6/yClZYCjvBIHt23Dj5PSsOOpv6KmoAA/GT4Kyx/9qXrjYOsbb+LHiSkoW7acHFvhVKOJE90J3cvmIOOPCsnDTzhhuI7NRf/YcdQ73PItzvVuXJNmpQLgrKkGbG1qPW+vLC+H3dmGBffciV/s3YYLfnQ/ijdtRNkX61Qclk2OxzcoBxYy7Wb1qPy45k25qYLQCyJuwoCgRu2gEOoNeuOCL/rTluMaW9vw4o0346/nXYDnb7we/7j4Yjy36CqY6mrUTak///V9eJ0+z2mfHPtACGRE3ISTDouUsvDsdhzetgP7P16N0g1b4G5uVW8t8HYWr56CIPhLQImbXvmo9Yj2wNhtyHEhcOhJqPRfk29KvWtJ9yC/+NDmeBoIBosAtty4tVSe5YGILl7a0EVa4GWG5491U/I2fZ8AvnmDBmVRUzn0LYlDpVwG8P1h6KiDEQRB6E5Ai5vbxTU3giAIRxPQlr2LP+/mnRcEQfDFf3HTVWQoyaHHHdjqLAhByFBpVPBPG0jYOuoIh5CpxJfwVF1GzpfbbH2D1AEKwtAhYA0f/l6iOTJa9YvS+0adaljgVP8tn6AL30Chp9dXEKEVBgt9IFK2c6zWELrZhubdFrDiZqBDn3rNlXCaLB0nMViXmH9MFtC+mi/4x+Zj8Q06fDPw/tqrSp0i5CuEfQXeryd6Mqb5Wuh5dM/LN38RQaG/8P3G9w6XiVk33Kh9/b/Ld/eGBr7lL6DggXDOWHgOrn3qSRiTk9BGF7iN1rdS4KltAAO/x6gsRPpVVT4U2o1GtJu6BjuP7W/uGhxmc0fwWMxwU3BZLHB6A/oRPBR899WDo4d1TsrP1S24+etUFJzqWLVg854PX7f+hp6ulYTgCD393npop3IQHhOD875/L+bf8U0Su54er6ceQ21t7TEf3llZO7Hsw/dx+y23YtXKVSg5XIo3lr6Jmppab4ze2b59O6ZNm+ZdGlj4oI38x+BGc1Ul6qqq4fGOg8KjSwykRcI/nfr56E/HD8njHJMo+KKeFN3WeffU6Nh1YJ8pPVXgHnudNlWL9Eet7yH+sVC7arNCEMK3avc7uQPaEBMXj5iUZIAe4GS6eTf0n+rqaqSlpXmXemfcuHG49tprKG4G5s+fjyVLl+D79z2A1NTe9w1YcRMEIfAZTHELWLdUEAThWIi4CYIQlIi4CYIQlPgnblzfrCrrKfTWH0EQBGEIIZabIAinjMEcHknETRCEoETETRCEoETETRCEoETETRCEIQ9/N4X/aW+1umjibeA8BiJugiAEJUEibvqbcHw6wajX9LQy8HgegXpu/DEffuLqvxPDT115tgqDR8DfXYfLqpCfV6JCQX4hXC69EAUTmmh//tl6eE7gJeVTBgnz/ryD9FsdQXNTC7Kz96GwsIzORTpNCoNHQIubwWjE8y++hH35B7C/IB/5BwvJFWdx8/XFfU9R36YLhK9Q8Ly+zPv4+vT61zL1wqhv892H4Xl9vZGsFQ6+23W678NWmS7KvsfL87yegseMXTv3qjQ1vOsVvunxsXLQ9+Xj4fnux6Gnw+fE+TMcX1/2Xafno9M9LR1ez4HT4CnnTekYnSg/XIGqqgZsy8xCY0ML1q/fig8/+IJHiheEQUG/w/3AeNQtfrJhoTCSoPliDQnB5YsuxGVXXoTLrzgfZotZWQYvvvgOlr66HJUVdXC7Pfhy3Vb873/vY8uWXOzcvhc2mwO7du3xpgJk7doLu91NcYGdO7Pw4gsfYf2XWbRM+ZG1lJdXiv/991O8tnQFGhtb0NBQjzffXI7XXv0IdbXN3jT2qykX7KKDZaitadKGEyJ40tTcjHfeXoGXX3wX69Zup4Jton1b8O7b6yjdT1BXx+l0CofT6cYXn+/EKy9/im1bcuhYDCTeDuzevY/WLcPrr60mS6idYmr7cB7ZWbnYQef30ovvY/WqbXRO2votW3ZiyUvv44Nla+FwaGmvXLmGrtN7ePutz2Fr82Dv3sMU51O8suQTlBxqQOa2fUpMnU4XNm7cQjmY0NrWitzdByhdFz5a8SWWvPw+Xa896hrX1zdhR+Z+uu4f03QviVg73n57Pd54ZT2l16L2v/DChVh4zix87aZrcehQJT2gOs9XEHqDyz3/0yTLv09z90PchibtNid2kqiwoOXuLYWNBOqtt9/FDTdcjAsvmo3wCAs2b96JkuIKXHft5aiqPIwVKz5WhXPz5m3eVKDmbTa7so6yduVj8U0XoaCgiArpHiqExXj//Y9x5VXnUJrzYLGE4rln3sC8ObOooJ6F5597FS6nEZ+tXq/Ekdm3fz9ZK0e0BS/L31+FUaMycD2lPWZsCtk1Tjz3n3/jrNkTsOArM/DMM8+TEOmPEAM+/3wNamvLcdU1FyAvv4B+LLKIPCaEhYXSsVyCqdPG4p1336e4mkXJN8CGjZuxK2sPrr3+UhIlO53rKpVWXFwsrrn2MsTEhePTT1Zjz+49qKg4Qud5Fc6aNZFSsOGdNz/ClVefh8sun4+IaCMJ6zq0k+jtzinA00//j64PuZf7ilBSWoJXXnmT0gzHNV+9CJs2bkVO9n41fM2zz/4P518wD5PPGIdn/v0app45ERdfOh/bd+ykw2Ch5/HjgGXLVlOc0TTP6wRh4Al4cTOQNdPS1IJmshqamhrJEgASkpLw8cp1MJlNiIgMwY4dWVSwL0ZMbAQuvPg8GEOscJvICiIx4IEtGY/Hyqlh46atiIwkQdyynoTRjd25Wdi0aReuvfYiJCXHICUlEfW19aiprSZr7iD25RaioqoCzc1tXGxhNnmfKlRm2W0+WFhAwrsT5UdKMXXqGVjz+Vbs23sIw4eNQGVlNRrqbcjPO4C8ffmorqhHaytbYowBubn7lIjFxYTjuuuupl/LSgIGxMYkUprZlM5uVFfayALUv9fuhsloxiUXn4uY6FBccum5FOcgpWSg5Whs27YV5WVHcORIDTIyMki0y7B5QyYy0hMQGmJGSloSPvmIBJq0Mi42ASNGjEFxcSm2bN6Ba796HVm62WS1FWD69Ck4XFqN+fPnksDF0LW5ApmZmmV57nnzKe0UmneQVW3AxEnpSEgIxbnnTKOjcKvj//zzjYiKjMAFF8wly9B76IIwwAS0uHG5CA+z4JxzZ+Gcc+Zg1uwpYG25//67MPWMyXju+beocBfDQVaa2cwC4KYpCZq3QGmV8zxqL9lEZHnpjB83AePGTcTcubNxzTWL4HLbYTGH0hbNqnKRtZGeno7xE8Zg/MTReOD7d5OImik9l7fOj9w+l1M1bnjcVrISLfC4rJg2fTLuufc2lJaW4x9/ew1Ocg9TUtIonQkkAhPwg4e+i/Bwzofx0P5OEgMLDCTEBoOJjtFDllwTWVEvITExEfMXfIXElM7Lez5KKFQ9H5+Lga4Fy1ooykqO4KX/vYvhwzMwe/ZMJcKJiQn4v/+7X1mBv/71C8oqu/Pb12Du/DOxZMn72J65D/PmnYGtW3ajrb0Zl1xyLrnGu3CkooZEPoXyMMBI15r7H5l5NFayykx08UPDIug6kHtPwRISquLxMVmsYXRMfFwecr+rccWic+jcvAcuCINAQIkbuzDd3Riu62lrs1FwUHDCbnOreqxRY8bgogvORUF+BblGk/DFFxtga3dj44ad5LqSaJDI1Te0kKVkQ3VtIzZvy1QiMnXaGcjdV4DkVLI4klJVYZ151gx8+NEXaLM5KL4d8QnxqKtvQWhEGNKGJyGWrBcjfx+BLmctrW9qacPnazfAQ4V3zJgRmDXrDKSTNVNVWUvWJHDppWejobEGCSQwzU1tiAwPR3pairKCOusUPbTvSLIaM9X5rVv7Je3rQRMdc0pKnBqZdN/eA+SW65aeht1ux5atmXSODny5bhtGjkpD2ZHDGDdhJEYMH00WVi7cJJINjU0kvAbMmTeTXOVEVFbUoqa6ieKk4MorLyX3Mx8ZwxOwY3sOps+YiqioMDovGx1jghomPTIqCtm79qO93YlVq9ZiBllzLpeLtrmUyMZER6Gxvp7OmazRZie5rjuUmLEYTp48kcSf44m4Cf6hyj7943Khhb4xPfLII49553uE62X25e3HtKnTcODgATRRodizZw8VOP4My7G55557qCCmeJcGHi4cVVU1yNyShZycvcjLzcO4MaOx7L0PkbUzSwnHlVeejwkTRmMvCdbG9TsQExONmoYGnLNwDiIiIvDRipUoLCrB2QtnUyEfSWIwDJVV1fh8zZfI3ZtLFloKRo8dSZfThRUfrcIucgennDEJZ0ydjA+Wf4ydO3PQ1NxKYjMaw0ek45333qe89mPmzDMxdtwIRJIA6oWYGy0+/fRz7NmdjwsuXEjxU+nYxmDFh59iZ1YOGui4OB39xxs3bgy2b9+FzZt2IDk5HmecMQYTJpKrWFKITZu3IS4+noRiHNLSkikPbZ/s7P1IiE/Axo0blfV03XWXIjU1kfLOUQ0o48aNxbBhyWSN2vDuux9g185scj+HYfKUCXj7rbexLXMXXdNKXHf9IrLqIsgac5EFexZCyAoLD7diwvgRStxnzJiMdes2IHPrTowbPwbz5p9FubthtRrpWJPUOfOxrqCHQu6eA2RlzkPGsEQSyVB60KzHxInjNYtPOK1hHfnTn/7kXeqduLg4TJo0ke6fSAwflkH3eQ55FvMQGRnljXE0/n1DYfn7uO3m27By9afk4pThjTeG0jcUjvH05zNTm7UZVn922Z586gU89PBdVBbZISXz1ZsEG4Udu9AfdurY0jAYeT9apsBxeMr1S8oFpD0MJHy8H+/NhVozLnm9kdxRnlJcWtasTm2+d6ulp/XaPkejx9W2cZL/+c8buPHGryI2JozWsnXEAsLPPCfF1lqbDR6TtgdZWWxtsSh1oM6Jrwrvp+Wrnzejz7PraTA4yTqldW4LbfHmo9ZzTErHSG65h3xvD29nOA5dKw+72bzc0zkJpxM1NTX08E31LvXOGPLE+BsK6RlpWDB/AZa88iq+/wB/QyHdG+NoAsot7RkuIL0Eb+uchi4oHowcFgMLlVAzBRMFA4kcB6N3madGtc6tiiOVUZqnGdIBfcrbjS4qyNxp2Lvd4KLL6aSC6+JA8xxfCQTDBZrrw3iqUu0l9IR+Dt3xPT8WXDf92NFkPdECZavlw/BRcJ0jiRqpkZvOT/1TImOmYO0MKh4fB6fLJ8vx9Hw65zVxon07GjM0kdTWM1zfSHFZ/TrgOHxcenqCMHj0VpqCFK1Qff2m60n3qIB6l/sOPrM+qzq3UYlWjRP+0j0x33D8sHheddUV5E6G0FLP6ep1F2p6Qtnx+eqhN3ibLrCCcHLpp7h1LSiBjGaBBCe9u7yCELhwke0otn4UXz/ErTMKz3GdijThC4JwMunoRaBEzT+bzL9YPgSxwSMIQhDRb3ETBEEIBETcBEEISkTcBEEY8nRtAKT5jmp/7q7UMyJugiAMeVjcuBOAgRSL+0nye9PeLd7p0Yi4CYIQlIi4CYIQlIi4CYIQlPRb3Ph1wWP5uYIgCIPBILyh0BVP740TgiAIg8JJeUNBEAQhEBBxEwQhKBFxEwQhKBFxEwQhKBFxEwQhKBFxEwQhKBFxEwQhKBFxEwQhKPFD3Dq7ArulA68gCKcA/YNGaqqt8Ybe6Ze4uY6dliAIwqCgj+emBI6m/nwDSdxSQRCCEhE3QRCCEhE3QRCGPFqdW//qxUTcBEEIELRGhT7aEToQcRMEYcijDXkklpsgCEGMHw2lChE3QRCCEhE3od/oT05t6u9zVBBOLiJuqnDq4XgxUfDuz1c0qMo7n1tXtDUG+mei4P8tZPSpMgm6yyQMOYJW3PxrNuZiaoLTya0wfCmOLsjHQm+eNhhcvASP0eBNJ/CLrXb9+Hz4nbuut4l6C4/Wu+FSwV/cdFnoKtGch/bjKf/153cShP4TNOK2bdt21NTUqXkumKs/W4P29vbOD0scBdkcJEZc0F544UUSOKe2uk98hcuAqup6/O3vryIvv5zy3Aa3h0uwlm7vr4gcvcHgE1k7LneXdZxeb3A8A3+K24fOXbunob8gfOwXhd1uD958czn+/a9X8c5bH8GlNIzTMsBld6Dg53/BkR/8DCW//h3acvd2O6POtDuOmiLwWrb3Spd+AEN5Dc256QbUYrDIeTyUSXsbLXBMEj6DLoU+6XSBrpF3C+evCyVd+Y74Pe8nnA4EgbgZSZiA199YiQ8/3QoDWU4m+jd+7CRYrSFKtLjw22w2mucSyqfMQmaEgwqpx+OErZ2LgFY83G43xeX1tOgDL7Noul0e2O1U8DzkkhlMqKqsxnU3Xo4tmZmIiQ6Fka04g5PScVA6dtqT0+U8earNv/Ly+3DYtDR5nZsKs93ero6Tl10uzt+jjtntJuuIyrrN5qR1vL07BjgdHJf30fZna8tma6f9NMHmY+VtDoeT8rHRvIuEw4WPP/oCR8prleWq5Uv7tfOx87mZceml5+Pe+25DZHQ4Nm7IpDh8HmTdttvhcNYg4w8/R/qtt6Hhsd/DVVXBScDgcsLY1kr2HB03nY+TRNdN8d2tTTDTekObE3EzxsAYF0b5meBqaYWHthnoPJuKC1Dz8qsw2mgdZ+Vx0L5t8NgpPRI67ez0P7TspO3NLfDQdTLQ9eJzcjjtsLU1w0G/gZGtSq9ACqcfpkceeeQx73yPVFQcwb68/Zg2dRoKDhSgsaER+/btRWsrPWH74J577kFKSop3abDwYG9uASxmCwoOHsCCubNhsXjw6cq1GDd+DFat3IDVqzYhd28BVtL8yBHpiIuPxeuvf4Av1+3Apk3bcTCvEpdesRClpaV4ben72J1TiD278zB9xiRvHsCRI7V4+l9vIienFFu35KKxqRbjx41EdW0dln20Du0OtiIMmDRhDO2fR+l8hJzsUuzJ2YNp06coIWRxyMrKxtJXV6Cp2YZh6WmU52GV564deSg/fAQTJ03AG699gk0bsimvYoq/H9u370R2VhE2bdyG2XOmUVraMbE4bs/cgXffXU1xC2EymZXV99yzS7B372Fs3LgJZ545GS0tbfjLn/6H/fvKkLltH/2mtUhMjMdz/3kT1VXNsFjNSkRffukt7N1zgI5/H2bMPANhYSGUl4fiV8Buc2HU6BGaAJOYVH/5JZIuPBf2hEjU7tqK8EmT0F5chrpf/x7mNZ+hancWoucsQOPKVbA98094PluJ9meeQ9iINBzesQ3xo8ei8KUlCHn3Ldq2Gq7qajhXfYaQ1athamyAYfoc5D/7IsLfeRvut96FIWM8TOlJcKvHsQdt5RUof+QnCCOLvX31KlhnzUZN/iHU/fb3iF77BVqz9iJ87nR4TEb6VfpX3SCcPNra2vCnP/3Ju9Q78fHxmDBhPKKiojFy5Ajs3p2NOXPmIjIykraqm+Ioel4bQHABX/PFBpx3wdk484zJyMrJpec1u4vVVGDd5KrWYOLE8bjzzuvwjduvxrp1m3G4rAZVFfW4//u344H7vwm7q0UZA8OHZ+C++79FonwTKipL1f46DoeDLL023P3da/DAD65HdnYOXCQIE8dn4If33oT7v3MTDuUXw0Ui8MGytbj33m9QuA5RMWbs2LHbm4oHM2dOI8EZgzvuvAaJSTEkTCtw9923KQupsKgS9XX1KCo6hMsWnYdvf+cq1JF4zpk9F3fd/VXEkbVz5EiVNy3WmHZ88slndMw303FdTWlPwJuvr8AttyzGPd+9Huefey6WvbdaWZvN9DD6zt034L4Hbkbunr1ITEjEWWdNwOKvXYhZs8YhPSMO3733ZtxJ51FTw9ac5kTm5h7Els3b8ZWFs5TQ8TmwVdlKgle9YR3q/vcSwhuaEJ4+HCXP/BdpP/t/CKOb1VXZAldRPuo+/ACJv/kFIv/4Z9SNSYdh3lw4qlpAJiRsmXsQ+fCPEPGnPyD8tttg//rNqL/qWjh/8APU79uHyIpKxPzm5wh/4nGUvfgSjGRpG8kyNJE17t6ZB9OE6Qh7/KeI/tPvYIiLR+XT/8DIX/4YYX/8DepqKuAuKYdLufjC6Ygf4qbdHKqCWdWFDB34mJrJLcncno233lmG/P2HsHz5WtrS+aQ2GM0YP2GkKpiRUREkUjYSjzJl0fCZmcxmjBkzmossiouL8cy/X8Izz7xMlk+5ds465MqNnZBO1pFH1eOFhJA77HBh3/5CPPf0Urz4/GsoLjoMG4lgWHgoWT1WGE0GEo6zcKCgpMPaUhjZ7TOglZ5apcXVePnlZfjPc0vR1GBHG7lwIaEWsnjjKY4RSUnxSEmNg4kKaUhYJAka+bMKA+rq6zFs2Gg6Hgst0Tkb3GSl2ZCamqjOly3PUrKm+CzGjxtB2ZIVQ8dhCbGoCjCtPtJI52lAyaEaOo936Dhew/68gyTs7KK78Nlna/Dd791F50v7qFozrS7QRNsj69vQ+OkapNx3B5zhIajP24Pif/4bRb/+I+z1zXC1OuAaNRKNb69A+4fLYYiMhstCx6rydWEYPUjKHvszan/9BNz1VeSKUvp0j5nJJ23P3Q97XgEOPvFHHHj6GTp3OypzdyGbhLDw6ecRee5smPk3u/cR2D5ZRQLuhCsnB6WU/4Ff/QGGmno4W20wk+srBBdcjUO3X5/0KW7R0dG49uqvkutiwcKF5+D8889VN/dQgI9j1aov8L1778D3qID938N3UiE0o7a+gbeqwNaXxULFgAowaxXXu0dFhaKOLCTWajetbGiiedq25OWluOXWxbj7nm9g9OgUn/Pky9TZKqpZMFSYqPC/+fqHuPOOW3DHHYuRkBgFMwlIe1urEgemklzA2JhotZ8mDtosCycfa9qwWNz1nRvJ0roFP/vlt5GcHKuEjP9xHK4fIz2gPN0w0vHozxd2P6Mio1BbW6OOs7O+zQUbWTg8X1FZh8joSNrPQ2lowqbB6Xrn1IwHr7z6Br7xzZvoWG5FxrAMtd3lcuGii85DREQo5afF5xZPShCh6RkIu/JiZPz0Ryh+7k1Y7G7EDR+NkT/5EUb+/CGMe+ZJhE2bgsi5s1FfVIDGlCSyqh6DwxpC1pRLHW/ErMlI/9dvgIsux8Hf/w2mdlpP18hE+VpTExB1/kKM/sWjGP34z5Dx5B+QQK7qtIcexOjvfhvGSAOSHrwLw//6axQvXwlPfhEwcSZGPPx/GP3LH2HMc0/BRJZ8nze4EBCEhYXh0ssuwcJzFtD9GIYrF11F5cfq3dozff72ZrJsIsjiMdHdHRYaSj5uREfBHQrs3JmNWTPPJFGxkwCbcMWic/HJx5/DbDXTVirssNNfFiWtzosFZtLkscjduxsrV21Qblt1VZUSgNjYFHy5fjveeWu1sl66tLSSMpjN2rISPY9VCU5ISAw2btiBN17/iFzGaljpGMZPzMB/X3wTn36yER+tWI9zz5tDhdnhFReuGA/Fms8zSWAbMfXMqXjxheXYuJGO55NNcDlMZB2SkFFWSneMdlXgYaDzMLJ9qakbH0N0VDRZo5F4nVzR1au2YN++Ylx40QL86x+v4rNVu/DC82/hyqsuUQLuof1pZy9c0Q6MIDd85acbUJBfSuceh3Vrt+KDDz5H3v48iuogkWzDrl1ZKi9d6LnOy0PnbTeG0bFZEDptGozxcWj5cifiL78SJT97Ek1vvo+a/zwPV1sL7EUHYCYX0/LecrT85WlYyaJzUBruNhdqnvofWl77APZ1KxGZMRKRSclwbtmFqhWfIG7+HNTu2oTa/7yE1pdfQ8tHK2Hka2im+88cgor1u9D8zAtoXPYeXI11MMZYkHjxQpT84vdkKX6Ehn8vhaGVXF9xS4MCLotRkWEIjwwhb4vmSZNInSj0/vsaamtrj6lUJSXF5Gq1I9QaSi5PC6qqKnHnnd9GdXWtN0bvbN++HdPo5h9MuA4qNTWFzoQKPZ2Jm0yL6uoaslQsiImJQUNDgxJktlxcLgMaGxsQFxeDtjYHDhWVIIIuFm+PjQ9Deytw4MAhslajaF044uPZ4mKMsNudtE8rpRmpCnpVVQ1tj1MNK4WFRUhISKCnSziJRJQSf3ZxW1tbMXbsGITSQ4FFVe+u0djYqvYZPXoE/UhRKC0tJ6GrU+kNy0hDLc2z2PAPV09WaDRZX2azi+Zb6QETBitZfPxjc3rcwpmff1Ad26jRw+gGCEfFkQYcLq8idzuDzjVOtZI2NzUjNi5W5V9dXY3ExFg6ThdycwvpnEKRmJSEooMliOJzj4hAdEwYbQelVYMRI9NonluIWVxJ6Nx2tFZXISKZK/jp0dFClmpzO8ISEtFSWoZWEvlQusaW8AgU/v63mPSzR+Gha1P03jtICKEHJVn/obEJaD1cAceRgzDEJSBuwmQSLguaD5airaYWCWTVoaUZ1QWF5FqSCzx2GCwxCXTOVrqSJL1tdWgpOAAjufER5Ppak1JorQnNRUWwk0tqjY9B2MgR5Opyg4IwVOE68dTUVO9S70ybdib++c+/IDImigwtCxrqGpBBD0Quy5rRcjR+iZvdaSNxsKK1uZUKRiXuIHGrGSLi1n/4VlcmkXfKga0hDlwXxnVQPV0S3/i+sJtKf9VqvRjpaeocXe+j5cEWEW9zqTSYo7PWfzi2PhktomZJcWAXk3fS0tPgfbgbSPd89e18bJqLDVhpf85f36bDYsbpmEhINWHrgN1yfpjwPmTKsUesVulRSFCM5FraqyuQ/dDjmPDAHeTOGlG2dCnG3fEthMyYSvuQVc2HQFl46A/nblBVB5QXuf+cH3fr4TZodsf5fLhXnIWOh7sPcxwDLdFe6h+7y0beh1LjZHkP5an7NAoJQ49+idu//opwemCyFvFDPyN9OBkE/MDuuV5VLzk9wjdYQ0MjVq9cDXt7G3bsyMT6DRvIbTrmbkMcvQTyTd9RGil43VjfQtwF3/i+8D6qaGqLCp7nC66Ho9FcPZ7TRIuz7TlrzpdD1zz4OJUQdOzkmz/H53Pibb5BT4vh4+Jz1hoIjkaro+N6xqOuCZ+vm/Z3KWVSOsdTPRcPCYqLXGhLUjym/vohWPIKEJmXj8nfvw+WaZMpjtZfUItLf9gqpOAmtVNrSdS0BhIWNtquYpLI0lp+J4KXoPru8fnTGg8JuZvEj+ZdnKBaT1MRtqCB+2euXbsWO3fuUN1HVq1eBaeT+5H2zjFVim967lBaWVlFN5QRNbV1qK2phkt1ExCE3uGGT+7Eax01CpbbF8P+jRvhGstuImsO3z9KogTBLxwOO6oqK1UDmuriVVt79EO3G32KG8NNrzzHT9een/KC0BV2Q+GxkJ1lIffSghCXhQSPu6CwK8kW4zFvPUHoAtcP01/lNHho3p9Ho193mHKBvPNyUwqCcGrQ6leZARM3rabYo/qIaZabP0kLgiAMFFr9Nb85rjdA9YV/4sZuKaXGHUeVtvmTsiAIwgChdX3i3gwW0iMDS1KfHFPc9Ao7FyXEs2o4H/7PJpwgCMJJQh+ejDRO9e3k+b7oU6UMRm5yp40biWQAABGaSURBVISUulEGJHCB3RVEEIRAg6vDNFvLSMaWGyZa1gSvd/pUKat6sVGbV+9UKsvt2IkKgiAMJKpDuVd/uLXUYubXFHvuQ6rTp7jxq0kGVkqzNpoDv2OqchAEQThJmMzcTmqEmURNWW4mM6xWfrvGG6EH+hQ3fvdR80o96sVxrtjrSzF1xMITBGEgsJjNpCcmmEnUnE4HaZFFjRRyLPoUN/XuIwmaUw3XrY1Dxi+lC4IgnCxYzAxGru83q4Eg2ILj+WPZT36ImxacDlZLrY9JiBpOSBAEYfBhUbOGWNU4hzyupMNug5EsOfIntQi94Ie4kVoajHCQ5aZMQ0rQbA7xbhUEQRhcuFE0NIQ0h7QoNNSK1rZ20iE22Y5hthF+WW5s/tna22lqUXVuPDaaIAjCyYBH3bFYNIPKSlMeFYSHzNfErXct6lOluH4tNCyE1LJFfQ3JaDQp/9cf+nprXxAEoS+4P5vZrI3rZyULzu6wq1GotdFlerfe/BI3TqilpVW1TnBGVvJ72YLrCxE3QRCOBY841Bf8DRSzmYf1NyAklMSNvMikRP4I0gn2c9PcUhPstnZN3Gg+LDzSL3HjYbYFQRB6o5WMpr7gN6KU18jT0FD1xTvWJNamY9G3QhFhYaFqWN+w8HBVkRdOU3/ErbGx0TsnCIJwNPyNk77gd9lDSNRY0MLJwGpsakJEBH8g5gRbS9mzTE1NU0LFHzphFQ0NsSKEWy/6gL9ULgiC0Bv+aITFSnpj5SoxE8zkovLHkFJS+LsLx5YvPy23MLTbbCRuYbCQsIXSMr/60BcHDx70zgmCIBxNUVGRd6532EpjtzSM69vsDtUtLZTm+6rT71PcuBIvOTmF/NxmJWhcuRcaEooQyqwv9u3b550TBEHoCovTnj17vEu9ExkRTrpjRXhEpHJJQ0iHoqKiT1zc2K/l73jytzgddjusZosSuaiIKO/23tm9ezcp7bG/UCMIwulLdk62d653omKi1dBrkZHRaCZx47cVYmLiyE09YXHjrztHqQ8DV1ZVIiY2VnUP4XV9vRhfWFiI8vJy75IgCEInNpsNO7bv8C71jNlsRhxpjtlkREJCHMqPlCMxIQEmEwvbsbuR+CFuBvJ3IxAbk4CqyipKOJEyNKmvsfc1aCVbbV+u/1L6uwmCcBRbtmxBS0uLd6lnuG4tJiYGJhK5hPgE1FbXIVU1JnAft2O/4+6HuDEGpKWloaSsFMkpybBYQxAXH4/QsFDv9t75+KOPvXOCIAidvP/++9653uHGS36JgLuAhIWHqS/UZ2QMoy3sNR7bc/RT3ID09HQcOXKEVJTcUrP21kJMdLR3a+988sknfvVlEQTh9IG9On/ELZastsjIKAqRqsNvW3uL0iJ/8FvcRo0aRTppQG1tLRITE1RH3qTkJO/W3uH+ccuWLfMuCYIgAGvXrkVpaal3qWe4vm3YsOGqATOePMXKykpEklGVlNS37jB+ixsnHh8Xj+LiQ0hLT1MvsCYnp/rV3+3pp5/2vuQqCMLpDtfB+6MJ4RHh5IJmqO5nw4YNw8HCAxg9coR6U8Ef/BY3TnDChLHIz8+njDIQFmpFRnoKoqIivTF6Z+fOnVi9erV3SRCE05msrCysXLnSu9Q7bKHFx8eqTrz8LZfS0jJMnDgJfX31SsdvcWPOPHOqqtDjz/tFx8Sr+reRI0d6t/YOK/Vvf/tbOBwO7xpBEE5H2Fp78sknVTeQY8Eu6cgRI1W3s+SUNFTX1CodGTd+nHrX1B/6JW7Dhw9XFXt5BXkYPXoUuaShqi4uglS1LzZv3uxXBaIgCMEHD7TB/WLXrVvnX0NCXKxySfnVzzFjRmHv3lxMnjwZkRHsKQ6CuHG/trPOmon9e/dh+LARJGrhSElNQUpKijdG77Bi//SnP0V1dbV3jSAIpwtc/rlP2yOPPNKnB8ciOGL4CMSRwEVGRaqeGYUHCzF16lTa6r9k9Uvc+FWsmTNmoL6hHvX1NRiWMRwR4aHKiuNB5PqCX6R/7PHHpHFBEE4zWLCe+stT2LHj2G8kMNwTY9TokWqoNa5j270nV3XkHT16dJ9vRfnST3GzICkpDRPGT8aWLZmYNHmienthDGXqj/XGPPfsc3j33XflrQVBOI348ssv8cRvn/AuHQPSLq7q4pcG+FXP0aNGI2vXDsyePUtVg/XVcdeXfoqbxjnnnoPDhw+jzdaOESNHqjf0J5HC9vWRVIZF7bvf+y750Hu9awRBCGaKi4vxrW99y68Gxbi4ODKaJiEqMgITJoxD7t5cGIxGErc56oPM/aHf4qb5w8NUxhs3bMT06dNVf5SxY0dj2HD/eg431DfgpptuQllZmXeNIAjBBhsydXV1uPXWW3Ho0CHv2t7hRodxY8chLZW7mMVg5MhR2L49EwvmL0CEH6MQdee4LDc+iPPOPw+VRypIqOpJ2MYoq23ypMlq9BB/2L9/P2688UZpYBCEIIUbEFjYuKeEP/B762y1hUdEYNr0acjN3Qu3y4358+f3q65N57jEjfMZOWIEzjjzTKxZ8wWmTZ2GWDInR9C6iRPH+92DODMzE1dffbUaavh4Dl4QhKEHW2z82uV1112HVatWedceGzaOpp45VQ1nNGxYOpKSEpG5bRsuuOBCNY7b8XBc4sbDjRgMFlx26eVobWtVg1LOmnUWYmKiMG3aNGRkpHnj9Q0L3EUXXaR8a0EQAp+SkhJceeWVZPis8a45NmwMjRs3ToXY2BjMnjMPX365HolJCTQ/+7gbH49T3DRiY2Nx8cWXYOvWLWp+BPnI8QmJSugSE+O8sfqGXdQLSaGXL18uFpwgBDD8QvzFF1/styvKJCcnq7p7rtKaNGkiaqqrcehQIa5cdCVC/fgQVW+ckLgxs2bNwpgxo/HZ6tWYrUQtUfVHOZNc1fDwvltPdbju7etf/zoeeughNUSS9IUThMCBX6f69a9/jauvuVqNwO0vbBTNnj1b1belp2dgzNixWLVyFebMnks6MpaMneOXqBMWN4s5BFdd9VU0NDYpF3Pu3LmIiIjEtKlTMXXqmWq8c3/hMZ7+/ve/Y8GCBfj0009F4ARhiMNldMOGDTjnnHPwq1/9Cm2tbd4tfcO9LObOm4uxJGhJiUlYSGl8+slK9bI8V1Vpwnb8ntwJixu7kWytXXnlImRn70ZLczNmkZ8cFR2FmTNnKDOThyXvDzzyyDXXXKPCxo0b4XQ6vVsEQTiV6PVfLGq7du3CzbfcrISIR/7pDzzSx1kzz8KUyVPUe6Rnn322Su9IxRFcf/1iNQLviXLC4sawwnKL6fwF8/HJp58gIT5eWW3xCfGYP38uppw5Wb3d31/YeuMLx5WT7733nvq8oCAIpw52P3m4ohtuuEEJ0rvvvAuXy+Xd6h88+Mb0GdMxY8YMRMdEq35sPNrQtm3bcOMNi7WRdj0nXvduqK2tHZD3oFjRXS4b3n13Gfbl7cdNNy7GgYMHsDc3F9V04Fu3bsOe3bknNOwRD1jHQscWHbuu/L6ZuK6CMLi0trYq4fnwww/xwQcfqA8pH2+546/mcY+KmTNnqgFwub6NhzdavmI5Lrv0Miw8e6GKx31pT5QBEzcNj1L2Ja++jIojlVi8+Ebk7d+PvXv3o7a2GruydiErKxvtbSf2LVN2hdms5RaWs84i03bKFNWIwUOk8OsbvI0txYG4QIJwOsBVP+wZcWMev1rJjQL8wWR2Fflld+63drxdMnQSEhNUmWVXNC4+DnPmzFEjea/4cIUSuUWLFqmyPVDldoDFTaO1tRlLlixBbV0trrvuehw6VKQuVH1dvfoK/fYdO1FXW+eNLQhCMMP92HhgDRYzNkK4hZQbHpkVK1YoF/Waq69RBslAdgUbFHFjWlqa8cabr9NToBzXfPUa9SpGJrmm/GTgp8KWrVtRWVFJT4z++euCIAQOISEhGD9+vBKwtNQ0VQ/PVUr19fWqywdbbFdcccWgeFqDJm5swrbb2pSfnp2dhUsvuZROLEG9bF9VXUlWXB1yc/eQRbdXdSMhj1YQhCCBhYqriLh+bdKkSYiOjlYNBdzomLUrS31HgRsLzzvvPBV/MDrvD5q4abjgdjvx2WdfYN2XX+KMKWdg3rz5yNyRicIDB9DW1o5S8u9z9+xGUWExLfvfR0YQhKEJNxqMGTNGjZzL3cR4mevF2YL7+JOPUVNdoxoGWfjYYmNDiMVNr9MbKKEbZHHjpD3qoHn8tg+WL1dDlV9++eVob7dhe2amGhKFXdbikiJkZ+1BBbmqfX08QhCEoQULEovYsOHD1NiOPNgkvwzPjXyzZs9CU1MTPlv9mapv49GA9MFtfYUswMStE246rq+vw/IPP0B+Qb4arnzG9Jlqfv++/erkuSGiuKQEBw8WovzwETQ1N6shTwRBGJpwYwG7nPwVPH7xnUWLRY075vIoHyxy69evR15+HubNnYfLLrsMoaE8ou7gc9LEjWFldjodyMnJxieffgojKfS8+fMwfNhw7N23D/l5eWTRtZF7akNVVRVKSopRVFSsKh/ZmpM+bYJw6mFB4+8cJCQkqC/isbBx146QEIuyzMaPn6Dc0r25e9Vgkyx0i664SonfQFll/nDSxY3hE+Q+NWvXfo7Nm7eosdLPPvsrSE1JRe7ePSgsLFKvcbW328l6a0J1VSWJXSWOkMva2NCAltZ22G12ETtBOAlw4wBbYxxYxNg6S0tNVR9NDg0NgTUkRH2hauLECRg9ZhQK8g9g85bNyuu68KILyWKbA4sllMr/wLmc/nBSxa0rnK0TdXUNWLN2rXo3LZwu3rx5C0jhx6Ds8GHlrvJrGTYSMrvDTtN2JXZ1tfVobmlEfW0D6hpqYWtzoJ0sO5fTqTojcuALqYupPhUEoRNdaHjKgS0ys8WMECsLllV1ho+LjVNuZ3R0lKpTi46JIgstlIJVuZdskPBIHvFxcdi3jyw1Kscel4uMlYX4ylcWkIUXQeWP3w3n7x+cPGFjTrG4ceBWEjeJWDU2bNiI7JwcpfhTzpiEiZMmw2q2qOGQDh8uI+utWg2Oya9wsYBxPE30bGTJtaO1tU29KsKji7hcThK8dtjsFJfjU1wPWXoO2s/l0C0+/Rg8cNGEt4dYTepJxUahi1a6XPy6GP0oJ/d3EYQBgETLSDculS/+uIqRgtlkpHUmWC0WEjILLFYSM0sIQsNI0NQ0VM2HkKXF4sWDXphMFlitFpjMZiVyyclJ6rvF0dExaGisR3Z2NooKC9XyWbPPwtzZcxAZGe49Bp3TStx84Y68LDgmNDY2qLHTd+7aicNlh9XX7Hn48lEjRyEhMVH9UNzCWlNbh/r6WjQ1NpNgkbjZNbFj4fOwYNF/JwmTm1VLPZlIqJzcNYWDJm5u2tTp2XrUwHgXX3IxwkK1EQkcDie++OJzNDQ00g1BK0TghACDb1su4PwFKROJGmkbwaP0sMiR5Ji4bPDX4I30UOdXn8h6I0GzkJhxOeDhy/i1KX4PND4+kcqEreP1rPLycmVI8Kf4Zs+apbp6sCByWTua01rc1E+g3Ek2kVlY6NhUF5KCAwUoLS1V2yMjwsnXT6GQgES66JGRUeqDEuyStpBV10aWW3t7u3JTHeTOcl86m71dNWQ4yWJTUxI5zVXV82WR86gnG3cq5B/IQ3lxmhvWrycXuJkPSsUThKHIUYWYyxH90Tr9k4CRoFnI5bSSpWayWJVHZOEpLfP9HhbOdWrhiCA3kqdGUsHmpia691uUV1VG5a+yslq9ecSW3fDhIzFlymRMmjiR3FX+xoFmQGjFhP90PyIW1NNS3HqHRYgtLQ78jmppaTHKjxxBaUkJ2kjE9FFGLPRj8RhyUdHRiKAfh319btHhcaFC6Ae0WOmHpB9TmdkUVz2l2ERXJhmhroKHtlvVraDhIauQ0u/4wQRh6NF5Z3Ytyvz8ptIDj6pe4Qe7XXk4/LC32+nh73CpaXtbm3qAc3/T5uYWNDU1quoeViqrOQSRUeQ9DR+FjPRUpGekIy01nYRRG6PRYDj5Fpl/AP8fOQw9GwQLomcAAAAASUVORK5CYII=;" vertex="1" parent="1">
          <mxGeometry x="230" y="190" width="224.04" height="438" as="geometry" />
        </mxCell>
        <mxCell id="O0pd_D38Ss_qhJY4jc5Y-2" value="" style="rounded=0;whiteSpace=wrap;html=1;fillColor=none;" vertex="1" parent="1">
          <mxGeometry x="260" y="400" width="170" height="190" as="geometry" />
        </mxCell>
        <mxCell id="O0pd_D38Ss_qhJY4jc5Y-3" value="&amp;nbsp;Login" style="text;html=1;align=center;verticalAlign=middle;whiteSpace=wrap;rounded=0;fontFamily=Helvetica;fontSize=12;fontColor=default;" vertex="1" parent="1">
          <mxGeometry x="470" y="450" width="90" height="30" as="geometry" />
        </mxCell>
        <mxCell id="O0pd_D38Ss_qhJY4jc5Y-4" value="" style="endArrow=classic;html=1;rounded=0;fontFamily=Helvetica;fontSize=12;fontColor=default;" edge="1" parent="1">
          <mxGeometry width="50" height="50" relative="1" as="geometry">
            <mxPoint x="430" y="470" as="sourcePoint" />
            <mxPoint x="500" y="470" as="targetPoint" />
          </mxGeometry>
        </mxCell>
      </root>
    </mxGraphModel>
  </diagram>
</mxfile>
